# Blender 5.1.2
# www.blender.org
mtllib akeybolt.mtl
o Cube
v 6.232277 2.512339 0.003415
v 6.232277 2.519268 0.003415
v 6.232277 2.512339 -0.003468
v 6.232277 2.519268 -0.003468
v 6.241041 2.512339 0.003415
v 6.241041 2.519268 0.003415
v 6.241041 2.512339 -0.003468
v 6.241041 2.519268 -0.003468
vn -1.0000 -0.0000 -0.0000
vn -0.0000 -0.0000 -1.0000
vn 1.0000 -0.0000 -0.0000
vn -0.0000 -0.0000 1.0000
vn -0.0000 -1.0000 -0.0000
vn -0.0000 1.0000 -0.0000
vt 0.375000 0.000000
vt 0.625000 0.000000
vt 0.625000 0.250000
vt 0.375000 0.250000
vt 0.625000 0.500000
vt 0.375000 0.500000
vt 0.625000 0.750000
vt 0.375000 0.750000
vt 0.625000 1.000000
vt 0.375000 1.000000
vt 0.125000 0.500000
vt 0.125000 0.750000
vt 0.875000 0.500000
vt 0.875000 0.750000
s 1
f 1/1/1 2/2/1 4/3/1 3/4/1
f 3/4/2 4/3/2 8/5/2 7/6/2
f 7/6/3 8/5/3 6/7/3 5/8/3
f 5/8/4 6/7/4 2/9/4 1/10/4
f 3/11/5 7/6/5 5/8/5 1/12/5
f 8/5/6 4/13/6 2/14/6 6/7/6
o 112741123615460.001
v 0.081111 0.025843 0.047619
v 0.071424 0.016157 0.047619
v 0.078274 0.018994 0.047619
v 0.061739 0.025843 0.047619
v 0.064575 0.018994 0.047619
v 0.071424 0.035529 0.047619
v 0.078274 0.032692 0.047619
v 0.064575 0.032692 0.047619
v 0.059759 0.014177 0.027175
v 0.064575 0.018994 0.047619
v 0.054927 0.025843 0.027175
v 0.071424 0.009346 0.027175
v 0.061739 0.025843 0.047619
v 0.071424 0.016157 0.047619
v 0.064575 0.032692 0.047619
v 0.078274 0.018994 0.047619
v 0.059759 0.037508 0.027175
v 0.083090 0.014177 0.027175
v 0.071424 0.042340 0.027175
v 0.087922 0.025843 0.027175
v 0.071424 0.035529 0.047619
v 0.081111 0.025843 0.047619
v 0.078274 0.032692 0.047619
v 0.083090 0.037508 0.027175
v 0.087753 0.042172 -0.018408
v 0.071424 0.058627 -0.018408
v 0.094607 0.049025 -0.018408
v 0.071424 0.048935 -0.018408
v 0.094517 0.025843 -0.018408
v 0.055095 0.042172 -0.018408
v 0.104209 0.025843 -0.018408
v 0.048242 0.049025 -0.018408
v 0.094607 0.002661 -0.018408
v 0.048331 0.025843 -0.018408
v 0.087753 0.009514 -0.018408
v 0.038639 0.025843 -0.018408
v 0.071424 -0.006942 -0.018408
v 0.048242 0.002661 -0.018408
v 0.071424 0.002751 -0.018408
v 0.055095 0.009514 -0.018408
v 0.094374 0.025843 0.027175
v 0.087652 0.042071 0.027175
v 0.083090 0.037508 0.027175
v 0.071424 0.048792 0.027175
v 0.087922 0.025843 0.027175
v 0.071424 0.042340 0.027175
v 0.087652 0.009615 0.027175
v 0.055197 0.042071 0.027175
v 0.083090 0.014177 0.027175
v 0.059759 0.037508 0.027175
v 0.071424 0.002894 0.027175
v 0.048475 0.025843 0.027175
v 0.071424 0.009346 0.027175
v 0.054927 0.025843 0.027175
v 0.059759 0.014177 0.027175
v 0.055197 0.009615 0.027175
v 0.087652 0.042071 0.027175
v 0.071424 0.058627 0.018723
v 0.071424 0.048792 0.027175
v 0.055197 0.042071 0.027175
v 0.094607 0.049025 0.018723
v 0.048242 0.049025 0.018723
v 0.104209 0.025843 0.018723
v 0.048475 0.025843 0.027175
v 0.094374 0.025843 0.027175
v 0.038639 0.025843 0.018723
v 0.094607 0.002661 0.018723
v 0.048242 0.002661 0.018723
v 0.087652 0.009615 0.027175
v 0.055197 0.009615 0.027175
v 0.071424 0.002894 0.027175
v 0.071424 -0.006942 0.018723
v 0.048242 0.002661 -0.018408
v 0.071424 -0.006942 -0.018408
v 0.048242 0.002661 0.018723
v 0.071424 -0.006942 0.018723
v 0.038639 0.025843 0.018723
v 0.094607 0.002661 -0.018408
v 0.038639 0.025843 -0.018408
v 0.094607 0.002661 0.018723
v 0.048242 0.049025 0.018723
v 0.104209 0.025843 -0.018408
v 0.048242 0.049025 -0.018408
v 0.104209 0.025843 0.018723
v 0.071424 0.058627 0.018723
v 0.094607 0.049025 -0.018408
v 0.071424 0.058627 -0.018408
v 0.094607 0.049025 0.018723
v 0.071424 0.002751 -0.047619
v 0.071424 0.002751 -0.018408
v 0.055095 0.009514 -0.047619
v 0.055095 0.009514 -0.018408
v 0.087753 0.009514 -0.018408
v 0.048331 0.025843 -0.047619
v 0.087753 0.009514 -0.047619
v 0.048331 0.025843 -0.018408
v 0.094517 0.025843 -0.018408
v 0.055095 0.042172 -0.047619
v 0.094517 0.025843 -0.047619
v 0.055095 0.042172 -0.018408
v 0.087753 0.042172 -0.018408
v 0.071424 0.048935 -0.047619
v 0.087753 0.042172 -0.047619
v 0.071424 0.048935 -0.018408
vn 0.0005 0.0005 1.0000
vn -0.6708 -0.6709 0.3161
vn -0.6709 -0.6708 0.3161
vn -0.9488 0.0003 0.3160
vn -0.0000 -0.9487 0.3161
vn -0.9487 -0.0000 0.3161
vn -0.6709 0.6708 0.3161
vn 0.6708 -0.6709 0.3161
vn -0.6709 0.6709 0.3161
vn -0.0000 0.9487 0.3161
vn 0.9487 -0.0000 0.3161
vn 0.6708 0.6709 0.3161
vn 0.0005 0.0005 -1.0000
vn 0.4609 0.4609 0.7584
vn 0.0008 0.6519 0.7583
vn -0.0000 0.6518 0.7584
vn -0.4609 0.4609 0.7584
vn 0.4607 0.4607 0.7587
vn 0.6518 -0.0000 0.7584
vn -0.6517 -0.0000 0.7584
vn -0.6519 0.0004 0.7583
vn 0.4609 -0.4609 0.7584
vn -0.4609 -0.4609 0.7584
vn 0.4608 -0.4609 0.7584
vn -0.0000 -0.6517 0.7584
vn -0.7071 -0.7071 -0.0000
vn 0.0005 -1.0000 0.0005
vn -1.0000 0.0005 0.0005
vn 0.7071 -0.7071 -0.0000
vn -0.7071 0.7071 -0.0000
vn 1.0000 0.0005 0.0005
vn 0.0005 1.0000 0.0005
vn 0.7071 0.7071 -0.0000
vt 0.000000 0.000000
s 1
f 9/15/7 10/15/7 11/15/7
f 9/15/7 12/15/7 10/15/7
f 10/15/7 12/15/7 13/15/7
f 12/15/7 9/15/7 14/15/7
f 14/15/7 9/15/7 15/15/7
f 12/15/7 14/15/7 16/15/7
f 17/15/8 18/15/9 19/15/10
f 20/15/11 18/15/9 17/15/8
f 19/15/10 18/15/9 21/15/12
f 18/15/9 20/15/11 22/15/11
f 23/15/13 19/15/10 21/15/12
f 20/15/11 24/15/14 22/15/11
f 19/15/10 23/15/13 25/15/15
f 24/15/14 20/15/11 26/15/14
f 23/15/13 27/15/16 25/15/15
f 28/15/17 24/15/14 26/15/14
f 27/15/16 23/15/13 29/15/16
f 24/15/14 28/15/17 30/15/17
f 31/15/18 27/15/16 29/15/16
f 28/15/17 31/15/18 30/15/17
f 27/15/16 31/15/18 32/15/18
f 32/15/18 31/15/18 28/15/17
f 33/15/19 34/15/19 35/15/19
f 34/15/19 33/15/19 36/15/19
f 35/15/19 37/15/19 33/15/19
f 38/15/19 34/15/19 36/15/19
f 35/15/19 39/15/19 37/15/19
f 34/15/19 38/15/19 40/15/19
f 41/15/19 37/15/19 39/15/19
f 42/15/19 40/15/19 38/15/19
f 37/15/19 41/15/19 43/15/19
f 40/15/19 42/15/19 44/15/19
f 45/15/19 43/15/19 41/15/19
f 42/15/19 46/15/19 44/15/19
f 43/15/19 45/15/19 47/15/19
f 46/15/19 42/15/19 48/15/19
f 48/15/19 47/15/19 45/15/19
f 45/15/19 46/15/19 48/15/19
f 49/15/7 50/15/7 51/15/7
f 52/15/7 51/15/7 50/15/7
f 49/15/7 51/15/7 53/15/7
f 51/15/7 52/15/7 54/15/7
f 55/15/7 49/15/7 53/15/7
f 56/15/7 54/15/7 52/15/7
f 55/15/7 53/15/7 57/15/7
f 54/15/7 56/15/7 58/15/7
f 57/15/7 59/15/7 55/15/7
f 60/15/7 58/15/7 56/15/7
f 59/15/7 57/15/7 61/15/7
f 58/15/7 60/15/7 62/15/7
f 63/15/7 59/15/7 61/15/7
f 64/15/7 62/15/7 60/15/7
f 59/15/7 63/15/7 64/15/7
f 62/15/7 64/15/7 63/15/7
f 65/15/20 66/15/21 67/15/22
f 68/15/23 67/15/22 66/15/21
f 66/15/21 65/15/20 69/15/24
f 66/15/21 70/15/23 68/15/23
f 71/15/25 69/15/24 65/15/20
f 70/15/23 72/15/26 68/15/23
f 71/15/25 65/15/20 73/15/25
f 72/15/26 70/15/23 74/15/27
f 75/15/28 71/15/25 73/15/25
f 76/15/29 72/15/26 74/15/27
f 75/15/28 73/15/25 77/15/30
f 72/15/26 76/15/29 78/15/29
f 79/15/31 75/15/28 77/15/30
f 80/15/31 78/15/29 76/15/29
f 75/15/28 79/15/31 80/15/31
f 78/15/29 80/15/31 79/15/31
f 81/15/32 82/15/33 83/15/32
f 82/15/33 84/15/33 83/15/32
f 81/15/32 83/15/32 85/15/34
f 82/15/33 86/15/35 84/15/33
f 87/15/34 81/15/32 85/15/34
f 86/15/35 88/15/35 84/15/33
f 87/15/34 85/15/34 89/15/36
f 86/15/35 90/15/37 88/15/35
f 91/15/36 87/15/34 89/15/36
f 90/15/37 92/15/37 88/15/35
f 91/15/36 89/15/36 93/15/38
f 90/15/37 94/15/39 92/15/37
f 95/15/38 91/15/36 93/15/38
f 94/15/39 96/15/39 92/15/37
f 95/15/38 93/15/38 96/15/39
f 94/15/39 95/15/38 96/15/39
f 97/15/33 98/15/33 99/15/32
f 99/15/32 98/15/33 100/15/32
f 97/15/33 101/15/35 98/15/33
f 99/15/32 100/15/32 102/15/34
f 103/15/35 101/15/35 97/15/33
f 102/15/34 100/15/32 104/15/34
f 103/15/35 105/15/37 101/15/35
f 102/15/34 104/15/34 106/15/36
f 107/15/37 105/15/37 103/15/35
f 106/15/36 104/15/34 108/15/36
f 107/15/37 109/15/39 105/15/37
f 106/15/36 108/15/36 110/15/38
f 111/15/39 109/15/39 107/15/37
f 110/15/38 108/15/36 112/15/38
f 111/15/39 112/15/38 109/15/39
f 110/15/38 112/15/38 111/15/39
o Cube.001
v 6.076755 2.512339 0.003415
v 6.076755 2.519268 0.003415
v 6.076755 2.512339 -0.003468
v 6.076755 2.519268 -0.003468
v 6.085519 2.512339 0.003415
v 6.085519 2.519268 0.003415
v 6.085519 2.512339 -0.003468
v 6.085519 2.519268 -0.003468
vn -1.0000 -0.0000 -0.0000
vn -0.0000 -0.0000 -1.0000
vn 1.0000 -0.0000 -0.0000
vn -0.0000 -0.0000 1.0000
vn -0.0000 -1.0000 -0.0000
vn -0.0000 1.0000 -0.0000
vt 0.375000 0.000000
vt 0.625000 0.000000
vt 0.625000 0.250000
vt 0.375000 0.250000
vt 0.625000 0.500000
vt 0.375000 0.500000
vt 0.625000 0.750000
vt 0.375000 0.750000
vt 0.625000 1.000000
vt 0.375000 1.000000
vt 0.125000 0.500000
vt 0.125000 0.750000
vt 0.875000 0.500000
vt 0.875000 0.750000
s 1
f 113/16/40 114/17/40 116/18/40 115/19/40
f 115/19/41 116/18/41 120/20/41 119/21/41
f 119/21/42 120/20/42 118/22/42 117/23/42
f 117/23/43 118/22/43 114/24/43 113/25/43
f 115/26/44 119/21/44 117/23/44 113/27/44
f 120/20/45 116/28/45 114/29/45 118/22/45
