# Blender 5.1.2
# www.blender.org
mtllib akeymag.mtl
o Cube
v 6.232277 2.512339 0.003415
v 6.232277 2.519268 0.003415
v 6.232277 2.512339 -0.003468
v 6.232277 2.519268 -0.003468
v 6.241041 2.512339 0.003415
v 6.241041 2.519268 0.003415
v 6.241041 2.512339 -0.003468
v 6.241041 2.519268 -0.003468
vn -1.0000 -0.0000 -0.0000
vn -0.0000 -0.0000 -1.0000
vn 1.0000 -0.0000 -0.0000
vn -0.0000 -0.0000 1.0000
vn -0.0000 -1.0000 -0.0000
vn -0.0000 1.0000 -0.0000
vt 0.375000 0.000000
vt 0.625000 0.000000
vt 0.625000 0.250000
vt 0.375000 0.250000
vt 0.625000 0.500000
vt 0.375000 0.500000
vt 0.625000 0.750000
vt 0.375000 0.750000
vt 0.625000 1.000000
vt 0.375000 1.000000
vt 0.125000 0.500000
vt 0.125000 0.750000
vt 0.875000 0.500000
vt 0.875000 0.750000
s 1
f 1/1/1 2/2/1 4/3/1 3/4/1
f 3/4/2 4/3/2 8/5/2 7/6/2
f 7/6/3 8/5/3 6/7/3 5/8/3
f 5/8/4 6/7/4 2/9/4 1/10/4
f 3/11/5 7/6/5 5/8/5 1/12/5
f 8/5/6 4/13/6 2/14/6 6/7/6
o 117623717483653
v -0.095673 0.209139 -0.067178
v 0.160890 0.209139 0.066987
v 0.160890 0.209139 -0.067178
v -0.095673 0.209139 0.066987
v 0.160890 0.209139 -0.067178
v 0.149383 0.094547 0.066987
v 0.149383 0.094547 -0.067178
v 0.160890 0.209139 0.066987
v 0.122990 -0.000053 0.066987
v 0.122990 -0.000053 -0.067178
v 0.098460 -0.067933 0.066987
v 0.098460 -0.067933 -0.067178
v 0.010118 -0.199033 0.066987
v 0.010118 -0.199033 -0.067178
v -0.108242 -0.307983 0.066987
v -0.108242 -0.307983 -0.067178
v -0.105140 -0.356305 0.066987
v -0.105140 -0.356305 -0.067178
v -0.360835 -0.427515 -0.042947
v -0.360835 -0.427515 0.042754
v -0.403601 -0.384749 -0.042947
v -0.403601 -0.384749 0.042754
v -0.354756 -0.421210 -0.058704
v -0.403601 -0.384749 -0.042947
v -0.397297 -0.378669 -0.058704
v -0.360835 -0.427515 -0.042947
v -0.403601 -0.384749 0.042754
v -0.360835 -0.427515 0.042754
v -0.354756 -0.421210 0.058510
v -0.397297 -0.378669 0.058510
v -0.280176 -0.422890 -0.042936
v -0.354756 -0.421210 -0.058704
v -0.285519 -0.417292 -0.058696
v -0.360835 -0.427515 -0.042947
v -0.285519 -0.417292 0.058502
v -0.354756 -0.421210 0.058510
v -0.280176 -0.422890 0.042742
v -0.360835 -0.427515 0.042754
v -0.135305 -0.379280 0.066987
v -0.135305 -0.379280 -0.067178
v -0.105140 -0.356305 -0.067178
v -0.105140 -0.356305 0.066987
v -0.156640 -0.384244 -0.058704
v -0.129174 -0.356777 -0.058703
v -0.123571 -0.362123 -0.042948
v -0.151294 -0.389846 -0.042947
v -0.123571 -0.362123 0.042754
v -0.156640 -0.384244 0.058510
v -0.151294 -0.389846 0.042754
v -0.129174 -0.356777 0.058510
v -0.123571 -0.362123 -0.042948
v -0.123571 -0.362123 0.042754
v -0.151294 -0.389846 -0.042947
v -0.151294 -0.389846 0.042754
v -0.360835 -0.427515 -0.042947
v -0.280176 -0.422890 -0.042936
v -0.360835 -0.427515 0.042754
v -0.280176 -0.422890 0.042742
v -0.398977 -0.304089 -0.042936
v -0.397297 -0.378669 -0.058704
v -0.403601 -0.384749 -0.042947
v -0.393378 -0.309433 -0.058696
v -0.398977 -0.304089 0.042742
v -0.397297 -0.378669 0.058510
v -0.393378 -0.309433 0.058502
v -0.403601 -0.384749 0.042754
v -0.358366 -0.158341 -0.067178
v -0.328202 -0.135367 0.066987
v -0.328202 -0.135367 -0.067178
v -0.358366 -0.158341 0.066987
v -0.360330 -0.180554 -0.058703
v -0.338210 -0.147485 -0.042948
v -0.332862 -0.153088 -0.058703
v -0.365933 -0.175207 -0.042947
v -0.365933 -0.175207 0.042754
v -0.360330 -0.180554 0.058510
v -0.338210 -0.147485 0.042754
v -0.332862 -0.153088 0.058510
v -0.403601 -0.384749 -0.042947
v -0.398977 -0.304089 0.042742
v -0.398977 -0.304089 -0.042936
v -0.403601 -0.384749 0.042754
v -0.365933 -0.175207 0.042754
v -0.338210 -0.147485 -0.042948
v -0.365933 -0.175207 -0.042947
v -0.338210 -0.147485 0.042754
v -0.151294 -0.389846 -0.042947
v -0.225005 -0.388462 -0.058702
v -0.156640 -0.384244 -0.058704
v -0.231078 -0.394769 -0.042942
v -0.156640 -0.384244 0.058510
v -0.225005 -0.388462 0.058509
v -0.151294 -0.389846 0.042754
v -0.231078 -0.394769 0.042749
v -0.231078 -0.394769 -0.042942
v -0.151294 -0.389846 -0.042947
v -0.231078 -0.394769 0.042749
v -0.151294 -0.389846 0.042754
v -0.365933 -0.175207 -0.042947
v -0.364548 -0.248918 -0.058702
v -0.370856 -0.254992 -0.042942
v -0.360330 -0.180554 -0.058703
v -0.365933 -0.175207 0.042754
v -0.364548 -0.248918 0.058509
v -0.360330 -0.180554 0.058510
v -0.370856 -0.254992 0.042749
v -0.241526 -0.384165 -0.042953
v -0.246698 -0.378206 -0.058926
v -0.235717 -0.377465 -0.058925
v -0.246698 -0.378206 0.058732
v -0.241526 -0.384165 0.042759
v -0.235717 -0.377465 0.058731
v -0.370856 -0.254992 -0.042942
v -0.365933 -0.175207 0.042754
v -0.365933 -0.175207 -0.042947
v -0.370856 -0.254992 0.042749
v -0.354292 -0.270612 -0.058926
v -0.360251 -0.265441 -0.042953
v -0.353551 -0.259631 -0.058925
v -0.360251 -0.265441 0.042759
v -0.354292 -0.270612 0.058732
v -0.353551 -0.259631 0.058731
v -0.285519 -0.417292 -0.058696
v -0.246698 -0.378206 -0.058926
v -0.241526 -0.384165 -0.042953
v -0.280176 -0.422890 -0.042936
v -0.241526 -0.384165 0.042759
v -0.285519 -0.417292 0.058502
v -0.280176 -0.422890 0.042742
v -0.246698 -0.378206 0.058732
v -0.241526 -0.384165 -0.042953
v -0.241526 -0.384165 0.042759
v -0.280176 -0.422890 -0.042936
v -0.280176 -0.422890 0.042742
v -0.353551 -0.259631 -0.058925
v -0.360200 -0.265557 -0.042930
v -0.364548 -0.248918 -0.058702
v -0.370856 -0.254992 -0.042942
v -0.360200 -0.265557 0.042736
v -0.364548 -0.248918 0.058509
v -0.370856 -0.254992 0.042749
v -0.353551 -0.259631 0.058731
v -0.225005 -0.388462 -0.058702
v -0.241644 -0.384113 -0.042930
v -0.235717 -0.377465 -0.058925
v -0.231078 -0.394769 -0.042942
v -0.231078 -0.394769 0.042749
v -0.225005 -0.388462 0.058509
v -0.241644 -0.384113 0.042736
v -0.235717 -0.377465 0.058731
v -0.095673 0.209139 -0.067178
v -0.106314 0.125856 -0.067178
v -0.095673 0.209139 0.066987
v -0.106314 0.125856 0.066987
v -0.126766 0.057455 -0.067178
v -0.126766 0.057455 0.066987
v -0.143226 0.012513 -0.067178
v -0.143226 0.012513 0.066987
v -0.214841 -0.086711 -0.067178
v -0.214841 -0.086711 0.066987
v -0.287302 -0.144881 -0.067178
v -0.287302 -0.144881 0.066987
v -0.328202 -0.135367 -0.067178
v -0.328202 -0.135367 0.066987
v -0.393378 -0.309433 -0.058696
v -0.360251 -0.265441 -0.042953
v -0.354292 -0.270612 -0.058926
v -0.398977 -0.304089 -0.042936
v -0.360251 -0.265441 0.042759
v -0.398977 -0.304089 0.042742
v -0.393378 -0.309433 0.058502
v -0.354292 -0.270612 0.058732
v -0.188528 -0.350520 -0.042937
v -0.188730 -0.350521 0.042749
v -0.188730 -0.350521 -0.042942
v -0.188528 -0.350520 0.042743
v -0.360200 -0.265557 -0.042930
v -0.370856 -0.254992 0.042749
v -0.370856 -0.254992 -0.042942
v -0.360200 -0.265557 0.042736
v -0.231078 -0.394769 -0.042942
v -0.231078 -0.394769 0.042749
v -0.241644 -0.384113 -0.042930
v -0.241644 -0.384113 -0.042930
v -0.231078 -0.394769 0.042749
v -0.241644 -0.384113 0.042736
v -0.241644 -0.384113 0.042736
v -0.241526 -0.384165 0.042759
v -0.241526 -0.384165 -0.042953
v -0.398977 -0.304089 -0.042936
v -0.360251 -0.265441 0.042759
v -0.360251 -0.265441 -0.042953
v -0.398977 -0.304089 0.042742
v -0.326606 -0.212442 -0.042937
v -0.326607 -0.212644 0.042749
v -0.326606 -0.212442 0.042743
v -0.326607 -0.212644 -0.042942
v 0.149383 0.094547 0.066987
v -0.095673 0.209139 0.066987
v -0.106314 0.125856 0.066987
v 0.160890 0.209139 0.066987
v 0.122990 -0.000053 0.066987
v -0.126766 0.057455 0.066987
v 0.098460 -0.067933 0.066987
v -0.143226 0.012513 0.066987
v 0.010118 -0.199033 0.066987
v -0.214841 -0.086711 0.066987
v -0.108242 -0.307983 0.066987
v -0.287302 -0.144881 0.066987
v -0.105140 -0.356305 -0.067178
v -0.328202 -0.135367 -0.067178
v -0.287302 -0.144881 -0.067178
v -0.108242 -0.307983 -0.067178
v -0.287302 -0.144881 0.066987
v -0.105140 -0.356305 0.066987
v -0.108242 -0.307983 0.066987
v -0.328202 -0.135367 0.066987
v -0.135305 -0.379280 -0.067178
v -0.358366 -0.158341 -0.067178
v -0.328202 -0.135367 -0.067178
v -0.105140 -0.356305 -0.067178
v -0.328202 -0.135367 0.066987
v -0.135305 -0.379280 0.066987
v -0.105140 -0.356305 0.066987
v -0.358366 -0.158341 0.066987
v -0.126766 0.057455 -0.067178
v 0.122990 -0.000053 -0.067178
v 0.098460 -0.067933 -0.067178
v -0.106314 0.125856 -0.067178
v -0.143226 0.012513 -0.067178
v 0.149383 0.094547 -0.067178
v -0.095673 0.209139 -0.067178
v 0.160890 0.209139 -0.067178
v 0.010118 -0.199033 -0.067178
v -0.214841 -0.086711 -0.067178
v -0.108242 -0.307983 -0.067178
v -0.287302 -0.144881 -0.067178
v -0.324194 -0.389909 0.058723
v -0.285519 -0.417292 0.058502
v -0.312430 -0.389531 0.058740
v -0.354756 -0.421210 0.058510
v -0.285519 -0.417292 -0.058696
v -0.324194 -0.389909 -0.058917
v -0.312430 -0.389531 -0.058934
v -0.354756 -0.421210 -0.058704
v -0.305949 -0.180848 0.058735
v -0.332862 -0.153088 0.058510
v -0.360330 -0.180554 0.058510
v -0.332566 -0.207477 0.058730
v -0.360330 -0.180554 -0.058703
v -0.305949 -0.180848 -0.058928
v -0.332566 -0.207477 -0.058924
v -0.332862 -0.153088 -0.058703
v -0.156934 -0.329862 0.058734
v -0.156640 -0.384244 0.058510
v -0.129174 -0.356777 0.058510
v -0.183563 -0.356481 0.058730
v -0.156934 -0.329862 -0.058929
v -0.156640 -0.384244 -0.058704
v -0.183563 -0.356481 -0.058924
v -0.129174 -0.356777 -0.058703
v -0.354756 -0.421210 0.058510
v -0.365995 -0.348107 0.058723
v -0.397297 -0.378669 0.058510
v -0.324194 -0.389909 0.058723
v -0.354756 -0.421210 -0.058704
v -0.365995 -0.348107 -0.058917
v -0.324194 -0.389909 -0.058917
v -0.397297 -0.378669 -0.058704
v -0.194460 -0.357165 0.058730
v -0.156640 -0.384244 0.058510
v -0.183563 -0.356481 0.058730
v -0.225005 -0.388462 0.058509
v -0.333251 -0.218373 -0.058923
v -0.360330 -0.180554 -0.058703
v -0.332566 -0.207477 -0.058924
v -0.364548 -0.248918 -0.058702
v -0.360330 -0.180554 0.058510
v -0.333251 -0.218373 0.058730
v -0.332566 -0.207477 0.058730
v -0.364548 -0.248918 0.058509
v -0.156640 -0.384244 -0.058704
v -0.194460 -0.357165 -0.058923
v -0.183563 -0.356481 -0.058924
v -0.225005 -0.388462 -0.058702
v -0.365995 -0.348107 -0.058917
v -0.393378 -0.309433 -0.058696
v -0.365618 -0.336344 -0.058934
v -0.397297 -0.378669 -0.058704
v -0.393378 -0.309433 0.058502
v -0.365995 -0.348107 0.058723
v -0.365618 -0.336344 0.058740
v -0.397297 -0.378669 0.058510
v -0.354292 -0.270612 0.058732
v -0.365618 -0.336344 0.058740
v -0.326527 -0.297534 0.058504
v -0.393378 -0.309433 0.058502
v -0.354292 -0.270612 -0.058926
v -0.365618 -0.336344 -0.058934
v -0.393378 -0.309433 -0.058696
v -0.326527 -0.297534 -0.058698
v -0.273621 -0.350440 0.058504
v -0.312430 -0.389531 0.058740
v -0.246698 -0.378206 0.058732
v -0.285519 -0.417292 0.058502
v -0.312430 -0.389531 -0.058934
v -0.246698 -0.378206 -0.058926
v -0.285519 -0.417292 -0.058696
v -0.273621 -0.350440 -0.058698
v -0.353551 -0.259631 0.058731
v -0.333251 -0.218373 0.058730
v -0.364548 -0.248918 0.058509
v -0.322254 -0.229088 0.058509
v -0.353551 -0.259631 -0.058925
v -0.333251 -0.218373 -0.058923
v -0.322254 -0.229088 -0.058702
v -0.364548 -0.248918 -0.058702
v -0.235717 -0.377465 0.058731
v -0.194460 -0.357165 0.058730
v -0.205174 -0.346169 0.058509
v -0.225005 -0.388462 0.058509
v -0.194460 -0.357165 -0.058923
v -0.225005 -0.388462 -0.058702
v -0.235717 -0.377465 -0.058925
v -0.205174 -0.346169 -0.058702
v -0.322254 -0.229088 -0.058702
v -0.326527 -0.297534 -0.058698
v -0.353551 -0.259631 -0.058925
v -0.354292 -0.270612 -0.058926
v -0.326527 -0.297534 0.058504
v -0.353551 -0.259631 0.058731
v -0.354292 -0.270612 0.058732
v -0.322254 -0.229088 0.058509
v -0.235717 -0.377465 -0.058925
v -0.273621 -0.350440 -0.058698
v -0.205174 -0.346169 -0.058702
v -0.246698 -0.378206 -0.058926
v -0.235717 -0.377465 0.058731
v -0.205174 -0.346169 0.058509
v -0.273621 -0.350440 0.058504
v -0.246698 -0.378206 0.058732
v -0.333251 -0.218373 -0.058923
v -0.326606 -0.212442 -0.042937
v -0.322254 -0.229088 -0.058702
v -0.315948 -0.223013 -0.042942
v -0.326606 -0.212442 0.042743
v -0.322254 -0.229088 0.058509
v -0.315948 -0.223013 0.042748
v -0.333251 -0.218373 0.058730
v -0.205174 -0.346169 -0.058702
v -0.188528 -0.350520 -0.042937
v -0.194460 -0.357165 -0.058923
v -0.199100 -0.339861 -0.042942
v -0.199100 -0.339861 0.042748
v -0.205174 -0.346169 0.058509
v -0.188528 -0.350520 0.042743
v -0.194460 -0.357165 0.058730
v -0.358366 -0.158341 -0.067178
v -0.135305 -0.379280 -0.067178
v -0.135305 -0.379280 0.066987
v -0.358366 -0.158341 0.066987
v -0.326527 -0.297534 -0.058698
v -0.359624 -0.341464 -0.042938
v -0.365618 -0.336344 -0.058934
v -0.320926 -0.302876 -0.042940
v -0.359624 -0.341464 0.042745
v -0.320926 -0.302876 0.042746
v -0.326527 -0.297534 0.058504
v -0.365618 -0.336344 0.058740
v -0.273621 -0.350440 -0.058698
v -0.312430 -0.389531 -0.058934
v -0.317550 -0.383538 -0.042938
v -0.278962 -0.344839 -0.042940
v -0.317550 -0.383538 0.042745
v -0.273621 -0.350440 0.058504
v -0.278962 -0.344839 0.042746
v -0.312430 -0.389531 0.058740
v -0.326606 -0.212442 0.042743
v -0.315948 -0.223013 -0.042942
v -0.326606 -0.212442 -0.042937
v -0.315948 -0.223013 0.042748
v -0.199100 -0.339861 -0.042942
v -0.199100 -0.339861 0.042748
v -0.188528 -0.350520 -0.042937
v -0.188528 -0.350520 0.042743
v -0.320926 -0.302876 -0.042940
v -0.320926 -0.302876 0.042746
v -0.359624 -0.341464 -0.042938
v -0.359624 -0.341464 0.042745
v -0.317550 -0.383538 0.042745
v -0.278962 -0.344839 -0.042940
v -0.317550 -0.383538 -0.042938
v -0.278962 -0.344839 0.042746
v -0.315948 -0.223013 -0.042942
v -0.320926 -0.302876 -0.042940
v -0.322254 -0.229088 -0.058702
v -0.326527 -0.297534 -0.058698
v -0.322254 -0.229088 0.058509
v -0.320926 -0.302876 0.042746
v -0.315948 -0.223013 0.042748
v -0.326527 -0.297534 0.058504
v -0.278962 -0.344839 -0.042940
v -0.205174 -0.346169 -0.058702
v -0.273621 -0.350440 -0.058698
v -0.199100 -0.339861 -0.042942
v -0.278962 -0.344839 0.042746
v -0.205174 -0.346169 0.058509
v -0.199100 -0.339861 0.042748
v -0.273621 -0.350440 0.058504
v -0.326606 -0.212442 -0.042937
v -0.333251 -0.218373 -0.058923
v -0.332566 -0.207477 -0.058924
v -0.333251 -0.218373 0.058730
v -0.326606 -0.212442 0.042743
v -0.332566 -0.207477 0.058730
v -0.332566 -0.207477 -0.058924
v -0.305949 -0.180848 -0.058928
v -0.300822 -0.186830 -0.042940
v -0.326607 -0.212644 -0.042942
v -0.300822 -0.186830 0.042746
v -0.332566 -0.207477 0.058730
v -0.326607 -0.212644 0.042749
v -0.305949 -0.180848 0.058735
v -0.188528 -0.350520 0.042743
v -0.194460 -0.357165 0.058730
v -0.183563 -0.356481 0.058730
v -0.194460 -0.357165 -0.058923
v -0.188528 -0.350520 -0.042937
v -0.183563 -0.356481 -0.058924
v -0.320926 -0.302876 -0.042940
v -0.315948 -0.223013 0.042748
v -0.320926 -0.302876 0.042746
v -0.315948 -0.223013 -0.042942
v -0.183563 -0.356481 -0.058924
v -0.162917 -0.324737 -0.042940
v -0.156934 -0.329862 -0.058929
v -0.188730 -0.350521 -0.042942
v -0.188730 -0.350521 0.042749
v -0.183563 -0.356481 0.058730
v -0.162917 -0.324737 0.042746
v -0.156934 -0.329862 0.058734
v -0.278962 -0.344839 -0.042940
v -0.199100 -0.339861 0.042748
v -0.199100 -0.339861 -0.042942
v -0.278962 -0.344839 0.042746
v -0.359374 -0.342130 -0.042940
v -0.365995 -0.348107 -0.058917
v -0.365618 -0.336344 -0.058934
v -0.359624 -0.341464 -0.042938
v -0.359374 -0.342130 0.042746
v -0.365618 -0.336344 0.058740
v -0.365995 -0.348107 0.058723
v -0.359624 -0.341464 0.042745
v -0.300822 -0.186830 -0.042940
v -0.326607 -0.212644 0.042749
v -0.326607 -0.212644 -0.042942
v -0.300822 -0.186830 0.042746
v -0.312430 -0.389531 0.058740
v -0.318217 -0.383288 0.042746
v -0.324194 -0.389909 0.058723
v -0.317550 -0.383538 0.042745
v -0.365995 -0.348107 -0.058917
v -0.318217 -0.383288 -0.042940
v -0.324194 -0.389909 -0.058917
v -0.359374 -0.342130 -0.042940
v -0.318217 -0.383288 0.042746
v -0.359374 -0.342130 0.042746
v -0.365995 -0.348107 0.058723
v -0.324194 -0.389909 0.058723
v -0.312430 -0.389531 -0.058934
v -0.318217 -0.383288 -0.042940
v -0.317550 -0.383538 -0.042938
v -0.324194 -0.389909 -0.058917
v -0.360200 -0.265557 -0.042930
v -0.360251 -0.265441 0.042759
v -0.360200 -0.265557 0.042736
v -0.360251 -0.265441 -0.042953
v -0.188730 -0.350521 -0.042942
v -0.188730 -0.350521 0.042749
v -0.162917 -0.324737 -0.042940
v -0.162917 -0.324737 0.042746
v -0.359374 -0.342130 0.042746
v -0.359374 -0.342130 -0.042940
v -0.359624 -0.341464 -0.042938
v -0.359624 -0.341464 0.042745
v -0.359374 -0.342130 -0.042940
v -0.359374 -0.342130 0.042746
v -0.318217 -0.383288 -0.042940
v -0.318217 -0.383288 0.042746
v -0.318217 -0.383288 -0.042940
v -0.317550 -0.383538 0.042745
v -0.317550 -0.383538 -0.042938
v -0.318217 -0.383288 0.042746
vn -0.0005 1.0000 0.0005
vn 0.9950 -0.1001 0.0004
vn 0.9825 -0.1861 0.0005
vn 0.9825 -0.1860 0.0004
vn 0.9522 -0.3054 0.0005
vn 0.9523 -0.3052 0.0004
vn 0.8886 -0.4587 0.0005
vn 0.7520 -0.6591 0.0005
vn 0.8965 -0.4431 -0.0000
vn 0.8965 -0.4431 0.0005
vn 0.9979 0.0640 0.0003
vn -0.7071 -0.7071 0.0007
vn -0.7071 -0.7071 0.0005
vn -0.7071 -0.7071 0.0006
vn -0.6181 -0.6181 -0.4858
vn -0.6181 -0.6181 0.4858
vn 0.0532 -0.9348 -0.3512
vn 0.0533 -0.9347 -0.3513
vn 0.0533 -0.9347 -0.3514
vn 0.0533 -0.9348 0.3512
vn 0.0533 -0.9347 0.3513
vn 0.0532 -0.9348 0.3511
vn 0.0533 -0.9347 0.3515
vn 0.6060 -0.7955 0.0005
vn 0.6059 -0.7955 -0.0000
vn 0.6060 -0.7955 0.0006
vn 0.6345 -0.6345 -0.4413
vn 0.6346 -0.6346 -0.4410
vn 0.6346 -0.6347 -0.4410
vn 0.6346 -0.6346 0.4410
vn 0.7071 -0.7071 -0.0000
vn 0.7071 -0.7071 0.0005
vn 0.7071 -0.7071 0.0003
vn 0.0572 -0.9984 -0.0000
vn 0.0572 -0.9984 0.0005
vn -0.9348 0.0533 -0.3513
vn -0.9347 0.0533 -0.3513
vn -0.9347 0.0533 -0.3514
vn -0.9348 0.0533 -0.3512
vn -0.9348 0.0532 0.3511
vn -0.9347 0.0533 0.3513
vn -0.9348 0.0533 0.3512
vn -0.9347 0.0533 0.3514
vn -0.6059 0.7955 -0.0000
vn -0.6346 0.6346 -0.4411
vn -0.6346 0.6346 -0.4410
vn -0.6346 0.6346 0.4410
vn -0.6346 0.6346 0.4411
vn -0.9984 0.0572 0.0006
vn -0.9984 0.0572 0.0005
vn -0.9984 0.0572 0.0003
vn -0.7071 0.7071 0.0005
vn -0.7071 0.7071 -0.0000
vn -0.7071 0.7071 0.0006
vn 0.0576 -0.9343 -0.3517
vn 0.0572 -0.9342 -0.3521
vn 0.0571 -0.9342 -0.3521
vn 0.0571 -0.9342 -0.3522
vn 0.0571 -0.9342 0.3521
vn 0.0571 -0.9342 0.3522
vn 0.0620 -0.9981 0.0004
vn 0.0619 -0.9981 0.0003
vn -0.9342 0.0571 -0.3522
vn -0.9342 0.0573 -0.3521
vn -0.9342 0.0571 -0.3521
vn -0.9343 0.0576 0.3518
vn -0.9342 0.0572 0.3521
vn -0.9342 0.0571 0.3521
vn -0.9343 0.0573 0.3519
vn 0.2897 -0.8635 -0.4129
vn 0.2379 -0.8837 -0.4030
vn -0.1479 -0.8914 -0.4284
vn 0.2379 -0.8837 0.4030
vn 0.2897 -0.8635 0.4129
vn -0.1480 -0.8914 0.4283
vn -0.9981 0.0621 0.0007
vn -0.9981 0.0622 0.0007
vn -0.9981 0.0620 0.0005
vn -0.7687 0.4676 -0.4364
vn -0.8070 0.4052 -0.4296
vn -0.7658 -0.4296 -0.4784
vn -0.8070 0.4052 0.4297
vn -0.7687 0.4677 0.4363
vn -0.7658 -0.4296 0.4785
vn 0.6352 -0.6341 -0.4409
vn 0.2898 -0.8634 -0.4129
vn 0.6355 -0.6337 -0.4411
vn 0.2898 -0.8634 0.4129
vn 0.6354 -0.6338 0.4410
vn 0.6355 -0.6338 0.4410
vn 0.9568 0.2906 0.0005
vn 0.9568 0.2906 0.0003
vn 0.7076 -0.7066 0.0005
vn -0.7658 -0.4296 -0.4785
vn -0.7870 -0.3943 -0.4744
vn -0.6151 -0.6211 -0.4857
vn -0.6150 -0.6209 -0.4860
vn -0.7871 -0.3943 0.4744
vn -0.6151 -0.6211 0.4857
vn -0.6150 -0.6209 0.4860
vn -0.6210 -0.6150 -0.4860
vn -0.2134 -0.8708 -0.4430
vn -0.1480 -0.8914 -0.4284
vn -0.6209 -0.6151 -0.4858
vn -0.6210 -0.6150 0.4860
vn -0.6212 -0.6151 0.4857
vn -0.2134 -0.8708 0.4430
vn -0.1480 -0.8914 0.4284
vn -0.9920 0.1266 0.0003
vn -0.9780 0.2085 0.0005
vn -0.9920 0.1265 0.0004
vn -0.9488 0.3160 0.0005
vn -0.9488 0.3158 0.0005
vn -0.8792 0.4765 0.0005
vn -0.7149 0.6993 0.0005
vn -0.0924 0.9957 0.0005
vn -0.0923 0.9957 -0.0000
vn 0.2263 0.9741 0.0004
vn 0.2266 0.9740 -0.0000
vn -0.6335 0.6356 -0.4412
vn -0.8069 0.4053 -0.4297
vn -0.7686 0.4677 -0.4364
vn -0.6337 0.6355 -0.4411
vn -0.8069 0.4054 0.4296
vn -0.6335 0.6356 0.4412
vn -0.6340 0.6353 0.4410
vn -0.7686 0.4677 0.4364
vn 0.0045 -1.0000 0.0004
vn 0.0044 -1.0000 0.0005
vn 0.0043 -1.0000 0.0006
vn 0.3209 -0.9471 0.0004
vn -0.7042 -0.7100 0.0005
vn -0.7042 -0.7100 0.0004
vn 0.3209 -0.9471 0.0005
vn -0.7101 -0.7041 -0.0000
vn 0.0249 0.9997 0.0006
vn 0.0249 0.9997 0.0004
vn -0.7100 -0.7042 0.0005
vn 0.0249 0.9997 0.0005
vn 0.0250 0.9997 0.0005
vn 0.0251 0.9997 0.0005
vn 0.9569 0.2905 0.0005
vn 0.9569 0.2906 0.0003
vn -0.7066 0.7076 0.0004
vn -0.0620 0.9981 0.0005
vn -0.0620 0.9981 0.0004
vn -0.7065 0.7077 0.0003
vn -1.0000 0.0046 0.0005
vn -1.0000 0.0045 0.0003
vn -1.0000 0.0045 0.0004
vn -1.0000 0.0045 0.0005
vn -0.0005 -0.0005 1.0000
vn -0.0005 -0.0005 -1.0000
vn 0.0004 -0.0076 1.0000
vn 0.0003 -0.0075 1.0000
vn 0.0005 -0.0073 1.0000
vn 0.0002 -0.0078 -1.0000
vn 0.0004 -0.0076 -1.0000
vn 0.0005 -0.0073 -1.0000
vn -0.0041 0.0040 1.0000
vn -0.0045 0.0045 1.0000
vn -0.0043 0.0043 1.0000
vn -0.0044 0.0043 1.0000
vn -0.0043 0.0043 -1.0000
vn -0.0041 0.0040 -1.0000
vn -0.0041 0.0041 -1.0000
vn 0.0043 -0.0043 1.0000
vn 0.0041 -0.0041 1.0000
vn 0.0044 -0.0044 1.0000
vn 0.0044 -0.0044 -1.0000
vn 0.0043 -0.0043 -1.0000
vn 0.0042 -0.0041 -1.0000
vn -0.0034 -0.0034 1.0000
vn -0.0034 -0.0034 -1.0000
vn 0.0005 -0.0075 1.0000
vn 0.0004 -0.0075 1.0000
vn -0.0075 0.0004 -1.0000
vn -0.0076 0.0004 -1.0000
vn -0.0075 0.0005 1.0000
vn -0.0075 0.0004 1.0000
vn 0.0004 -0.0075 -1.0000
vn -0.0077 0.0003 -1.0000
vn -0.0075 0.0003 -1.0000
vn -0.0074 0.0005 -1.0000
vn -0.0073 0.0005 -1.0000
vn -0.0075 0.0003 1.0000
vn -0.0077 0.0003 1.0000
vn -0.0074 0.0005 1.0000
vn -0.0073 0.0005 1.0000
vn 0.0063 -0.0005 1.0000
vn -0.0005 0.0005 1.0000
vn 0.0005 -0.0005 1.0000
vn 0.0063 -0.0005 -1.0000
vn -0.0005 0.0005 -1.0000
vn 0.0005 0.0005 -1.0000
vn -0.0005 0.0054 1.0000
vn -0.0005 0.0034 1.0000
vn 0.0005 -0.0005 -1.0000
vn -0.0005 0.0034 -1.0000
vn -0.0005 0.0055 -1.0000
vn 0.0064 -0.0005 1.0000
vn 0.0064 -0.0005 -1.0000
vn -0.0005 0.0054 -1.0000
vn -0.0005 0.0035 -1.0000
vn -0.0005 0.0035 1.0000
vn 0.6149 0.6210 -0.4860
vn 0.6152 0.6209 -0.4858
vn 0.8434 0.2926 -0.4507
vn 0.7638 0.4374 -0.4746
vn 0.6152 0.6209 0.4857
vn 0.8433 0.2926 0.4507
vn 0.7638 0.4375 0.4745
vn 0.6149 0.6211 0.4860
vn 0.1900 0.8838 -0.4275
vn 0.6209 0.6150 -0.4861
vn 0.6210 0.6149 -0.4860
vn 0.1588 0.8937 -0.4197
vn 0.1588 0.8937 0.4197
vn 0.1900 0.8838 0.4275
vn 0.6209 0.6152 0.4858
vn 0.6207 0.6152 0.4861
vn -0.7037 -0.7105 0.0005
vn -0.7037 -0.7105 -0.0000
vn 0.8337 -0.3601 -0.4186
vn 0.6337 -0.6356 -0.4409
vn 0.7704 -0.4685 -0.4324
vn 0.6337 -0.6356 0.4409
vn 0.7704 -0.4685 0.4324
vn 0.8338 -0.3600 0.4186
vn 0.6336 -0.6355 0.4412
vn -0.2790 0.8711 -0.4041
vn -0.6356 0.6337 -0.4409
vn -0.6355 0.6336 -0.4413
vn -0.2340 0.8883 -0.3951
vn -0.6356 0.6337 0.4409
vn -0.2790 0.8711 0.4041
vn -0.2339 0.8883 0.3952
vn 0.7042 0.7100 0.0005
vn 0.9085 0.4179 0.0005
vn 0.7042 0.7100 0.0006
vn 0.1871 0.9823 0.0005
vn 0.1871 0.9823 0.0002
vn 0.7100 0.7042 -0.0000
vn 0.8870 -0.4618 0.0005
vn 0.7061 -0.7081 0.0005
vn -0.7081 0.7061 -0.0000
vn -0.2749 0.9615 0.0004
vn -0.2749 0.9615 0.0005
vn 0.7639 0.4374 -0.4745
vn 0.7704 -0.4685 -0.4323
vn 0.8434 0.2925 -0.4507
vn 0.8338 -0.3599 -0.4186
vn 0.8434 0.2925 0.4507
vn 0.7639 0.4374 0.4746
vn 0.8338 -0.3599 0.4186
vn -0.2339 0.8884 -0.3951
vn 0.1899 0.8838 -0.4275
vn -0.2789 0.8712 -0.4041
vn 0.1587 0.8937 -0.4197
vn -0.2339 0.8884 0.3951
vn 0.1587 0.8937 0.4197
vn -0.2789 0.8712 0.4040
vn 0.9290 -0.0601 -0.3651
vn 0.9290 -0.0601 0.3651
vn 0.6346 -0.6345 -0.4412
vn 0.6344 -0.6347 -0.4414
vn 0.6345 -0.6346 -0.4411
vn 0.6348 -0.6344 0.4412
vn 0.6346 -0.6345 0.4412
vn 0.6345 -0.6346 0.4411
vn 0.6344 -0.6346 0.4414
vn -0.0601 0.9290 0.3651
vn -0.0601 0.9290 -0.3651
vn -0.6342 0.6348 -0.4415
vn -0.6344 0.6347 -0.4411
vn -0.6346 0.6347 -0.4409
vn -0.6346 0.6346 -0.4412
vn -0.6343 0.6347 0.4414
vn -0.6345 0.6346 0.4412
vn -0.6344 0.6347 0.4412
vn -0.6346 0.6344 0.4413
vn 0.9303 -0.0101 -0.3667
vn 0.9303 -0.0103 -0.3667
vn 0.9303 -0.0102 -0.3667
vn 0.9303 -0.0102 0.3667
vn 0.9303 -0.0103 0.3667
vn 0.7076 -0.7066 0.0003
vn -0.0102 0.9303 0.3667
vn -0.0101 0.9303 0.3667
vn 0.6176 0.6176 -0.4870
vn 0.6177 0.6177 -0.4867
vn 0.6177 0.6177 0.4867
vn 0.6176 0.6176 0.4870
vn -0.0102 0.9303 -0.3667
vn -0.0103 0.9303 -0.3667
vn 0.3210 -0.9471 0.0007
vn 0.3209 -0.9471 0.0006
vn -0.0619 0.9981 0.0005
vn -0.7067 0.7075 -0.0000
vn -0.7066 0.7077 0.0004
vn 0.9360 0.3521 0.0005
vn 0.9360 0.3520 0.0005
vn 0.9360 0.3519 0.0004
vn 0.7071 0.7071 0.0005
vn 0.7071 0.7071 0.0006
vn 0.7071 0.7071 -0.0000
vn 0.3512 0.9363 0.0004
vn 0.3510 0.9364 -0.0000
vn 0.3511 0.9363 0.0006
vn 0.3511 0.9363 0.0005
vt 0.375000 0.750000
vt 0.375000 0.250000
vt 0.375000 1.000000
vt 0.375000 0.500000
vt 0.375000 0.000000
vt 0.375000 0.534077
vt 0.375000 0.715923
vt 0.125000 0.534077
vt 0.125000 0.715923
vt 0.125000 0.500000
vt 0.125000 0.750000
vt 0.625000 0.500000
vt 0.590923 0.500000
vt 0.590923 0.750000
vt 0.625000 0.750000
vt 0.590923 0.250000
vt 0.625000 0.250000
vt 0.625000 1.000000
vt 0.590923 1.000000
vt 0.875000 0.534077
vt 0.875000 0.715923
vt 0.625000 0.534077
vt 0.625000 0.715923
vt 0.409077 0.750000
vt 0.409077 0.500000
vt 0.409077 1.000000
vt 0.409077 0.250000
s 1
f 9/15/7 10/16/7 11/17/7
f 10/16/7 9/15/7 12/18/7
f 13/19/8 14/16/9 15/19/10
f 14/16/9 13/19/8 16/16/8
f 17/16/11 15/19/10 14/16/9
f 15/19/10 17/16/11 18/19/12
f 19/16/13 18/19/12 17/16/11
f 18/19/12 19/16/13 20/19/13
f 21/16/14 20/19/13 19/16/13
f 20/19/13 21/16/14 22/19/14
f 23/16/15 22/19/14 21/16/14
f 22/19/14 23/16/15 24/19/16
f 24/19/16 23/16/15 25/16/17
f 25/16/17 26/19/17 24/19/16
f 27/20/18 28/21/19 29/22/20
f 29/22/20 28/21/19 30/23/19
f 31/18/21 32/22/21 33/24/21
f 32/22/21 31/18/21 34/20/21
f 35/23/22 36/21/22 37/15/22
f 35/23/22 37/15/22 38/25/22
f 39/26/23 40/18/24 41/27/24
f 40/18/24 39/26/23 42/20/25
f 43/28/26 44/15/27 45/29/28
f 46/21/29 45/29/28 44/15/27
f 47/16/30 48/19/31 49/19/32
f 49/19/32 50/16/31 47/16/30
f 51/27/33 52/30/34 53/31/34
f 53/31/34 54/26/35 51/27/33
f 55/32/36 56/28/36 57/29/36
f 56/28/36 55/32/36 58/33/36
f 59/34/37 60/35/37 61/36/38
f 61/36/38 60/35/37 62/37/39
f 63/20/40 64/36/41 65/21/40
f 64/36/41 66/37/40 65/21/40
f 67/20/42 68/24/43 69/22/44
f 68/24/43 67/20/42 70/18/45
f 71/21/46 72/25/47 73/15/48
f 72/25/47 71/21/46 74/23/49
f 75/15/50 76/18/50 77/15/50
f 76/18/50 75/15/50 78/18/50
f 79/18/51 80/22/51 81/24/51
f 80/22/51 79/18/51 82/20/52
f 83/21/53 84/15/54 85/23/54
f 85/23/54 84/15/54 86/25/54
f 87/22/55 88/21/56 89/20/56
f 88/21/56 87/22/55 90/23/57
f 91/21/58 92/22/59 93/20/59
f 92/22/59 91/21/58 94/23/60
f 95/26/61 96/18/62 97/27/63
f 96/18/62 95/26/61 98/20/64
f 99/28/65 100/15/66 101/29/66
f 102/21/66 101/29/66 100/15/66
f 103/20/67 104/36/67 105/21/67
f 104/36/67 106/37/68 105/21/67
f 107/20/69 108/24/70 109/22/69
f 108/24/70 107/20/69 110/18/71
f 111/21/72 112/25/73 113/15/74
f 112/25/73 111/21/72 114/23/75
f 115/31/76 116/30/77 117/24/78
f 118/33/79 119/32/80 120/25/81
f 121/22/82 122/21/83 123/20/84
f 122/21/83 121/22/82 124/23/83
f 125/24/85 126/22/86 127/18/87
f 128/23/88 129/25/89 130/15/90
f 131/27/91 132/30/77 133/31/92
f 133/31/92 134/26/93 131/27/91
f 135/32/94 136/28/95 137/29/96
f 136/28/95 135/32/94 138/33/79
f 139/34/97 140/35/98 141/36/99
f 141/36/99 140/35/98 142/37/99
f 143/18/100 144/20/101 145/24/102
f 144/20/101 146/22/103 145/24/102
f 147/21/104 148/25/105 149/23/106
f 148/25/105 147/21/104 150/15/90
f 151/18/107 152/22/108 153/24/109
f 152/22/108 151/18/107 154/20/110
f 155/21/111 156/15/112 157/23/113
f 157/23/113 156/15/112 158/25/114
f 159/15/115 160/15/116 161/18/117
f 160/15/116 162/18/116 161/18/117
f 162/18/116 160/15/116 163/15/118
f 163/15/118 164/18/119 162/18/116
f 164/18/119 163/15/118 165/15/120
f 165/15/120 166/18/120 164/18/119
f 165/15/120 167/15/121 166/18/120
f 167/15/121 168/18/121 166/18/120
f 168/18/121 167/15/121 169/15/122
f 169/15/122 170/18/123 168/18/121
f 171/15/124 170/18/123 169/15/122
f 170/18/123 171/15/124 172/18/125
f 173/18/126 174/22/127 175/24/128
f 174/22/127 173/18/126 176/20/129
f 177/23/130 178/21/131 179/15/132
f 177/23/130 179/15/132 180/25/133
f 181/36/134 182/21/135 183/20/136
f 182/21/135 181/36/134 184/37/135
f 185/20/137 186/23/138 187/22/139
f 186/23/138 185/20/137 188/21/140
f 189/20/141 190/21/141 191/22/142
f 192/22/143 193/21/144 194/23/145
f 192/22/146 195/23/147 196/35/148
f 196/35/148 197/34/149 192/22/146
f 198/20/150 199/23/151 200/22/152
f 199/23/151 198/20/150 201/21/153
f 202/34/154 203/37/155 204/35/156
f 203/37/155 202/34/154 205/36/157
f 206/16/158 207/18/158 208/18/158
f 207/18/158 206/16/158 209/16/158
f 208/18/158 210/16/158 206/16/158
f 210/16/158 208/18/158 211/18/158
f 211/18/158 212/16/158 210/16/158
f 212/16/158 211/18/158 213/18/158
f 213/18/158 214/16/158 212/16/158
f 214/16/158 213/18/158 215/18/158
f 215/18/158 216/16/158 214/16/158
f 216/16/158 215/18/158 217/18/158
f 218/17/159 219/15/159 220/15/159
f 218/17/159 220/15/159 221/17/159
f 222/18/158 223/16/158 224/16/158
f 223/16/158 222/18/158 225/18/158
f 226/17/159 227/15/159 228/15/159
f 226/17/159 228/15/159 229/17/159
f 230/18/158 231/16/158 232/16/158
f 231/16/158 230/18/158 233/18/158
f 234/15/159 235/17/159 236/17/159
f 235/17/159 234/15/159 237/15/159
f 236/17/159 238/15/159 234/15/159
f 237/15/159 239/17/159 235/17/159
f 240/15/159 239/17/159 237/15/159
f 240/15/159 241/17/159 239/17/159
f 238/15/159 236/17/159 242/17/159
f 242/17/159 243/15/159 238/15/159
f 242/17/159 244/17/159 243/15/159
f 244/17/159 245/15/159 243/15/159
f 246/28/160 247/28/161 248/38/162
f 249/38/162 247/28/161 246/28/160
f 250/27/163 251/27/164 252/39/165
f 251/27/164 250/27/163 253/39/165
f 254/33/166 255/40/167 256/38/168
f 256/38/168 257/28/169 254/33/166
f 258/39/170 259/30/170 260/27/171
f 259/30/170 258/39/170 261/41/172
f 262/40/173 263/28/173 264/33/174
f 263/28/173 262/40/173 265/38/175
f 266/41/176 267/27/177 268/39/176
f 267/27/177 266/41/176 269/30/178
f 270/38/179 271/33/179 272/40/179
f 271/33/179 270/38/179 273/28/179
f 274/39/180 275/30/180 276/27/180
f 275/30/180 274/39/180 277/41/180
f 278/28/181 279/28/181 280/38/181
f 281/38/182 279/28/181 278/28/181
f 282/30/183 283/39/183 284/27/184
f 285/41/183 283/39/183 282/30/183
f 286/38/185 287/33/185 288/28/185
f 287/33/185 286/38/185 289/40/186
f 290/27/187 291/27/187 292/39/164
f 291/27/187 290/27/187 293/39/187
f 294/30/188 295/39/189 296/27/190
f 297/41/191 295/39/189 294/30/188
f 298/38/192 299/33/193 300/28/194
f 299/33/193 298/38/192 301/40/195
f 302/40/196 303/28/197 304/33/198
f 303/28/197 302/40/196 305/38/197
f 306/41/199 307/27/200 308/39/200
f 307/27/200 306/41/199 309/30/201
f 310/40/202 311/38/198 312/33/203
f 311/38/198 313/28/198 312/33/203
f 314/39/204 315/30/205 316/27/204
f 315/30/205 314/39/204 317/41/206
f 318/38/207 319/33/158 320/40/158
f 319/33/158 318/38/207 321/28/198
f 322/39/208 323/30/159 324/27/204
f 323/30/159 322/39/208 325/41/159
f 326/40/203 327/28/158 328/33/202
f 327/28/158 326/40/203 329/38/158
f 330/27/159 331/39/159 332/41/205
f 332/41/205 333/30/209 330/27/159
f 334/27/204 335/30/201 336/39/199
f 336/39/199 335/30/201 337/41/208
f 338/33/198 339/38/207 340/40/207
f 339/38/207 338/33/198 341/28/198
f 342/41/210 343/41/209 344/30/209
f 343/41/209 342/41/210 345/30/205
f 346/40/211 347/33/202 348/40/202
f 346/40/211 348/40/202 349/33/211
f 350/30/212 351/31/213 352/27/214
f 351/31/213 353/26/215 352/27/214
f 354/32/216 355/28/217 356/29/218
f 355/28/217 354/32/216 357/33/219
f 358/30/220 359/26/221 360/27/222
f 359/26/221 358/30/220 361/31/223
f 362/32/224 363/33/225 364/29/226
f 364/29/226 363/33/225 365/28/227
f 366/15/228 367/25/229 368/24/228
f 366/15/228 368/24/228 369/18/229
f 370/30/230 371/26/231 372/27/231
f 371/26/231 370/30/230 373/31/232
f 374/29/233 375/32/234 376/33/235
f 374/29/233 376/33/235 377/28/236
f 378/24/237 379/18/238 380/20/239
f 380/20/239 381/22/240 378/24/237
f 382/21/241 383/25/242 384/23/243
f 383/25/242 382/21/241 385/15/241
f 386/35/244 387/36/245 388/34/246
f 387/36/245 386/35/244 389/37/245
f 390/34/247 391/35/248 392/36/249
f 392/36/249 391/35/248 393/37/249
f 394/34/250 395/35/250 396/36/251
f 396/36/251 395/35/250 397/37/251
f 398/21/252 399/22/253 400/20/252
f 399/22/253 398/21/252 401/23/254
f 402/26/255 403/31/256 404/27/257
f 404/27/257 403/31/256 405/30/258
f 406/28/259 407/32/234 408/29/260
f 407/32/234 406/28/259 409/33/261
f 410/22/262 411/30/263 412/24/264
f 411/30/263 410/22/262 413/31/265
f 414/23/266 415/33/225 416/32/267
f 415/33/225 414/23/266 417/25/268
f 418/31/269 419/30/269 420/27/269
f 421/33/270 422/32/270 423/28/270
f 424/27/271 425/30/272 426/31/273
f 426/31/273 427/26/273 424/27/271
f 428/32/274 429/28/275 430/29/276
f 429/28/275 428/32/274 431/33/277
f 432/29/278 433/28/278 434/15/278
f 435/27/279 436/26/279 437/18/279
f 438/34/250 439/37/245 440/35/250
f 439/37/245 438/34/250 441/36/245
f 442/18/280 443/22/281 444/24/282
f 443/22/281 442/18/280 445/20/283
f 446/21/284 447/15/285 448/23/286
f 448/23/286 447/15/285 449/25/287
f 450/22/254 451/35/247 452/34/247
f 451/35/247 450/22/254 453/23/254
f 454/31/288 455/30/289 456/27/290
f 456/27/290 457/26/290 454/31/288
f 458/32/291 459/28/291 460/33/292
f 459/28/291 458/32/291 461/29/291
f 462/34/293 463/37/99 464/36/293
f 463/37/99 462/34/293 465/35/99
f 466/15/294 467/29/295 468/28/294
f 467/29/295 466/15/294 469/21/294
f 470/30/296 471/26/296 472/27/296
f 471/26/296 470/30/296 473/31/297
f 474/29/298 475/32/299 476/33/299
f 474/29/298 476/33/299 477/28/299
f 478/18/300 479/26/300 480/20/300
f 479/26/300 478/18/300 481/27/301
f 482/20/302 483/23/151 484/21/303
f 483/23/151 482/20/302 485/22/304
f 486/20/305 487/21/305 488/22/305
f 488/22/305 487/21/305 489/23/306
f 490/35/307 491/34/308 492/36/309
f 492/36/309 493/37/309 490/35/307
f 494/34/310 495/35/311 496/36/311
f 496/36/311 495/35/311 497/37/312
f 498/36/313 499/21/314 500/20/315
f 499/21/314 498/36/313 501/37/316
o 122951013021207
v -0.215288 -0.163469 -0.069250
v -0.215288 -0.163469 0.069059
v -0.232177 -0.146250 -0.069250
v -0.232177 -0.146250 0.069059
v -0.169553 -0.201949 -0.069250
v -0.169553 -0.201949 0.069059
v -0.186442 -0.184729 -0.069250
v -0.186442 -0.184729 0.069059
v -0.110569 -0.248573 -0.069250
v -0.110569 -0.248573 0.069059
v -0.127458 -0.231353 -0.069250
v -0.127458 -0.231353 0.069059
v 0.011021 0.195645 -0.069250
v 0.011021 0.195645 0.069059
v 0.035140 0.195645 -0.069250
v 0.035140 0.195645 0.069059
v 0.091378 0.195053 -0.069250
v 0.091378 0.195053 0.069059
v 0.115497 0.195053 -0.069250
v 0.115497 0.195053 0.069059
v -0.061083 0.195053 -0.069250
v -0.061083 0.195053 0.069059
v -0.036966 0.195053 -0.069250
v -0.036966 0.195053 0.069059
v 0.115497 0.195053 -0.069250
v 0.115497 0.195053 0.069059
v 0.109304 0.106855 -0.069250
v 0.109304 0.106855 0.069059
v 0.080426 0.018912 -0.069250
v 0.080426 0.018912 0.069059
v 0.053673 -0.038512 -0.069250
v 0.053673 -0.038512 0.069059
v -0.023071 -0.155089 -0.069250
v -0.023071 -0.155089 0.069059
v -0.110569 -0.248573 -0.069250
v -0.110569 -0.248573 0.069059
v -0.066343 0.129521 -0.069250
v -0.066343 0.129521 0.069059
v -0.061083 0.195053 -0.069250
v -0.061083 0.195053 0.069059
v -0.084463 0.056899 0.069059
v -0.084463 0.056899 -0.069250
v -0.107249 0.015231 0.069059
v -0.107249 0.015231 -0.069250
v -0.167687 -0.082486 0.069059
v -0.167687 -0.082486 -0.069250
v -0.232177 -0.146250 0.069059
v -0.232177 -0.146250 -0.069250
v 0.011021 0.195645 0.069059
v 0.005763 0.120420 0.069059
v 0.029666 0.117198 0.069059
v 0.035140 0.195645 0.069059
v 0.004095 0.035976 0.069059
v -0.019498 0.040990 0.069059
v -0.017106 -0.015893 0.069059
v -0.039959 -0.008179 0.069059
v -0.088154 -0.124405 0.069059
v -0.109763 -0.113692 0.069059
v -0.169553 -0.201949 0.069059
v -0.186442 -0.184729 0.069059
v 0.011021 0.195645 -0.069250
v 0.029666 0.117198 -0.069250
v 0.005763 0.120420 -0.069250
v 0.035140 0.195645 -0.069250
v 0.004095 0.035976 -0.069250
v -0.019498 0.040990 -0.069250
v -0.017106 -0.015893 -0.069250
v -0.039959 -0.008179 -0.069250
v -0.088154 -0.124405 -0.069250
v -0.109763 -0.113692 -0.069250
v -0.169553 -0.201949 -0.069250
v -0.186442 -0.184729 -0.069250
v 0.091378 0.195053 0.069059
v 0.085322 0.109431 0.069059
v 0.109304 0.106855 0.069059
v 0.115497 0.195053 0.069059
v 0.080426 0.018912 0.069059
v 0.056834 0.023929 0.069059
v 0.053673 -0.038512 0.069059
v 0.030897 -0.030573 0.069059
v -0.023071 -0.155089 0.069059
v -0.044378 -0.143785 0.069059
v -0.110569 -0.248573 0.069059
v -0.127458 -0.231353 0.069059
v 0.109304 0.106855 -0.069250
v 0.091378 0.195053 -0.069250
v 0.115497 0.195053 -0.069250
v 0.085322 0.109431 -0.069250
v 0.080426 0.018912 -0.069250
v 0.056834 0.023929 -0.069250
v 0.053673 -0.038512 -0.069250
v 0.030897 -0.030573 -0.069250
v -0.023071 -0.155089 -0.069250
v -0.044378 -0.143785 -0.069250
v -0.110569 -0.248573 -0.069250
v -0.127458 -0.231353 -0.069250
v -0.061083 0.195053 0.069059
v -0.066343 0.129521 0.069059
v -0.042439 0.126299 0.069059
v -0.036966 0.195053 0.069059
v -0.060943 0.051558 0.069059
v -0.084463 0.056899 0.069059
v -0.084555 0.007063 0.069059
v -0.107249 0.015231 0.069059
v -0.146263 -0.093564 0.069059
v -0.167687 -0.082486 0.069059
v -0.215288 -0.163469 0.069059
v -0.232177 -0.146250 0.069059
v -0.061083 0.195053 -0.069250
v -0.042439 0.126299 -0.069250
v -0.066343 0.129521 -0.069250
v -0.036966 0.195053 -0.069250
v -0.060943 0.051558 -0.069250
v -0.084463 0.056899 -0.069250
v -0.084555 0.007063 -0.069250
v -0.107249 0.015231 -0.069250
v -0.146263 -0.093564 -0.069250
v -0.167687 -0.082486 -0.069250
v -0.215288 -0.163469 -0.069250
v -0.232177 -0.146250 -0.069250
v 0.005763 0.120420 -0.069250
v 0.005763 0.120420 0.069059
v 0.011021 0.195645 -0.069250
v 0.011021 0.195645 0.069059
v -0.019498 0.040990 0.069059
v -0.019498 0.040990 -0.069250
v -0.039959 -0.008179 0.069059
v -0.039959 -0.008179 -0.069250
v -0.109763 -0.113692 0.069059
v -0.109763 -0.113692 -0.069250
v -0.186442 -0.184729 0.069059
v -0.186442 -0.184729 -0.069250
v 0.035140 0.195645 -0.069250
v 0.035140 0.195645 0.069059
v 0.029666 0.117198 -0.069250
v 0.029666 0.117198 0.069059
v 0.004095 0.035976 -0.069250
v 0.004095 0.035976 0.069059
v -0.017106 -0.015893 -0.069250
v -0.017106 -0.015893 0.069059
v -0.088154 -0.124405 -0.069250
v -0.088154 -0.124405 0.069059
v -0.169553 -0.201949 -0.069250
v -0.169553 -0.201949 0.069059
v -0.036966 0.195053 -0.069250
v -0.036966 0.195053 0.069059
v -0.042439 0.126299 -0.069250
v -0.042439 0.126299 0.069059
v -0.060943 0.051558 -0.069250
v -0.060943 0.051558 0.069059
v -0.084555 0.007063 -0.069250
v -0.084555 0.007063 0.069059
v -0.146263 -0.093564 -0.069250
v -0.146263 -0.093564 0.069059
v -0.215288 -0.163469 -0.069250
v -0.215288 -0.163469 0.069059
v 0.091378 0.195053 -0.069250
v 0.085322 0.109431 -0.069250
v 0.085322 0.109431 0.069059
v 0.091378 0.195053 0.069059
v 0.056834 0.023929 0.069059
v 0.056834 0.023929 -0.069250
v 0.030897 -0.030573 0.069059
v 0.030897 -0.030573 -0.069250
v -0.044378 -0.143785 0.069059
v -0.044378 -0.143785 -0.069250
v -0.127458 -0.231353 0.069059
v -0.127458 -0.231353 -0.069250
vn -0.7139 -0.7002 0.0003
vn -0.7139 -0.7002 -0.0000
vn -0.7139 -0.7002 0.0005
vn -0.7139 -0.7002 0.0007
vn -0.7139 -0.7002 0.0006
vn -0.0000 1.0000 0.0006
vn -0.0000 1.0000 0.0005
vn 0.9975 -0.0704 0.0005
vn 0.9975 -0.0704 0.0006
vn 0.9807 -0.1954 0.0005
vn 0.9293 -0.3693 0.0005
vn 0.9293 -0.3694 0.0005
vn 0.8719 -0.4897 0.0005
vn 0.7827 -0.6224 0.0005
vn 0.7302 -0.6832 0.0007
vn 0.7302 -0.6833 0.0005
vn -0.9868 0.1620 0.0003
vn -0.9868 0.1618 0.0002
vn -0.9968 0.0800 -0.0000
vn -0.9293 0.3693 0.0005
vn -0.8642 0.5031 -0.0000
vn -0.7766 0.6300 0.0005
vn -0.7031 0.7111 -0.0000
vn -0.7032 0.7110 0.0005
vn -0.0000 -0.0000 1.0000
vn -0.0000 -0.0000 -1.0000
vn -0.9817 0.1905 0.0005
vn -0.9817 0.1904 0.0005
vn -0.9976 0.0694 0.0006
vn -0.9976 0.0694 0.0004
vn -0.9387 0.3448 0.0005
vn -0.8805 0.4740 0.0005
vn -0.7557 0.6549 0.0005
vn -0.7557 0.6550 0.0005
vn -0.6797 0.7335 0.0005
vn -0.6796 0.7336 -0.0000
vn 0.9976 -0.0695 0.0003
vn 0.9821 -0.1886 0.0005
vn 0.9406 -0.3396 -0.0000
vn 0.9405 -0.3398 0.0004
vn 0.8832 -0.4690 0.0005
vn 0.7624 -0.6471 0.0005
vn 0.6898 -0.7240 -0.0000
vn 0.9969 -0.0792 0.0006
vn 0.9969 -0.0792 0.0005
vn 0.9869 -0.1611 0.0004
vn 0.9869 -0.1613 0.0005
vn 0.9323 -0.3616 0.0005
vn 0.8683 -0.4960 -0.0000
vn 0.8683 -0.4961 0.0005
vn 0.7818 -0.6235 0.0005
vn 0.7116 -0.7026 -0.0000
vn 0.7115 -0.7027 0.0007
vn -0.9975 0.0704 0.0003
vn -0.9803 0.1974 0.0005
vn -0.9270 0.3751 0.0005
vn -0.8687 0.4953 0.0005
vn -0.7788 0.6273 0.0005
vn -0.7255 0.6883 0.0007
vn -0.7255 0.6883 -0.0000
vt 0.000000 0.000000
s 1
f 502/42/317 503/42/318 504/42/317
f 504/42/317 503/42/318 505/42/319
f 506/42/319 507/42/317 508/42/320
f 508/42/320 507/42/317 509/42/321
f 510/42/319 511/42/319 512/42/320
f 512/42/320 511/42/319 513/42/320
f 514/42/322 515/42/323 516/42/323
f 516/42/323 515/42/323 517/42/322
f 518/42/322 519/42/323 520/42/323
f 520/42/323 519/42/323 521/42/322
f 522/42/323 523/42/323 524/42/323
f 524/42/323 523/42/323 525/42/323
f 526/42/324 527/42/325 528/42/326
f 528/42/326 527/42/325 529/42/326
f 528/42/326 529/42/326 530/42/327
f 530/42/327 529/42/326 531/42/328
f 530/42/327 531/42/328 532/42/329
f 532/42/329 531/42/328 533/42/329
f 532/42/329 533/42/329 534/42/330
f 534/42/330 533/42/329 535/42/330
f 535/42/330 536/42/331 534/42/330
f 536/42/331 535/42/330 537/42/332
f 538/42/333 539/42/334 540/42/335
f 540/42/335 539/42/334 541/42/335
f 538/42/333 542/42/336 539/42/334
f 543/42/336 542/42/336 538/42/333
f 543/42/336 544/42/337 542/42/336
f 545/42/337 544/42/337 543/42/336
f 545/42/337 546/42/338 544/42/337
f 545/42/337 547/42/338 546/42/338
f 547/42/338 548/42/339 546/42/338
f 549/42/340 548/42/339 547/42/338
f 550/42/341 551/42/341 552/42/341
f 552/42/341 553/42/341 550/42/341
f 554/42/341 552/42/341 551/42/341
f 551/42/341 555/42/341 554/42/341
f 556/42/341 554/42/341 555/42/341
f 555/42/341 557/42/341 556/42/341
f 557/42/341 558/42/341 556/42/341
f 557/42/341 559/42/341 558/42/341
f 559/42/341 560/42/341 558/42/341
f 560/42/341 559/42/341 561/42/341
f 562/42/342 563/42/342 564/42/342
f 563/42/342 562/42/342 565/42/342
f 566/42/342 564/42/342 563/42/342
f 564/42/342 566/42/342 567/42/342
f 568/42/342 567/42/342 566/42/342
f 567/42/342 568/42/342 569/42/342
f 570/42/342 569/42/342 568/42/342
f 569/42/342 570/42/342 571/42/342
f 572/42/342 571/42/342 570/42/342
f 571/42/342 572/42/342 573/42/342
f 574/42/341 575/42/341 576/42/341
f 576/42/341 577/42/341 574/42/341
f 578/42/341 576/42/341 575/42/341
f 575/42/341 579/42/341 578/42/341
f 580/42/341 578/42/341 579/42/341
f 579/42/341 581/42/341 580/42/341
f 581/42/341 582/42/341 580/42/341
f 581/42/341 583/42/341 582/42/341
f 583/42/341 584/42/341 582/42/341
f 584/42/341 583/42/341 585/42/341
f 586/42/342 587/42/342 588/42/342
f 587/42/342 586/42/342 589/42/342
f 590/42/342 589/42/342 586/42/342
f 589/42/342 590/42/342 591/42/342
f 592/42/342 591/42/342 590/42/342
f 591/42/342 592/42/342 593/42/342
f 594/42/342 593/42/342 592/42/342
f 593/42/342 594/42/342 595/42/342
f 596/42/342 595/42/342 594/42/342
f 595/42/342 596/42/342 597/42/342
f 598/42/341 599/42/341 600/42/341
f 600/42/341 601/42/341 598/42/341
f 602/42/341 600/42/341 599/42/341
f 599/42/341 603/42/341 602/42/341
f 604/42/341 602/42/341 603/42/341
f 603/42/341 605/42/341 604/42/341
f 605/42/341 606/42/341 604/42/341
f 605/42/341 607/42/341 606/42/341
f 607/42/341 608/42/341 606/42/341
f 608/42/341 607/42/341 609/42/341
f 610/42/342 611/42/342 612/42/342
f 611/42/342 610/42/342 613/42/342
f 614/42/342 612/42/342 611/42/342
f 612/42/342 614/42/342 615/42/342
f 616/42/342 615/42/342 614/42/342
f 615/42/342 616/42/342 617/42/342
f 618/42/342 617/42/342 616/42/342
f 617/42/342 618/42/342 619/42/342
f 620/42/342 619/42/342 618/42/342
f 619/42/342 620/42/342 621/42/342
f 622/42/343 623/42/344 624/42/345
f 624/42/345 623/42/344 625/42/346
f 622/42/343 626/42/347 623/42/344
f 627/42/347 626/42/347 622/42/343
f 627/42/347 628/42/348 626/42/347
f 629/42/348 628/42/348 627/42/347
f 629/42/348 630/42/349 628/42/348
f 629/42/348 631/42/350 630/42/349
f 631/42/350 632/42/351 630/42/349
f 633/42/352 632/42/351 631/42/350
f 634/42/353 635/42/353 636/42/354
f 636/42/354 635/42/353 637/42/354
f 636/42/354 637/42/354 638/42/355
f 638/42/355 637/42/354 639/42/356
f 639/42/356 640/42/357 638/42/355
f 640/42/357 639/42/356 641/42/357
f 640/42/357 641/42/357 642/42/358
f 642/42/358 641/42/357 643/42/358
f 642/42/358 643/42/358 644/42/359
f 644/42/359 643/42/358 645/42/359
f 646/42/360 647/42/361 648/42/362
f 648/42/362 647/42/361 649/42/363
f 648/42/362 649/42/363 650/42/364
f 650/42/364 649/42/363 651/42/364
f 650/42/364 651/42/364 652/42/365
f 652/42/365 651/42/364 653/42/366
f 652/42/365 653/42/366 654/42/367
f 654/42/367 653/42/366 655/42/367
f 654/42/367 655/42/367 656/42/368
f 656/42/368 655/42/367 657/42/369
f 658/42/370 659/42/371 660/42/371
f 658/42/370 660/42/371 661/42/370
f 659/42/371 662/42/372 660/42/371
f 659/42/371 663/42/372 662/42/372
f 663/42/372 664/42/373 662/42/372
f 665/42/373 664/42/373 663/42/372
f 665/42/373 666/42/374 664/42/373
f 665/42/373 667/42/374 666/42/374
f 667/42/374 668/42/375 666/42/374
f 667/42/374 669/42/376 668/42/375
