# Blender 5.2.0 LTS
# www.blender.org
mtllib body good.mtl
o bclaw_body
v 1.196389 0.171445 -0.157356
v 1.213139 -0.468228 0.154656
v 1.213139 -0.468228 -0.157356
v 1.196389 0.171445 0.154656
v 0.837048 0.142131 -0.140327
v 0.810170 0.021391 0.137688
v 0.810170 0.021391 -0.140327
v 0.837048 0.142131 0.137688
v 0.762880 -0.079979 -0.131355
v 0.762880 -0.079979 0.128655
v 0.714942 -0.161218 -0.131355
v 0.780675 0.000592 0.128655
v 0.780675 0.000592 -0.131355
v 0.714942 -0.161218 0.128655
v 0.335067 -0.171166 -0.133308
v 0.335067 -0.171166 0.130669
v 0.306617 -0.231868 -0.133308
v 0.306617 -0.231868 0.130669
v 0.273981 -0.132712 -0.122321
v 0.306358 -0.221983 0.119683
v 0.306358 -0.221983 -0.122321
v 0.273981 -0.132712 0.119683
v 0.308451 -0.301912 0.119683
v 0.308451 -0.301912 -0.122321
v 0.370844 -0.390275 0.119683
v 0.370844 -0.390275 -0.122321
v 0.403218 -0.479424 0.119683
v 0.403218 -0.479424 -0.122321
v 0.384254 -0.519973 0.119683
v 0.384254 -0.519973 -0.122321
v 0.415985 -0.589234 -0.122321
v 0.415985 -0.589234 0.119683
v 0.417554 -0.649150 -0.122321
v 0.417554 -0.649150 0.119683
v -0.711684 0.071536 -0.146308
v -0.709329 -0.018399 0.142693
v -0.711684 0.071536 0.142693
v -0.709329 -0.018399 -0.146308
v -0.103413 -0.232714 -0.133308
v -0.103413 -0.232713 0.130669
v -0.161883 -0.294202 -0.133308
v -0.161883 -0.294202 0.130669
v -0.160310 -0.354240 -0.133308
v -0.160310 -0.354240 0.130669
v -1.334346 0.165255 0.104668
v -1.332773 0.105217 0.104668
v -1.334346 0.165255 -0.108344
v -1.332773 0.105217 -0.108344
v -1.022821 0.113333 0.104668
v -1.024393 0.173371 0.104668
v -1.022821 0.113333 -0.108344
v -1.024393 0.173371 -0.108344
v -0.632940 0.123542 0.104668
v -0.634512 0.183580 0.104668
v -0.632940 0.123542 -0.108344
v -0.634512 0.183580 -0.108344
v -0.710374 0.021505 0.104668
v -0.710374 0.021505 -0.108344
v -0.711684 0.071536 -0.108344
v -0.711684 0.071536 0.104668
v 1.196389 0.171445 -0.157356
v 1.196389 0.171445 0.154656
v 0.986500 0.165949 -0.157356
v 0.986500 0.165949 0.154656
v 0.927245 0.134480 0.154656
v 0.927245 0.134480 -0.157356
v 0.837048 0.142131 -0.140327
v 0.837048 0.142131 0.137688
v 0.786754 0.150827 0.137688
v 0.786754 0.150827 -0.140327
v 0.735537 0.199430 0.137688
v 0.735537 0.199430 -0.140327
v 0.624804 0.226570 -0.140327
v 0.624804 0.226570 0.137688
v 0.504850 0.223429 -0.140327
v 0.504850 0.223429 0.137688
v 0.404262 0.240821 0.137688
v 0.404262 0.240821 -0.140327
v -1.492110 0.081140 0.142693
v -1.492110 0.081140 -0.146308
v -0.732483 0.101031 0.142693
v -0.682451 0.102342 0.142693
v 0.397135 0.130611 -0.146308
v 0.397135 0.130611 0.142693
v -1.444817 0.182388 0.104668
v 0.394518 0.230553 0.104668
v -1.444817 0.182388 -0.108344
v 0.394518 0.230553 -0.108344
v -0.029508 -0.000597 -0.146308
v -0.029508 -0.000597 0.142693
v -0.629278 -0.016302 -0.146308
v -0.709329 -0.018399 0.142693
v -0.679310 -0.017612 -0.146308
v -0.709329 -0.018399 -0.146308
v -0.638761 -0.036577 0.130669
v 0.400800 -0.009355 0.130669
v -0.638761 -0.036577 -0.133308
v 0.400800 -0.009355 -0.133308
v -1.112756 0.110978 -0.108344
v -1.112756 0.110978 0.104668
v -1.332773 0.105217 0.104668
v -1.332773 0.105217 -0.108344
v -0.792920 0.119353 -0.108344
v -0.792920 0.119353 0.104668
v -1.022821 0.113333 0.104668
v -1.022821 0.113333 -0.108344
v 0.096790 0.142651 -0.108344
v 0.096790 0.142651 0.104668
v -0.632940 0.123542 0.104668
v -0.632940 0.123542 -0.108344
v 1.196389 0.171445 0.154656
v 0.989320 -0.324135 0.154656
v 1.213139 -0.468228 0.154656
v 1.021170 -0.393272 0.154656
v 1.123204 -0.470583 0.154656
v 0.927448 -0.255663 0.154656
v 0.883355 -0.096729 0.154656
v 0.865439 -0.177304 0.154656
v 0.899060 0.063649 0.154656
v 0.851243 -0.017586 0.154656
v 0.986500 0.165949 0.154656
v 0.927245 0.134480 0.154656
v -0.732483 0.101031 0.142693
v -0.876572 -0.122910 0.142693
v -0.709329 -0.018399 0.142693
v -0.727507 -0.088967 0.142693
v -0.678524 -0.047631 0.142693
v -1.017325 -0.096556 0.142693
v -0.711684 0.071536 0.142693
v -0.029508 -0.000597 0.142693
v 0.401062 -0.019362 0.142693
v 0.397135 0.130611 0.142693
v -0.031863 0.089338 0.142693
v -0.682451 0.102342 0.142693
v -0.631633 0.073633 0.142693
v -0.681665 0.072323 0.142693
v -1.492110 0.081140 0.142693
v -1.156768 -0.120234 0.142693
v -1.297258 -0.103886 0.142693
v -1.488969 -0.038814 0.142693
v -1.487135 -0.108858 0.142693
v 0.786754 0.150827 0.137688
v 0.810170 0.021391 0.137688
v 0.837048 0.142131 0.137688
v 0.620293 0.016419 0.137688
v 0.735537 0.199430 0.137688
v 0.624804 0.226570 0.137688
v 0.504850 0.223429 0.137688
v 0.510346 0.013540 0.137688
v 0.410282 0.010920 0.137688
v 0.404262 0.240821 0.137688
v 0.400800 -0.009355 0.130669
v 0.335067 -0.171166 0.130669
v 0.404203 -0.139316 0.130669
v 0.016799 -0.239457 0.130669
v 0.306617 -0.231868 0.130669
v -0.023485 -0.230620 0.130669
v -0.103413 -0.232713 0.130669
v -0.638761 -0.036577 0.130669
v -0.635619 -0.156531 0.130669
v -0.594668 -0.195511 0.130669
v -0.481719 -0.302577 0.130669
v -0.602983 -0.255686 0.130669
v -0.581259 -0.325210 0.130669
v -0.330820 -0.338678 0.130669
v -0.270782 -0.337106 0.130669
v -0.161883 -0.294202 0.130669
v -0.160310 -0.354240 0.130669
v 0.762880 -0.079979 0.128655
v 0.624745 -0.153567 0.128655
v 0.714942 -0.161218 0.128655
v 0.620817 -0.003594 0.128655
v 0.780675 0.000592 0.128655
v 0.565231 -0.175152 0.128655
v 0.510870 -0.006473 0.128655
v 0.495570 -0.186989 0.128655
v 0.414996 -0.169073 0.128655
v 0.410807 -0.009093 0.128655
v 0.306358 -0.221983 0.119683
v -0.003996 -0.210084 0.119683
v -0.001117 -0.320031 0.119683
v 0.273981 -0.132712 0.119683
v 0.308451 -0.301912 0.119683
v 0.051672 -0.428672 0.119683
v 0.092745 -0.467649 0.119683
v 0.370844 -0.390275 0.119683
v 0.114851 -0.547054 0.119683
v 0.403218 -0.479424 0.119683
v 0.384254 -0.519973 0.119683
v 0.117206 -0.636989 0.119683
v 0.415985 -0.589234 0.119683
v 0.108248 -0.677276 0.119683
v 0.149583 -0.726260 0.119683
v 0.417554 -0.649150 0.119683
v -1.024393 0.173371 0.104668
v -1.112756 0.110978 0.104668
v -1.022821 0.113333 0.104668
v -0.710374 0.021505 0.104668
v -0.792920 0.119353 0.104668
v -1.440104 0.002396 0.104668
v -0.711684 0.071536 0.104668
v -1.332773 0.105217 0.104668
v -0.794492 0.179391 0.104668
v -1.444817 0.182388 0.104668
v -1.114328 0.171016 0.104668
v -1.334346 0.165255 0.104668
v -0.634512 0.183580 0.104668
v 0.394518 0.230553 0.104668
v -0.632940 0.123542 0.104668
v 0.095218 0.202689 0.104668
v -0.031863 0.089338 0.104668
v 0.096790 0.142651 0.104668
v 0.399231 0.050561 0.104668
v -0.030553 0.039307 0.104668
v 0.780675 0.000592 0.128655
v 0.620293 0.016419 0.137688
v 0.620817 -0.003594 0.128655
v 0.810170 0.021391 0.137688
v 0.510346 0.013540 0.137688
v 0.510870 -0.006473 0.128655
v 0.410282 0.010920 0.137688
v 0.410807 -0.009093 0.128655
v -1.444817 0.182388 -0.108344
v -1.440104 0.002396 -0.108344
v -1.444817 0.182388 0.104668
v -1.440104 0.002396 0.104668
v 1.021170 -0.393272 -0.157356
v 0.927245 0.134480 0.154656
v 1.021170 -0.393272 0.154656
v 0.927245 0.134480 -0.157356
v 0.989320 -0.324136 -0.157356
v 0.899060 0.063649 -0.157356
v 0.989320 -0.324135 0.154656
v 0.899060 0.063649 0.154656
v 0.927448 -0.255663 -0.157356
v 0.851243 -0.017586 -0.157356
v 0.927448 -0.255663 0.154656
v 0.851243 -0.017586 0.154656
v 0.865439 -0.177304 -0.157356
v 0.883355 -0.096729 -0.157356
v 0.865439 -0.177304 0.154656
v 0.883355 -0.096729 0.154656
v -0.638761 -0.036577 0.130669
v -0.638761 -0.036577 -0.133308
v -0.635619 -0.156531 -0.133308
v -0.635619 -0.156531 0.130669
v -0.581259 -0.325210 -0.133308
v -0.581259 -0.325210 0.130669
v -0.602983 -0.255686 -0.133308
v -0.602983 -0.255686 0.130669
v -0.594668 -0.195511 -0.133308
v -0.594668 -0.195511 0.130669
v -1.487135 -0.108858 -0.146308
v -1.487135 -0.108858 0.142693
v -1.488969 -0.038814 0.142693
v -1.488969 -0.038814 -0.146308
v -1.492110 0.081140 0.142693
v -1.492110 0.081140 -0.146308
v -0.031863 0.089338 0.142693
v -0.031863 0.089338 -0.146308
v -0.029508 -0.000597 -0.146308
v -0.029508 -0.000597 0.142693
v -1.114328 0.171016 0.104668
v -1.114328 0.171016 -0.108344
v -1.112756 0.110978 -0.108344
v -1.112756 0.110978 0.104668
v -0.792920 0.119353 -0.108344
v -0.792920 0.119353 0.104668
v -0.794492 0.179391 -0.108344
v -0.794492 0.179391 0.104668
v 0.096790 0.142651 -0.108344
v 0.096790 0.142651 0.104668
v 0.095218 0.202689 -0.108344
v 0.095218 0.202689 0.104668
v -0.003996 -0.210084 0.119683
v -0.003996 -0.210084 -0.122321
v -0.001117 -0.320031 -0.122321
v -0.001117 -0.320031 0.119683
v 0.051672 -0.428672 -0.122321
v 0.051672 -0.428672 0.119683
v 0.092745 -0.467649 -0.122321
v 0.092745 -0.467649 0.119683
v 0.114851 -0.547054 -0.122321
v 0.114851 -0.547054 0.119683
v 0.117206 -0.636989 -0.122321
v 0.117206 -0.636989 0.119683
v 0.108248 -0.677276 0.119683
v 0.108248 -0.677276 -0.122321
v 0.149583 -0.726260 0.119683
v 0.149583 -0.726260 -0.122321
v -0.031863 0.089338 -0.108344
v -0.031863 0.089338 0.104668
v -0.030553 0.039306 -0.108344
v -0.030553 0.039307 0.104668
v 1.213139 -0.468228 0.154656
v 1.213139 -0.468228 -0.157356
v 1.123204 -0.470583 0.154656
v 1.123204 -0.470583 -0.157356
v 1.021170 -0.393272 -0.157356
v 1.021170 -0.393272 0.154656
v 0.149583 -0.726260 -0.122321
v 0.417554 -0.649150 -0.122321
v 0.149583 -0.726260 0.119683
v 0.417554 -0.649150 0.119683
v -1.487135 -0.108858 -0.146308
v -1.297258 -0.103886 -0.146308
v -1.297258 -0.103886 0.142693
v -1.156768 -0.120234 0.142693
v -1.487135 -0.108858 0.142693
v -1.156768 -0.120234 -0.146308
v -1.017325 -0.096556 0.142693
v -1.017325 -0.096556 -0.146308
v -0.876572 -0.122910 0.142693
v -0.876572 -0.122910 -0.146308
v -0.727507 -0.088967 0.142693
v -0.727507 -0.088967 -0.146308
v -0.678524 -0.047631 0.142693
v -0.678524 -0.047631 -0.146308
v 0.401062 -0.019362 -0.146308
v 0.401062 -0.019362 0.142693
v -0.594668 -0.195511 -0.133308
v -0.594668 -0.195511 0.130669
v -0.635619 -0.156531 -0.133308
v -0.635619 -0.156531 0.130669
v 0.810170 0.021391 -0.140327
v 0.780675 0.000592 0.128655
v 0.780675 0.000592 -0.131355
v 0.810170 0.021391 0.137688
v 0.714942 -0.161218 -0.131355
v 0.714942 -0.161218 0.128655
v 0.624745 -0.153567 0.128655
v 0.624745 -0.153567 -0.131355
v 0.565231 -0.175152 0.128655
v 0.565231 -0.175152 -0.131355
v 0.495570 -0.186989 0.128655
v 0.495570 -0.186989 -0.131355
v 0.414996 -0.169073 -0.131355
v 0.414996 -0.169073 0.128655
v 0.335067 -0.171166 -0.133308
v 0.335067 -0.171166 0.130669
v 0.404203 -0.139316 0.130669
v 0.404203 -0.139316 -0.133308
v -0.160310 -0.354240 -0.133308
v -0.270782 -0.337106 0.130669
v -0.270782 -0.337106 -0.133308
v -0.160310 -0.354240 0.130669
v -0.330820 -0.338678 0.130669
v -0.330820 -0.338678 -0.133308
v -0.481719 -0.302577 0.130669
v -0.481719 -0.302577 -0.133308
v -0.581259 -0.325210 0.130669
v -0.581259 -0.325210 -0.133308
v -0.103413 -0.232713 0.130669
v -0.103413 -0.232714 -0.133308
v -0.023485 -0.230621 -0.133308
v -0.023485 -0.230620 0.130669
v 0.016799 -0.239457 -0.133308
v 0.016799 -0.239457 0.130669
v 0.306617 -0.231868 -0.133308
v 0.306617 -0.231868 0.130669
v -0.031863 0.089338 0.142693
v -0.031863 0.089338 -0.146308
v -0.631633 0.073633 0.142693
v -0.711684 0.071536 -0.146308
v -0.681665 0.072323 0.142693
v -0.711684 0.071536 0.142693
v -1.114328 0.171016 0.104668
v -1.114328 0.171016 -0.108344
v -1.334346 0.165255 0.104668
v -1.334346 0.165255 -0.108344
v -0.794492 0.179391 -0.108344
v -0.794492 0.179391 0.104668
v -1.024393 0.173371 0.104668
v -1.024393 0.173371 -0.108344
v 0.095218 0.202689 -0.108344
v 0.095218 0.202689 0.104668
v -0.634512 0.183580 0.104668
v -0.634512 0.183580 -0.108344
v 0.051672 -0.428672 -0.122321
v 0.051672 -0.428672 0.119683
v 0.092745 -0.467649 -0.122321
v 0.092745 -0.467649 0.119683
v -0.710374 0.021505 0.104668
v -1.440104 0.002396 0.104668
v -0.710374 0.021505 -0.108344
v -1.440104 0.002396 -0.108344
v -0.711684 0.071536 -0.108344
v -0.711684 0.071536 0.104668
v -0.031863 0.089338 -0.108344
v -0.031863 0.089338 0.104668
v -0.030553 0.039306 -0.108344
v -0.030553 0.039307 0.104668
v 0.399231 0.050561 -0.108344
v 0.399231 0.050561 0.104668
v 1.196389 0.171445 -0.157356
v 0.899060 0.063649 -0.157356
v 0.986500 0.165949 -0.157356
v 0.927245 0.134480 -0.157356
v 0.883355 -0.096729 -0.157356
v 0.851243 -0.017586 -0.157356
v 0.927448 -0.255663 -0.157356
v 0.865439 -0.177304 -0.157356
v 0.989320 -0.324136 -0.157356
v 1.213139 -0.468228 -0.157356
v 1.021170 -0.393272 -0.157356
v 1.123204 -0.470583 -0.157356
v 0.401062 -0.019362 -0.146308
v -0.678524 -0.047631 -0.146308
v -0.029508 -0.000597 -0.146308
v 0.397135 0.130611 -0.146308
v -0.629278 -0.016302 -0.146308
v -0.031863 0.089338 -0.146308
v -0.679310 -0.017612 -0.146308
v -0.727507 -0.088967 -0.146308
v -0.709329 -0.018399 -0.146308
v -0.876572 -0.122910 -0.146308
v -0.711684 0.071536 -0.146308
v -1.017325 -0.096556 -0.146308
v -1.492110 0.081140 -0.146308
v -1.156768 -0.120234 -0.146308
v -1.297258 -0.103886 -0.146308
v -1.488969 -0.038814 -0.146308
v -1.487135 -0.108858 -0.146308
v 0.410282 0.010920 -0.140327
v 0.404262 0.240821 -0.140327
v 0.504850 0.223429 -0.140327
v 0.510346 0.013540 -0.140327
v 0.620293 0.016419 -0.140327
v 0.624804 0.226570 -0.140327
v 0.735537 0.199430 -0.140327
v 0.786754 0.150827 -0.140327
v 0.810170 0.021391 -0.140327
v 0.837048 0.142131 -0.140327
v -0.103413 -0.232714 -0.133308
v -0.638761 -0.036577 -0.133308
v 0.400800 -0.009355 -0.133308
v -0.594668 -0.195511 -0.133308
v -0.635619 -0.156531 -0.133308
v -0.481719 -0.302577 -0.133308
v -0.602983 -0.255686 -0.133308
v -0.581259 -0.325210 -0.133308
v -0.330820 -0.338678 -0.133308
v -0.270782 -0.337106 -0.133308
v -0.161883 -0.294202 -0.133308
v -0.160310 -0.354240 -0.133308
v -0.023485 -0.230621 -0.133308
v 0.016799 -0.239457 -0.133308
v 0.335067 -0.171166 -0.133308
v 0.404203 -0.139316 -0.133308
v 0.306617 -0.231868 -0.133308
v 0.620817 -0.003594 -0.131355
v 0.565231 -0.175152 -0.131355
v 0.510870 -0.006473 -0.131355
v 0.495570 -0.186989 -0.131355
v 0.414996 -0.169073 -0.131355
v 0.410807 -0.009093 -0.131355
v 0.624745 -0.153567 -0.131355
v 0.762880 -0.079979 -0.131355
v 0.714942 -0.161218 -0.131355
v 0.780675 0.000592 -0.131355
v 0.306358 -0.221983 -0.122321
v -0.003996 -0.210084 -0.122321
v 0.273981 -0.132712 -0.122321
v -0.001117 -0.320031 -0.122321
v 0.308451 -0.301912 -0.122321
v 0.051672 -0.428672 -0.122321
v 0.092745 -0.467649 -0.122321
v 0.370844 -0.390275 -0.122321
v 0.114851 -0.547054 -0.122321
v 0.403218 -0.479424 -0.122321
v 0.384254 -0.519973 -0.122321
v 0.117206 -0.636989 -0.122321
v 0.415985 -0.589234 -0.122321
v 0.108248 -0.677276 -0.122321
v 0.149583 -0.726260 -0.122321
v 0.417554 -0.649150 -0.122321
v -0.710374 0.021505 -0.108344
v -0.792920 0.119353 -0.108344
v -0.711684 0.071536 -0.108344
v -0.632940 0.123542 -0.108344
v -0.031863 0.089338 -0.108344
v -1.022821 0.113333 -0.108344
v 0.096790 0.142651 -0.108344
v -0.030553 0.039306 -0.108344
v 0.399231 0.050561 -0.108344
v 0.394518 0.230553 -0.108344
v 0.095218 0.202689 -0.108344
v -0.634512 0.183580 -0.108344
v -0.794492 0.179391 -0.108344
v -1.444817 0.182388 -0.108344
v -1.024393 0.173371 -0.108344
v -1.114328 0.171016 -0.108344
v -1.334346 0.165255 -0.108344
v -1.332773 0.105217 -0.108344
v -1.112756 0.110978 -0.108344
v -1.440104 0.002396 -0.108344
v 0.780675 0.000592 -0.131355
v 0.620293 0.016419 -0.140327
v 0.810170 0.021391 -0.140327
v 0.620817 -0.003594 -0.131355
v 0.510870 -0.006473 -0.131355
v 0.510346 0.013540 -0.140327
v 0.410807 -0.009093 -0.131355
v 0.410282 0.010920 -0.140327
vn 0.1628 0.9867 -0.0000
vn 0.2142 -0.9768 -0.0000
vn 0.5383 0.8427 -0.0000
vn 0.9823 -0.1871 -0.0000
vn 0.9419 -0.3360 -0.0000
vn 0.0968 -0.9953 -0.0000
vn 0.9794 -0.2022 -0.0000
vn 0.9794 -0.2021 -0.0000
vn 0.5637 -0.8259 -0.0000
vn 0.5637 -0.8260 -0.0000
vn 0.8967 -0.4427 -0.0000
vn 0.8966 -0.4428 -0.0000
vn 0.9674 0.2532 -0.0000
vn 0.9884 0.1519 -0.0000
vn 0.9674 0.2531 -0.0000
vn 0.9190 0.3942 -0.0000
vn 0.8740 0.4859 -0.0000
vn 0.9996 -0.0289 -0.0000
vn 0.9979 0.0655 -0.0000
vn 0.9784 0.2067 -0.0000
vn 0.9990 -0.0445 -0.0000
vn 0.7624 -0.6471 -0.0000
vn 0.9131 -0.4077 -0.0000
vn 0.9993 -0.0367 -0.0000
vn 0.1627 0.9867 -0.0000
vn -0.1442 0.9895 -0.0000
vn -0.6096 0.7927 -0.0000
vn 0.5383 0.8428 -0.0000
vn 0.3947 0.9188 -0.0000
vn 0.3525 0.9358 -0.0000
vn 0.0687 0.9976 -0.0000
vn 0.0688 0.9976 -0.0000
vn 0.2189 0.9758 -0.0000
vn 0.2189 0.9757 -0.0000
vn -0.0262 0.9997 -0.0000
vn -0.2142 0.9768 -0.0000
vn -0.0262 0.9997 -0.0001
vn 0.1627 0.9867 -0.0001
vn -0.0000 -0.0000 1.0000
vn -0.0001 -0.0000 1.0000
vn 0.0001 -0.0000 1.0000
vn -0.0002 -0.0000 1.0000
vn 0.0002 -0.0000 1.0000
vn 0.0086 -0.3302 0.9439
vn 0.0087 -0.3303 0.9438
vn 0.0086 -0.3303 0.9438
vn -0.9997 -0.0262 -0.0000
vn -0.7539 -0.6570 -0.0000
vn -0.7539 -0.6570 -0.0001
vn -0.8393 -0.5436 -0.0000
vn -0.9188 0.3947 -0.0000
vn -0.9188 0.3946 -0.0000
vn -0.7538 -0.6570 -0.0000
vn -0.9942 0.1077 -0.0000
vn -0.9537 -0.3008 -0.0000
vn -0.9960 -0.0890 -0.0000
vn -0.9490 -0.3152 -0.0000
vn -0.9891 0.1475 -0.0000
vn -0.1795 -0.9838 -0.0000
vn -0.1628 -0.9867 -0.0000
vn -1.0000 0.0053 -0.0000
vn -0.9751 -0.2217 -0.0000
vn -0.7651 -0.6439 -0.0000
vn -0.7651 -0.6440 -0.0000
vn -0.8070 -0.5905 -0.0000
vn -0.9917 -0.1286 -0.0000
vn -0.9917 -0.1287 -0.0000
vn -0.9957 0.0922 -0.0000
vn -0.9694 -0.2457 -0.0000
vn -0.9693 -0.2457 -0.0000
vn -0.8134 -0.5817 -0.0000
vn -0.1232 -0.9924 -0.0000
vn -0.7538 -0.6571 -0.0000
vn 0.2623 -0.9650 -0.0000
vn -0.0448 -0.9990 -0.0000
vn 0.0261 -0.9997 -0.0000
vn 0.0262 -0.9997 -0.0000
vn 0.0026 -1.0000 -0.0000
vn 0.3644 -0.9313 -0.0000
vn 0.3643 -0.9313 -0.0000
vn 0.1673 -0.9859 -0.0000
vn -0.6511 -0.7590 -0.0000
vn 0.5727 -0.8198 -0.0000
vn 0.5727 -0.8197 -0.0000
vn 0.0967 -0.9953 -0.0000
vn 0.0968 -0.9953 -0.0001
vn 0.0577 -0.9983 -0.0000
vn 0.2936 -0.9559 -0.0000
vn 0.0340 -0.9994 -0.0000
vn 0.0341 -0.9994 -0.0000
vn -0.1796 -0.9837 -0.0000
vn 0.3713 -0.9285 -0.0000
vn -0.1155 -0.9933 -0.0000
vn -0.0367 -0.9993 -0.0000
vn -0.0766 -0.9971 -0.0000
vn 0.0025 -1.0000 -0.0000
vn 0.1915 -0.9815 -0.0000
vn 0.1914 -0.9815 -0.0000
vn -0.0053 -1.0000 -0.0000
vn -0.0844 -0.9964 -0.0000
vn -0.0524 -0.9986 -0.0000
vn 0.0497 -0.9988 -0.0000
vn 0.0262 -0.9997 0.0001
vn -0.1627 -0.9867 -0.0000
vn 0.2142 -0.9768 -0.0002
vn -0.7650 -0.6440 -0.0000
vn -0.8070 -0.5906 -0.0000
vn 0.0002 -0.0000 -1.0000
vn -0.0000 -0.0000 -1.0000
vn 0.0001 -0.0000 -1.0000
vn -0.0001 -0.0000 -1.0000
vn -0.0003 -0.0000 -1.0000
vn -0.0002 -0.0000 -1.0000
vn 0.0086 -0.3303 -0.9438
vn 0.0086 -0.3303 -0.9439
vn 0.0087 -0.3303 -0.9438
vt 20.156300 -4.613390
vt 19.843700 -5.249070
vt 20.156300 -5.249070
vt 19.843700 -4.613390
vt 20.138901 -4.632750
vt 19.861099 -4.747610
vt 20.138901 -4.747610
vt 19.861099 -4.632750
vt 20.130199 -4.854340
vt 19.869801 -4.854340
vt 20.130199 -4.935950
vt 19.869801 -4.772720
vt 20.130199 -4.772720
vt 19.869801 -4.935950
vt 20.132299 -4.927830
vt 19.867701 -4.927830
vt 20.132299 -4.989950
vt 19.867701 -4.989950
vt 20.121300 -4.891810
vt 19.878700 -4.978300
vt 20.121300 -4.978300
vt 19.878700 -4.891810
vt 19.878700 -5.064780
vt 20.121300 -5.064780
vt 19.878700 -5.151270
vt 20.121300 -5.151270
vt 19.878700 -5.237750
vt 20.121300 -5.237750
vt 19.878700 -5.281890
vt 20.121300 -5.281890
vt 20.121300 -5.354000
vt 19.878700 -5.354000
vt 20.121300 -5.413530
vt 19.878700 -5.413530
vt 20.144501 -4.664840
vt 19.856300 -4.664840
vt 20.144501 -4.751090
vt 19.856300 -4.751090
vt 20.132299 -4.983740
vt 19.867701 -4.983740
vt 20.132299 -5.046290
vt 19.867701 -5.046290
vt 20.132299 -5.101960
vt 19.867701 -5.101960
vt 20.106600 -4.555390
vt 19.894199 -4.555390
vt 20.106600 -4.609410
vt 19.894199 -4.609410
vt 20.106600 -4.664840
vt 19.894199 -4.714370
vt 20.106600 -4.714370
vt 19.894199 -4.664840
vt 18.656000 -5.156310
vt 18.865700 -5.156310
vt 18.656000 -4.843690
vt 18.865700 -4.843690
vt 18.927500 -4.843690
vt 18.927500 -5.156310
vt 19.014400 -5.138920
vt 19.064600 -4.861080
vt 19.014400 -4.861080
vt 19.064600 -5.138920
vt 19.114901 -4.861080
vt 19.114901 -5.138920
vt 19.221201 -5.138920
vt 19.221201 -4.861080
vt 19.342100 -5.138920
vt 19.342100 -4.861080
vt 19.442499 -4.861080
vt 19.442499 -5.138920
vt 20.586399 -4.856270
vt 21.344000 -5.144510
vt 21.344000 -4.856270
vt 20.530399 -4.856270
vt 19.457300 -5.144510
vt 19.457300 -4.856270
vt 21.290001 -4.894160
vt 19.457399 -4.894160
vt 21.290001 -5.106620
vt 19.457399 -5.106620
vt 20.480200 -5.144510
vt 19.887600 -4.856270
vt 19.887600 -5.144510
vt 20.561399 -4.856270
vt 20.536200 -5.144510
vt 20.561399 -5.144510
vt 20.496099 -4.867730
vt 19.457399 -4.867730
vt 20.496099 -5.132270
vt 19.457399 -5.132270
vt 20.959400 -5.106620
vt 21.187099 -4.894160
vt 20.959400 -4.894160
vt 21.187099 -5.106620
vt 20.643000 -5.106620
vt 20.870701 -4.894160
vt 20.643000 -4.894160
vt 20.870701 -5.106620
vt 19.749201 -5.106620
vt 20.486300 -4.894160
vt 19.749201 -4.894160
vt 20.486300 -5.106620
vt 21.344000 -4.613390
vt 21.131500 -5.102230
vt 21.344000 -5.249070
vt 21.157000 -5.175650
vt 21.253201 -5.249070
vt 21.066799 -5.028800
vt 21.025700 -4.875920
vt 21.009701 -4.955380
vt 21.047600 -4.717000
vt 20.999701 -4.796460
vt 21.134300 -4.613390
vt 21.072500 -4.637540
vt 19.413601 -4.636520
vt 19.271400 -4.855250
vt 19.438601 -4.751090
vt 19.413601 -4.822290
vt 19.469601 -4.784620
vt 19.129200 -4.822290
vt 19.438601 -4.664840
vt 20.112400 -4.751090
vt 20.542700 -4.784620
vt 20.542700 -4.636520
vt 20.112400 -4.664840
vt 19.469601 -4.636520
vt 19.519800 -4.664840
vt 19.463800 -4.664840
vt 18.656000 -4.636520
vt 18.986900 -4.843720
vt 18.844700 -4.822290
vt 18.656000 -4.755960
vt 18.656000 -4.819540
vt 20.935400 -4.618520
vt 20.960501 -4.747610
vt 20.985600 -4.632750
vt 20.766300 -4.747610
vt 20.885099 -4.569970
vt 20.778799 -4.544850
vt 20.657900 -4.544850
vt 20.657900 -4.747610
vt 20.557501 -4.747610
vt 20.557501 -4.519740
vt 20.542601 -4.773690
vt 20.475100 -4.927830
vt 20.542601 -4.902720
vt 20.159500 -4.996450
vt 20.442400 -4.989950
vt 20.114300 -4.986070
vt 20.035900 -4.983740
vt 19.503901 -4.773690
vt 19.503901 -4.890160
vt 19.545601 -4.927830
vt 19.659800 -5.045820
vt 19.533600 -4.995780
vt 19.554199 -5.063730
vt 19.803499 -5.086660
vt 19.870899 -5.086870
vt 19.979900 -5.046290
vt 19.976500 -5.101960
vt 20.903999 -4.854340
vt 20.766300 -4.919740
vt 20.860001 -4.935950
vt 20.766300 -4.772720
vt 20.922800 -4.772720
vt 20.712099 -4.937460
vt 20.657900 -4.772720
vt 20.641399 -4.953810
vt 20.557501 -4.935950
vt 20.557501 -4.772720
vt 20.442801 -4.978300
vt 20.142099 -4.958090
vt 20.138500 -5.075900
vt 20.422300 -4.891810
vt 20.443800 -5.064780
vt 20.183001 -5.178860
vt 20.228300 -5.217550
vt 20.511499 -5.151270
vt 20.248100 -5.304040
vt 20.533899 -5.237750
vt 20.517700 -5.281890
vt 20.246000 -5.390520
vt 20.549900 -5.354000
vt 20.238100 -5.427330
vt 20.273701 -5.480260
vt 20.545700 -5.413530
vt 19.129299 -4.555390
vt 19.040600 -4.609410
vt 19.129299 -4.609410
vt 19.438601 -4.714370
vt 19.357000 -4.609410
vt 18.709999 -4.714370
vt 18.812901 -4.609410
vt 19.357000 -4.555390
vt 18.709999 -4.535120
vt 19.040600 -4.555390
vt 18.812901 -4.555390
vt 19.513700 -4.555390
vt 20.542601 -4.535120
vt 19.513700 -4.609410
vt 20.250799 -4.555390
vt 20.250799 -4.609410
vt 20.542601 -4.714370
vt 20.112400 -4.714370
vt 19.893400 -4.535120
vt 19.893400 -4.714370
vt 20.105801 -4.535120
vt 20.105801 -4.714370
vt 19.843700 -5.175650
vt 20.156300 -5.175650
vt 19.843700 -5.102230
vt 20.156300 -4.637540
vt 19.843700 -4.637540
vt 19.843700 -4.717000
vt 20.156300 -5.102230
vt 20.156300 -4.717000
vt 19.843700 -5.028800
vt 19.843700 -4.796460
vt 20.156300 -5.028800
vt 20.156300 -4.796460
vt 19.843700 -4.955380
vt 19.843700 -4.875920
vt 20.156300 -4.955380
vt 20.156300 -4.875920
vt 20.132299 -4.773690
vt 19.867701 -4.773690
vt 19.867701 -4.890160
vt 20.132299 -4.890160
vt 19.867701 -5.063730
vt 20.132299 -5.063730
vt 19.867701 -4.995780
vt 20.132299 -4.995780
vt 19.855499 -4.819540
vt 20.143700 -4.819540
vt 20.143700 -4.755960
vt 19.855499 -4.755960
vt 20.143700 -4.636520
vt 19.855499 -4.636520
vt 20.143700 -4.664840
vt 19.855499 -4.664840
vt 19.855499 -4.751090
vt 20.143700 -4.751090
vt 20.105801 -4.555390
vt 19.893400 -4.555390
vt 19.893400 -4.609410
vt 20.105801 -4.609410
vt 20.121300 -4.958090
vt 19.878700 -4.958090
vt 19.878700 -5.075900
vt 20.121300 -5.075900
vt 19.878700 -5.178860
vt 20.121300 -5.178860
vt 20.121300 -5.217550
vt 19.878700 -5.217550
vt 19.878700 -5.304040
vt 20.121300 -5.304040
vt 19.878700 -5.390520
vt 20.121300 -5.390520
vt 20.121300 -5.427330
vt 19.878700 -5.427330
vt 20.121300 -5.480260
vt 19.878700 -5.480260
vt 20.105801 -4.664840
vt 19.893400 -4.664840
vt 21.344000 -5.156310
vt 21.344000 -4.843690
vt 21.253201 -4.843690
vt 21.253201 -5.156310
vt 21.157000 -5.156310
vt 21.157000 -4.843690
vt 20.273701 -5.121260
vt 20.545700 -5.121260
vt 20.273701 -4.878740
vt 20.545700 -4.878740
vt 18.656000 -5.144510
vt 18.844700 -5.144510
vt 18.844700 -4.856270
vt 18.986900 -4.856270
vt 18.656000 -4.856270
vt 18.986900 -5.144510
vt 19.129200 -4.856270
vt 19.129200 -5.144510
vt 19.271400 -4.856270
vt 19.271400 -5.144510
vt 19.413601 -4.856270
vt 19.413601 -5.144510
vt 19.469601 -4.856270
vt 19.469601 -5.144510
vt 20.542700 -5.144510
vt 20.542700 -4.856270
vt 19.545601 -5.132270
vt 19.545601 -4.867730
vt 19.503901 -5.132270
vt 19.503901 -4.867730
vt 20.960501 -5.138920
vt 20.922800 -4.869800
vt 20.922800 -5.130200
vt 20.960501 -4.861080
vt 20.860001 -5.130200
vt 20.860001 -4.869800
vt 20.766300 -4.869800
vt 20.766300 -5.130200
vt 20.712099 -4.869800
vt 20.712099 -5.130200
vt 20.641399 -4.869800
vt 20.641399 -5.130200
vt 20.557501 -5.130200
vt 20.557501 -4.869800
vt 20.475100 -5.132270
vt 20.542601 -4.867730
vt 20.475100 -4.867730
vt 20.542601 -5.132270
vt 19.976500 -5.132270
vt 19.870899 -4.867730
vt 19.870899 -5.132270
vt 19.976500 -4.867730
vt 19.803499 -4.867730
vt 19.803499 -5.132270
vt 19.659800 -4.867730
vt 19.659800 -5.132270
vt 19.554199 -4.867730
vt 19.554199 -5.132270
vt 20.035900 -4.867730
vt 20.035900 -5.132270
vt 20.114300 -5.132270
vt 20.114300 -4.867730
vt 20.159500 -5.132270
vt 20.159500 -4.867730
vt 20.442400 -5.132270
vt 20.442400 -4.867730
vt 19.519800 -4.856270
vt 20.112400 -5.144510
vt 20.112400 -4.856270
vt 19.438601 -5.144510
vt 19.463800 -4.856270
vt 19.438601 -4.856270
vt 19.040600 -5.106620
vt 19.040600 -4.894160
vt 18.812901 -4.894160
vt 18.812901 -5.106620
vt 19.357000 -5.106620
vt 19.357000 -4.894160
vt 19.129299 -4.894160
vt 19.129299 -5.106620
vt 20.250799 -4.894160
vt 19.513700 -4.894160
vt 20.250799 -5.106620
vt 19.513700 -5.106620
vt 20.183001 -4.878740
vt 20.183001 -5.121260
vt 20.228300 -5.121260
vt 20.228300 -4.878740
vt 19.438601 -4.894160
vt 18.709999 -4.894160
vt 19.438601 -5.106620
vt 18.709999 -5.106620
vt 20.112400 -5.106620
vt 20.112400 -4.894160
vt 20.542601 -5.106620
vt 20.542601 -4.894160
vt 18.656000 -4.613390
vt 18.952400 -4.717000
vt 18.865700 -4.613390
vt 18.927500 -4.637540
vt 18.974300 -4.875920
vt 19.000299 -4.796460
vt 18.933201 -5.028800
vt 18.990299 -4.955380
vt 18.868500 -5.102230
vt 18.656000 -5.249070
vt 18.843000 -5.175650
vt 18.746799 -5.249070
vt 19.457300 -4.784620
vt 20.530399 -4.784620
vt 19.887600 -4.751090
vt 19.457300 -4.636520
vt 20.480200 -4.751090
vt 19.887600 -4.664840
vt 20.536200 -4.751090
vt 20.586399 -4.822290
vt 20.561399 -4.751090
vt 20.728600 -4.855250
vt 20.561399 -4.664840
vt 20.870800 -4.822290
vt 21.344000 -4.636520
vt 21.013100 -4.843720
vt 21.155300 -4.822290
vt 21.344000 -4.755960
vt 21.344000 -4.819540
vt 19.442499 -4.747610
vt 19.442499 -4.519740
vt 19.342100 -4.544850
vt 19.342100 -4.747610
vt 19.233700 -4.747610
vt 19.221201 -4.544850
vt 19.114901 -4.569970
vt 19.064600 -4.618520
vt 19.039499 -4.747610
vt 19.014400 -4.632750
vt 19.964100 -4.983740
vt 20.496099 -4.773690
vt 19.457399 -4.773690
vt 20.454399 -4.927830
vt 20.496099 -4.890160
vt 20.340200 -5.045820
vt 20.466400 -4.995780
vt 20.445801 -5.063730
vt 20.196501 -5.086660
vt 20.129101 -5.086870
vt 20.020100 -5.046290
vt 20.023500 -5.101960
vt 19.885700 -4.986070
vt 19.840500 -4.996450
vt 19.524900 -4.927830
vt 19.457399 -4.902720
vt 19.557600 -4.989950
vt 19.233700 -4.772720
vt 19.287901 -4.937460
vt 19.342100 -4.772720
vt 19.358601 -4.953810
vt 19.442499 -4.935950
vt 19.442499 -4.772720
vt 19.233700 -4.919740
vt 19.096001 -4.854340
vt 19.139999 -4.935950
vt 19.077200 -4.772720
vt 19.557199 -4.978300
vt 19.857901 -4.958090
vt 19.577700 -4.891810
vt 19.861500 -5.075900
vt 19.556200 -5.064780
vt 19.816999 -5.178860
vt 19.771700 -5.217550
vt 19.488501 -5.151270
vt 19.751900 -5.304040
vt 19.466101 -5.237750
vt 19.482300 -5.281890
vt 19.754000 -5.390520
vt 19.450100 -5.354000
vt 19.761900 -5.427330
vt 19.726299 -5.480260
vt 19.454300 -5.413530
vt 20.561399 -4.714370
vt 20.643000 -4.609410
vt 20.486300 -4.609410
vt 20.870701 -4.609410
vt 19.749201 -4.609410
vt 19.887600 -4.714370
vt 19.457399 -4.714370
vt 19.457399 -4.535120
vt 19.749201 -4.555390
vt 20.486300 -4.555390
vt 20.643000 -4.555390
vt 21.290001 -4.535120
vt 20.870701 -4.555390
vt 20.959400 -4.555390
vt 21.187099 -4.555390
vt 21.187099 -4.609410
vt 20.959400 -4.609410
vt 21.290001 -4.714370
s 1
usemtl Meshpart1Mtl.001
f 1/1/1 2/2/2 3/3/2
f 2/2/2 1/1/1 4/4/1
f 5/5/3 6/6/4 7/7/4
f 6/6/4 5/5/3 8/8/3
f 9/9/5 10/10/5 11/11/6
f 9/9/5 12/12/7 10/10/5
f 13/13/8 12/12/7 9/9/5
f 11/11/6 10/10/5 14/14/6
f 15/15/9 16/16/10 17/17/11
f 17/17/11 16/16/10 18/18/12
f 19/19/13 20/20/14 21/21/14
f 20/20/14 19/19/13 22/22/15
f 23/23/16 21/21/14 20/20/14
f 21/21/14 23/23/16 24/24/16
f 25/25/17 24/24/16 23/23/16
f 24/24/16 25/25/17 26/26/17
f 27/27/18 26/26/17 25/25/17
f 26/26/17 27/27/18 28/28/18
f 29/29/19 28/28/18 27/27/18
f 28/28/18 29/29/19 30/30/19
f 30/30/19 29/29/19 31/31/20
f 31/31/20 29/29/19 32/32/20
f 31/31/20 32/32/20 33/33/21
f 33/33/21 32/32/20 34/34/21
f 35/35/2 37/36/2 38/37/1
f 38/37/1 37/36/2 36/38/1
f 39/39/22 40/40/22 41/41/23
f 41/41/23 40/40/22 42/42/23
f 42/42/23 43/43/24 41/41/23
f 43/43/24 42/42/23 44/44/24
f 47/45/2 45/46/2 48/47/1
f 48/47/1 45/46/2 46/48/1
f 51/47/1 50/46/2 49/48/1
f 52/45/2 50/46/2 51/47/1
f 55/47/1 54/46/2 53/48/1
f 56/45/2 54/46/2 55/47/1
f 59/49/2 57/50/2 58/51/2
f 57/50/2 59/49/2 60/52/2
f 61/53/25 63/54/26 62/55/25
f 63/54/26 64/56/26 62/55/25
f 63/54/26 65/57/27 64/56/26
f 66/58/27 65/57/27 63/54/26
f 67/59/28 69/60/29 68/61/28
f 69/60/29 67/59/28 70/62/29
f 70/62/29 71/63/30 69/60/29
f 71/63/30 70/62/29 72/64/30
f 71/63/30 72/64/30 73/65/31
f 73/65/31 74/66/31 71/63/30
f 74/66/31 73/65/31 75/67/32
f 75/67/32 76/68/31 74/66/31
f 75/67/32 77/69/33 76/68/31
f 78/70/34 77/69/33 75/67/32
f 81/71/35 80/72/36 79/73/36
f 82/74/35 80/72/36 81/71/35
f 83/75/35 80/72/36 82/74/35
f 83/75/35 82/74/35 84/76/35
f 85/77/35 86/78/35 87/79/35
f 88/80/35 87/79/35 86/78/35
f 91/81/37 90/82/36 89/83/36
f 91/81/37 92/84/38 90/82/36
f 92/84/38 91/81/37 93/85/35
f 94/86/25 92/84/38 93/85/35
f 95/87/35 96/88/35 97/89/35
f 98/90/35 97/89/35 96/88/35
f 99/91/36 101/92/25 100/93/36
f 99/91/36 102/94/25 101/92/25
f 103/95/36 105/96/25 104/97/36
f 103/95/36 106/98/25 105/96/25
f 107/99/36 109/100/25 108/101/36
f 107/99/36 110/102/25 109/100/25
f 111/103/39 112/104/40 113/105/39
f 114/106/39 113/105/39 112/104/40
f 113/105/39 114/106/39 115/107/39
f 111/103/39 116/108/41 112/104/40
f 116/108/41 111/103/39 117/109/41
f 116/108/41 117/109/41 118/110/39
f 117/109/41 111/103/39 119/111/40
f 117/109/41 119/111/40 120/112/39
f 119/111/40 111/103/39 121/113/39
f 119/111/40 121/113/39 122/114/39
f 123/115/40 124/116/42 125/117/40
f 126/118/39 125/117/40 124/116/42
f 125/117/40 126/118/39 127/119/39
f 124/116/42 123/115/40 128/120/40
f 123/115/40 125/117/40 129/121/39
f 130/122/39 125/117/40 127/119/39
f 127/119/39 131/123/41 130/122/39
f 132/124/39 130/122/39 131/123/41
f 130/122/39 132/124/39 133/125/39
f 132/124/39 134/126/39 133/125/39
f 133/125/39 134/126/39 135/127/39
f 135/127/39 134/126/39 136/128/39
f 136/128/39 123/115/40 129/121/39
f 134/126/39 123/115/40 136/128/39
f 137/129/39 128/120/40 123/115/40
f 128/120/40 137/129/39 138/130/39
f 137/129/39 139/131/40 138/130/39
f 139/131/40 137/129/39 140/132/39
f 140/132/39 141/133/39 139/131/40
f 142/134/39 143/135/39 144/136/39
f 143/135/39 142/134/39 145/137/40
f 146/138/42 145/137/40 142/134/39
f 145/137/40 146/138/42 147/139/42
f 145/137/40 147/139/42 148/140/41
f 145/137/40 148/140/41 149/141/39
f 148/140/41 150/142/39 149/141/39
f 150/142/39 148/140/41 151/143/43
f 152/144/41 153/145/41 154/146/39
f 152/144/41 155/147/39 153/145/41
f 155/147/39 156/148/39 153/145/41
f 155/147/39 152/144/41 157/149/39
f 152/144/41 158/150/39 157/149/39
f 158/150/39 152/144/41 159/151/39
f 159/151/39 160/152/39 161/153/42
f 161/153/42 158/150/39 159/151/39
f 158/150/39 161/153/42 162/154/39
f 161/153/42 163/155/39 162/154/39
f 162/154/39 163/155/39 164/156/39
f 158/150/39 162/154/39 165/157/40
f 158/150/39 165/157/40 166/158/39
f 158/150/39 166/158/39 167/159/39
f 166/158/39 168/160/39 167/159/39
f 169/161/40 170/162/42 171/163/41
f 172/164/40 170/162/42 169/161/40
f 172/164/40 169/161/40 173/165/39
f 172/164/40 174/166/40 170/162/42
f 174/166/40 172/164/40 175/167/39
f 174/166/40 175/167/39 176/168/39
f 176/168/39 175/167/39 177/169/39
f 177/169/39 175/167/39 178/170/39
f 179/171/41 180/172/39 181/173/43
f 180/172/39 179/171/41 182/174/39
f 181/173/43 183/175/39 179/171/41
f 183/175/39 181/173/43 184/176/39
f 183/175/39 184/176/39 185/177/39
f 183/175/39 185/177/39 186/178/41
f 187/179/40 186/178/41 185/177/39
f 186/178/41 187/179/40 188/180/43
f 187/179/40 189/181/39 188/180/43
f 189/181/39 187/179/40 190/182/39
f 189/181/39 190/182/39 191/183/40
f 191/183/40 190/182/39 192/184/42
f 193/185/39 191/183/40 192/184/42
f 191/183/40 193/185/39 194/186/39
f 195/187/39 196/188/39 197/189/39
f 196/188/39 198/190/39 197/189/39
f 198/190/39 199/191/39 197/189/39
f 196/188/39 200/192/39 198/190/39
f 201/121/40 199/191/39 198/190/39
f 200/192/39 196/188/39 202/193/39
f 199/191/39 201/121/40 203/194/39
f 200/192/39 202/193/39 204/195/39
f 205/196/39 196/188/39 195/187/39
f 195/187/39 204/195/39 205/196/39
f 204/195/39 195/187/39 203/194/39
f 204/195/39 206/197/39 205/196/39
f 206/197/39 204/195/39 202/193/39
f 204/195/39 203/194/39 207/198/40
f 201/121/40 207/198/40 203/194/39
f 207/198/40 208/199/39 204/195/39
f 207/198/40 201/121/40 209/200/41
f 208/199/39 207/198/40 210/201/39
f 201/121/40 211/125/39 209/200/41
f 212/202/39 208/199/39 210/201/39
f 212/202/39 209/200/41 211/125/39
f 208/199/39 212/202/39 213/203/39
f 212/202/39 211/125/39 214/204/39
f 214/204/39 213/203/39 212/202/39
f 215/165/44 216/137/45 217/164/46
f 218/135/46 216/137/45 215/165/44
f 219/141/45 217/164/46 216/137/45
f 217/164/46 219/141/45 220/167/46
f 221/142/45 220/167/46 219/141/45
f 220/167/46 221/142/45 222/170/44
f 223/205/47 224/206/47 225/207/47
f 224/206/47 226/208/47 225/207/47
f 227/209/48 229/210/49 231/211/50
f 228/212/27 230/213/27 232/214/51
f 231/211/50 229/210/49 233/215/50
f 232/214/51 234/216/52 228/212/27
f 231/211/50 233/215/50 235/217/53
f 234/216/52 232/214/51 236/218/54
f 235/217/53 233/215/50 237/219/48
f 236/218/54 238/220/54 234/216/52
f 235/217/53 237/219/48 239/221/55
f 238/220/54 236/218/54 240/222/56
f 239/221/55 237/219/48 241/223/55
f 240/222/56 242/224/56 238/220/54
f 239/221/55 241/223/55 242/224/56
f 242/224/56 240/222/56 239/221/55
f 243/225/47 244/226/47 245/227/47
f 245/227/47 246/228/47 243/225/47
f 247/229/57 248/230/57 249/231/56
f 249/231/56 248/230/57 250/232/56
f 249/231/56 250/232/56 251/16/58
f 251/16/58 250/232/56 252/15/58
f 253/233/59 254/234/59 255/235/47
f 255/235/47 256/236/47 253/233/59
f 256/236/47 255/235/47 257/237/36
f 257/237/36 258/238/36 256/236/47
f 259/239/60 260/240/60 261/241/36
f 261/241/36 262/242/36 259/239/60
f 263/243/60 264/244/60 265/245/36
f 265/245/36 266/246/36 263/243/60
f 267/245/36 268/246/36 269/244/60
f 269/244/60 268/246/36 270/243/60
f 271/245/36 272/246/36 273/244/60
f 273/244/60 272/246/36 274/243/60
f 275/247/61 276/248/61 277/249/62
f 277/249/62 278/250/62 275/247/61
f 278/250/62 277/249/62 279/251/63
f 279/251/63 280/252/64 278/250/62
f 282/253/65 281/254/65 283/255/66
f 283/255/66 284/256/67 282/253/65
f 284/256/67 283/255/66 285/257/68
f 285/257/68 286/258/68 284/256/67
f 285/257/68 287/259/69 286/258/68
f 288/260/70 287/259/69 285/257/68
f 288/260/70 289/261/71 287/259/69
f 289/261/71 288/260/70 290/262/71
f 292/263/60 291/264/60 293/206/60
f 293/206/60 294/208/60 292/263/60
f 296/265/2 295/266/2 297/267/72
f 297/267/72 298/268/72 296/265/2
f 298/268/72 297/267/72 299/269/73
f 299/269/73 297/267/72 300/270/73
f 301/271/74 302/272/74 303/273/74
f 302/272/74 304/274/74 303/273/74
f 305/275/59 306/276/75 307/277/75
f 306/276/75 308/278/76 307/277/75
f 305/275/59 307/277/75 309/279/59
f 310/280/77 308/278/76 306/276/75
f 310/280/77 311/281/78 308/278/76
f 312/282/78 311/281/78 310/280/77
f 312/282/78 313/283/77 311/281/78
f 314/284/77 313/283/77 312/282/78
f 314/284/77 315/285/79 313/283/77
f 316/286/80 315/285/79 314/284/77
f 316/286/80 317/287/81 315/285/79
f 318/288/81 317/287/81 316/286/80
f 318/288/81 319/289/77 317/287/81
f 320/290/77 317/287/81 319/289/77
f 321/291/82 322/292/82 323/293/82
f 323/293/82 322/292/82 324/294/82
f 325/295/83 326/296/83 327/297/84
f 326/296/83 325/295/83 328/298/83
f 329/299/85 330/300/86 331/301/87
f 331/301/87 332/302/87 329/299/85
f 332/302/87 331/301/87 333/303/88
f 333/303/88 334/304/88 332/302/87
f 334/304/88 333/303/88 335/305/89
f 335/305/89 336/306/90 334/304/88
f 336/306/90 335/305/89 337/307/59
f 337/307/59 335/305/89 338/308/91
f 339/309/10 341/310/92 340/311/10
f 341/310/92 339/309/10 342/312/92
f 343/313/93 344/314/94 345/315/94
f 344/314/94 343/313/93 346/316/93
f 347/317/95 345/315/94 344/314/94
f 345/315/94 347/317/95 348/318/95
f 349/319/96 348/318/95 347/317/95
f 348/318/95 349/319/96 350/320/96
f 351/321/97 350/320/96 349/319/96
f 350/320/96 351/321/97 352/322/98
f 353/323/99 354/324/99 355/325/100
f 355/325/100 356/326/100 353/323/99
f 356/326/100 355/325/100 357/327/101
f 357/327/101 358/328/101 356/326/100
f 357/327/101 359/329/102 358/328/101
f 359/329/102 360/330/102 358/328/101
f 363/331/103 362/332/104 361/333/104
f 362/332/104 363/331/103 364/334/105
f 364/334/105 363/331/103 365/335/77
f 364/334/105 365/335/77 366/336/2
f 368/337/104 367/338/104 369/339/2
f 370/340/2 368/337/104 369/339/2
f 371/341/104 372/342/104 373/343/2
f 374/344/2 371/341/104 373/343/2
f 376/345/104 377/346/2 375/347/104
f 378/348/2 375/347/104 377/346/2
f 380/349/106 379/350/106 381/351/107
f 381/351/107 382/352/107 380/349/106
f 383/353/2 384/354/77 385/355/2
f 386/356/77 385/355/2 384/354/77
f 387/355/2 389/357/104 388/353/2
f 390/358/104 388/353/2 389/357/104
f 393/359/77 392/358/104 391/357/104
f 392/358/104 393/359/77 394/360/77
f 395/361/108 396/362/109 397/363/109
f 397/363/109 396/362/109 398/364/109
f 396/362/109 395/361/108 399/365/110
f 396/362/109 399/365/110 400/366/109
f 395/361/108 401/367/110 399/365/110
f 399/365/110 401/367/110 402/368/109
f 401/367/110 395/361/108 403/369/108
f 403/369/108 395/361/108 404/370/111
f 403/369/108 404/370/111 405/371/109
f 405/371/109 404/370/111 406/372/109
f 407/373/109 408/374/109 409/375/111
f 409/375/111 410/376/109 407/373/109
f 411/377/109 409/375/111 408/374/109
f 410/376/109 409/375/111 412/378/111
f 413/379/109 411/377/109 408/374/109
f 414/380/112 413/379/109 408/374/109
f 413/379/109 414/380/112 415/381/108
f 415/381/108 414/380/112 416/382/110
f 417/383/110 410/376/109 412/378/111
f 416/382/110 417/383/110 415/381/108
f 417/383/110 416/382/110 418/384/109
f 410/376/109 417/383/110 419/385/109
f 418/384/109 419/385/109 417/383/110
f 420/386/109 419/385/109 418/384/109
f 419/385/109 420/386/109 421/387/108
f 419/385/109 421/387/108 422/388/109
f 422/388/109 421/387/108 423/389/109
f 424/390/111 425/391/109 426/392/113
f 426/392/113 427/393/109 424/390/111
f 426/392/113 428/394/110 427/393/109
f 429/395/109 428/394/110 426/392/113
f 430/396/113 428/394/110 429/395/109
f 431/397/109 428/394/110 430/396/113
f 428/394/110 431/397/109 432/398/111
f 433/399/109 432/398/111 431/397/109
f 434/400/109 435/401/111 436/402/110
f 435/401/111 437/403/109 438/404/109
f 437/403/109 435/401/111 434/400/109
f 434/400/109 439/405/111 437/403/109
f 440/406/109 437/403/109 439/405/111
f 440/406/109 439/405/111 441/407/110
f 439/405/111 434/400/109 442/408/109
f 434/400/109 443/409/109 442/408/109
f 443/409/109 434/400/109 444/410/110
f 444/410/110 445/411/113 443/409/109
f 434/400/109 436/402/110 446/412/110
f 436/402/110 447/413/111 446/412/110
f 447/413/111 436/402/110 448/414/108
f 448/414/108 436/402/110 449/415/109
f 447/413/111 448/414/108 450/416/109
f 451/417/109 452/418/111 453/419/109
f 453/419/109 452/418/111 454/420/110
f 453/419/109 454/420/110 455/421/108
f 455/421/108 456/422/109 453/419/109
f 452/418/111 451/417/109 457/423/109
f 451/417/109 458/424/109 457/423/109
f 457/423/109 458/424/109 459/425/109
f 458/424/109 451/417/109 460/426/109
f 461/427/111 462/428/109 463/429/109
f 462/428/109 461/427/111 464/430/109
f 464/430/109 461/427/111 465/431/111
f 464/430/109 465/431/111 466/432/109
f 465/431/111 467/433/109 466/432/109
f 467/433/109 465/431/111 468/434/109
f 468/434/109 469/435/109 467/433/109
f 469/435/109 468/434/109 470/436/109
f 469/435/109 470/436/109 471/437/109
f 469/435/109 471/437/109 472/438/109
f 473/439/109 472/438/109 471/437/109
f 472/438/109 473/439/109 474/440/109
f 474/440/109 473/439/109 475/441/110
f 476/442/109 475/441/110 473/439/109
f 477/443/111 478/444/111 479/383/110
f 480/445/109 479/383/110 478/444/111
f 481/378/109 479/383/110 480/445/109
f 478/444/111 477/443/111 482/446/109
f 480/445/109 483/447/108 481/378/109
f 481/378/109 483/447/108 484/448/109
f 484/448/109 483/447/108 485/449/110
f 483/447/108 486/450/113 485/449/110
f 486/450/113 483/447/108 487/451/110
f 478/444/111 488/452/109 480/445/109
f 488/452/109 486/450/113 487/451/110
f 488/452/109 478/444/111 489/453/109
f 488/452/109 490/454/110 486/450/113
f 489/453/109 490/454/110 488/452/109
f 491/455/109 490/454/110 489/453/109
f 490/454/110 491/455/109 492/456/109
f 490/454/110 492/456/109 493/457/113
f 494/458/109 490/454/110 493/457/113
f 492/456/109 491/455/109 495/459/109
f 490/454/110 494/458/109 496/460/108
f 496/460/108 494/458/109 495/459/109
f 495/459/109 491/455/109 482/446/109
f 495/459/109 477/443/111 496/460/108
f 477/443/111 495/459/109 482/446/109
f 497/426/114 498/394/115 499/398/114
f 498/394/115 497/426/114 500/417/116
f 500/417/116 501/419/116 498/394/115
f 502/393/115 498/394/115 501/419/116
f 501/419/116 503/422/114 502/393/115
f 504/390/116 502/393/115 503/422/114
