# Blender 5.2.0 LTS
# www.blender.org
mtllib boneclaw mag full.mtl
o boneclaw_mag_full
v 0.067397 0.124224 -0.094666
v 0.067397 0.124224 0.094299
v 0.087417 -0.005659 -0.094666
v 0.087417 -0.005659 0.094299
v 0.087417 -0.115767 -0.094666
v 0.087417 -0.115767 0.094299
v 0.067397 -0.235762 -0.094666
v 0.067397 -0.235762 0.094299
v 0.027480 -0.345747 -0.094666
v 0.027480 -0.345747 0.094299
v -0.022568 -0.455732 -0.094666
v -0.022568 -0.455732 0.094299
v -0.002549 -0.515669 0.113342
v -0.002549 -0.515669 -0.112671
v -0.012559 -0.575728 0.113342
v -0.012559 -0.575728 -0.112671
v -0.002549 -0.515669 -0.112671
v -0.002549 -0.515669 0.113342
v 0.067397 0.124224 -0.094666
v -0.302598 0.174272 -0.094666
v -0.302598 0.174272 0.094299
v 0.067397 0.124224 0.094299
v -0.392563 -0.395674 0.094299
v -0.392563 -0.395674 -0.094666
v -0.442612 -0.445723 -0.112671
v -0.442612 -0.445723 0.113342
v -0.012559 -0.575728 0.113342
v -0.442612 -0.445723 0.113342
v -0.452500 -0.505659 0.113342
v -0.002549 -0.515669 0.113342
v 0.067397 0.124224 0.094299
v -0.282578 0.054277 0.094299
v 0.087417 -0.005659 0.094299
v -0.302598 0.174272 0.094299
v -0.272568 -0.065718 0.094299
v 0.087417 -0.115767 0.094299
v 0.067397 -0.235762 0.094299
v -0.292588 -0.175703 0.094299
v 0.027480 -0.345747 0.094299
v -0.332505 -0.285688 0.094299
v -0.022568 -0.455732 0.094299
v -0.392563 -0.395674 0.094299
v -0.002549 -0.515669 0.113342
v -0.442612 -0.445723 0.113342
v -0.452500 -0.505659 -0.112671
v -0.442612 -0.445723 0.113342
v -0.442612 -0.445723 -0.112671
v -0.452500 -0.505659 0.113342
v -0.302598 0.174272 -0.094666
v -0.282578 0.054277 -0.094666
v -0.282578 0.054277 0.094299
v -0.302598 0.174272 0.094299
v -0.272568 -0.065718 0.094299
v -0.272568 -0.065718 -0.094666
v -0.292588 -0.175703 0.094299
v -0.292588 -0.175703 -0.094666
v -0.332505 -0.285688 0.094299
v -0.332505 -0.285688 -0.094666
v -0.392563 -0.395674 0.094299
v -0.392563 -0.395674 -0.094666
v -0.452500 -0.505659 -0.112671
v -0.012559 -0.575728 -0.112671
v -0.012559 -0.575728 0.113342
v -0.452500 -0.505659 0.113342
v -0.012559 -0.575728 -0.112671
v -0.442612 -0.445723 -0.112671
v -0.002549 -0.515669 -0.112671
v -0.452500 -0.505659 -0.112671
v 0.067397 0.124224 -0.094666
v -0.282578 0.054277 -0.094666
v -0.302598 0.174272 -0.094666
v 0.087417 -0.005659 -0.094666
v -0.272568 -0.065718 -0.094666
v 0.087417 -0.115767 -0.094666
v 0.067397 -0.235762 -0.094666
v -0.292588 -0.175703 -0.094666
v 0.027480 -0.345747 -0.094666
v -0.332505 -0.285688 -0.094666
v -0.022568 -0.455732 -0.094666
v -0.392563 -0.395674 -0.094666
v -0.002549 -0.515669 -0.112671
v -0.442612 -0.445723 -0.112671
v 0.017471 0.104326 -0.100708
v 0.017471 0.104326 0.101318
v 0.037490 0.004229 -0.100708
v 0.037490 0.004229 0.101318
v 0.037490 -0.115767 -0.100708
v 0.037490 -0.115767 0.101318
v 0.027480 -0.225752 -0.100708
v 0.027480 -0.225752 0.101318
v -0.012559 -0.335737 -0.100708
v -0.012559 -0.335737 0.101318
v -0.062607 -0.425703 -0.100708
v -0.062607 -0.425703 0.101318
v -0.102524 0.124224 0.101318
v -0.082505 0.014238 -0.100708
v -0.102524 0.124224 -0.100708
v -0.082505 0.014238 0.101318
v -0.082505 -0.095747 -0.100708
v -0.082505 -0.095747 0.101318
v -0.092515 -0.205732 -0.100708
v -0.092515 -0.205732 0.101318
v -0.132554 -0.315718 -0.100708
v -0.132554 -0.315718 0.101318
v -0.182603 -0.405684 -0.100708
v -0.182603 -0.405684 0.101318
v -0.222520 0.134233 -0.100708
v -0.222520 0.134233 0.101318
v -0.202500 0.034258 -0.100708
v -0.202500 0.034258 0.101318
v -0.192612 -0.075728 -0.100708
v -0.192612 -0.075728 0.101318
v -0.212510 -0.185713 -0.100708
v -0.212510 -0.185713 0.101318
v -0.252549 -0.295698 -0.100708
v -0.252549 -0.295698 0.101318
v -0.302598 -0.385664 -0.100708
v -0.302598 -0.385664 0.101318
v -0.132554 0.124224 -0.100708
v -0.132554 0.124224 0.101318
v -0.102524 0.124224 -0.100708
v -0.102524 0.124224 0.101318
v -0.012559 0.104326 -0.100708
v -0.012559 0.104326 0.101318
v 0.017471 0.104326 -0.100708
v 0.017471 0.104326 0.101318
v -0.252549 0.144243 -0.100708
v -0.252549 0.144243 0.101318
v -0.222520 0.134233 -0.100708
v -0.222520 0.134233 0.101318
v -0.112534 0.024248 0.101318
v -0.102524 0.124224 0.101318
v -0.132554 0.124224 0.101318
v -0.082505 0.014238 0.101318
v -0.112534 -0.085737 0.101318
v -0.082505 -0.095747 0.101318
v -0.122544 -0.205732 0.101318
v -0.092515 -0.205732 0.101318
v -0.132554 -0.315718 0.101318
v -0.162583 -0.305708 0.101318
v -0.182603 -0.405684 0.101318
v -0.212510 -0.405684 0.101318
v 0.007461 0.004229 0.101318
v 0.017471 0.104326 0.101318
v -0.012559 0.104326 0.101318
v 0.037490 0.004229 0.101318
v 0.007461 -0.105757 0.101318
v 0.037490 -0.115767 0.101318
v -0.012559 -0.215742 0.101318
v 0.027480 -0.225752 0.101318
v -0.012559 -0.335737 0.101318
v -0.042588 -0.325728 0.101318
v -0.062607 -0.425703 0.101318
v -0.092515 -0.415693 0.101318
v -0.232529 0.044268 0.101318
v -0.222520 0.134233 0.101318
v -0.252549 0.144243 0.101318
v -0.202500 0.034258 0.101318
v -0.232529 -0.075728 0.101318
v -0.192612 -0.075728 0.101318
v -0.242539 -0.185713 0.101318
v -0.212510 -0.185713 0.101318
v -0.252549 -0.295698 0.101318
v -0.282578 -0.285688 0.101318
v -0.302598 -0.385664 0.101318
v -0.332505 -0.385664 0.101318
v -0.232529 0.044268 -0.100708
v -0.232529 0.044268 0.101318
v -0.252549 0.144243 -0.100708
v -0.252549 0.144243 0.101318
v -0.232529 -0.075728 0.101318
v -0.232529 -0.075728 -0.100708
v -0.242539 -0.185713 0.101318
v -0.242539 -0.185713 -0.100708
v -0.282578 -0.285688 0.101318
v -0.282578 -0.285688 -0.100708
v -0.332505 -0.385664 0.101318
v -0.332505 -0.385664 -0.100708
v -0.112534 0.024248 -0.100708
v -0.112534 0.024248 0.101318
v -0.132554 0.124224 -0.100708
v -0.132554 0.124224 0.101318
v -0.112534 -0.085737 0.101318
v -0.112534 -0.085737 -0.100708
v -0.122544 -0.205732 0.101318
v -0.122544 -0.205732 -0.100708
v -0.162583 -0.305708 0.101318
v -0.162583 -0.305708 -0.100708
v -0.212510 -0.405684 0.101318
v -0.212510 -0.405684 -0.100708
v 0.007461 0.004229 -0.100708
v 0.007461 0.004229 0.101318
v -0.012559 0.104326 -0.100708
v -0.012559 0.104326 0.101318
v 0.007461 -0.105757 0.101318
v 0.007461 -0.105757 -0.100708
v -0.012559 -0.215742 0.101318
v -0.012559 -0.215742 -0.100708
v -0.042588 -0.325728 0.101318
v -0.042588 -0.325728 -0.100708
v -0.092515 -0.415693 0.101318
v -0.092515 -0.415693 -0.100708
v -0.182603 -0.405684 -0.100708
v -0.182603 -0.405684 0.101318
v -0.212510 -0.405684 -0.100708
v -0.212510 -0.405684 0.101318
v -0.062607 -0.425703 -0.100708
v -0.062607 -0.425703 0.101318
v -0.092515 -0.415693 -0.100708
v -0.092515 -0.415693 0.101318
v -0.302598 -0.385664 -0.100708
v -0.302598 -0.385664 0.101318
v -0.332505 -0.385664 -0.100708
v -0.332505 -0.385664 0.101318
v -0.102524 0.124224 -0.100708
v -0.112534 0.024248 -0.100708
v -0.132554 0.124224 -0.100708
v -0.082505 0.014238 -0.100708
v -0.112534 -0.085737 -0.100708
v -0.082505 -0.095747 -0.100708
v -0.122544 -0.205732 -0.100708
v -0.092515 -0.205732 -0.100708
v -0.132554 -0.315718 -0.100708
v -0.162583 -0.305708 -0.100708
v -0.182603 -0.405684 -0.100708
v -0.212510 -0.405684 -0.100708
v 0.017471 0.104326 -0.100708
v 0.007461 0.004229 -0.100708
v -0.012559 0.104326 -0.100708
v 0.037490 0.004229 -0.100708
v 0.007461 -0.105757 -0.100708
v 0.037490 -0.115767 -0.100708
v -0.012559 -0.215742 -0.100708
v 0.027480 -0.225752 -0.100708
v -0.012559 -0.335737 -0.100708
v -0.042588 -0.325728 -0.100708
v -0.062607 -0.425703 -0.100708
v -0.092515 -0.415693 -0.100708
v -0.222520 0.134233 -0.100708
v -0.232529 0.044268 -0.100708
v -0.252549 0.144243 -0.100708
v -0.202500 0.034258 -0.100708
v -0.232529 -0.075728 -0.100708
v -0.192612 -0.075728 -0.100708
v -0.242539 -0.185713 -0.100708
v -0.212510 -0.185713 -0.100708
v -0.252549 -0.295698 -0.100708
v -0.282578 -0.285688 -0.100708
v -0.302598 -0.385664 -0.100708
v -0.332505 -0.385664 -0.100708
vn 0.9888 0.1492 -0.0000
vn 0.9888 0.1491 -0.0000
vn 0.9955 0.0948 -0.0000
vn 0.9985 -0.0550 -0.0000
vn 0.9985 -0.0551 -0.0000
vn 0.9678 -0.2518 -0.0000
vn 0.9195 -0.3930 -0.0000
vn 0.9997 -0.0236 -0.0000
vn 0.9379 0.3468 -0.0000
vn 0.9874 -0.1580 -0.0000
vn 0.1503 0.9886 -0.0000
vn -0.6624 0.7491 -0.0000
vn -0.7708 0.6371 -0.0000
vn -0.0001 -0.0000 1.0000
vn -0.0000 -0.0000 1.0000
vn 0.0001 -0.0000 1.0000
vn 0.0002 -0.0000 1.0000
vn 0.0316 0.2051 0.9782
vn 0.0235 0.1491 0.9885
vn 0.0471 0.3300 0.9428
vn -0.9874 0.1580 -0.0000
vn -0.9888 -0.1491 -0.0000
vn -0.9955 -0.0948 -0.0000
vn -0.9985 0.0550 -0.0000
vn -0.9678 0.2518 -0.0000
vn -0.9195 0.3930 -0.0000
vn -0.7708 0.6370 -0.0000
vn -0.1503 -0.9886 -0.0000
vn 0.0001 -0.0000 -1.0000
vn -0.0001 -0.0000 -1.0000
vn -0.0002 -0.0000 -1.0000
vn -0.0000 -0.0000 -1.0000
vn 0.0002 -0.0000 -1.0000
vn 0.0316 0.2051 -0.9782
vn 0.0235 0.1491 -0.9885
vn 0.0471 0.3300 -0.9428
vn 0.9862 0.1657 -0.0000
vn 0.9947 0.1026 -0.0000
vn 0.9154 -0.4025 -0.0000
vn 0.8896 -0.4567 -0.0000
vn 0.8897 -0.4566 -0.0000
vn 0.9947 0.1027 -0.0000
vn 0.1502 0.9886 -0.0000
vn -0.9947 -0.1026 -0.0000
vn -0.9862 -0.1657 -0.0000
vn -0.9154 0.4025 -0.0000
vn -0.8897 0.4566 -0.0000
vn -0.8896 0.4567 -0.0000
vn -0.1491 -0.9888 -0.0000
vn -0.1492 -0.9888 -0.0000
vn -0.0003 -0.0000 -1.0000
vt 26.094500 -0.679374
vt 25.905500 -0.679374
vt 26.094500 -0.799757
vt 25.905500 -0.799757
vt 26.094500 -0.918138
vt 25.905500 -0.918138
vt 26.094500 -1.032930
vt 25.905500 -1.032930
vt 26.094500 -1.144140
vt 25.905500 -1.144140
vt 26.094500 -1.253340
vt 25.905500 -1.253340
vt 25.886700 -1.310970
vt 26.113300 -1.310970
vt 25.886700 -1.377310
vt 26.113300 -1.377310
vt 25.753500 -1.094460
vt 26.118700 -1.094460
vt 26.118700 -0.905543
vt 25.753500 -0.905543
vt 26.259701 -1.113350
vt 26.207701 -0.905543
vt 26.207701 -1.094460
vt 26.259701 -0.886652
vt 26.168200 -1.377310
vt 25.740299 -1.242950
vt 25.730000 -1.309290
vt 26.178499 -1.310970
vt 26.246500 -0.679374
vt 25.899500 -0.743071
vt 26.264700 -0.799757
vt 25.881300 -0.622688
vt 25.904800 -0.861453
vt 26.270000 -0.918138
vt 26.252199 -1.032930
vt 25.886999 -0.976246
vt 26.211300 -1.144140
vt 25.846100 -1.087450
vt 26.157400 -1.253340
vt 25.792299 -1.196660
vt 25.886700 -1.309290
vt 26.113300 -1.242950
vt 25.886700 -1.242950
vt 26.113300 -1.309290
vt 25.905500 -0.622688
vt 25.905500 -0.743071
vt 26.094500 -0.743071
vt 26.094500 -0.622688
vt 26.094500 -0.861453
vt 25.905500 -0.861453
vt 26.094500 -0.976246
vt 25.905500 -0.976246
vt 26.094500 -1.087450
vt 25.905500 -1.087450
vt 26.094500 -1.196660
vt 25.905500 -1.196660
vt 25.730000 -1.113350
vt 26.168200 -1.113350
vt 26.168200 -0.886652
vt 25.730000 -0.886652
vt 25.831800 -1.377310
vt 26.259701 -1.242950
vt 25.821501 -1.310970
vt 26.270000 -1.309290
vt 25.753500 -0.679374
vt 26.100500 -0.743071
vt 26.118700 -0.622688
vt 25.735300 -0.799757
vt 26.095200 -0.861453
vt 25.730000 -0.918138
vt 25.747801 -1.032930
vt 26.113001 -0.976246
vt 25.788700 -1.144140
vt 26.153900 -1.087450
vt 25.842600 -1.253340
vt 26.207701 -1.196660
vt 20.100800 -50.757702
vt 19.899200 -50.757702
vt 20.100800 -50.859901
vt 19.899200 -50.859901
vt 20.100800 -50.973999
vt 19.899200 -50.973999
vt 20.100800 -51.084801
vt 19.899200 -51.084801
vt 20.100800 -51.192101
vt 19.899200 -51.192101
vt 20.100800 -51.284401
vt 19.899200 -51.284401
vt 19.899200 -50.739101
vt 20.100800 -50.841400
vt 20.100800 -50.739101
vt 19.899200 -50.841400
vt 20.100800 -50.955502
vt 19.899200 -50.955502
vt 20.100800 -51.066200
vt 19.899200 -51.066200
vt 20.100800 -51.173599
vt 19.899200 -51.173599
vt 20.100800 -51.265900
vt 19.899200 -51.265900
vt 20.100800 -50.720600
vt 19.899200 -50.720600
vt 20.100800 -50.822800
vt 19.899200 -50.822800
vt 20.100800 -50.937000
vt 19.899200 -50.937000
vt 20.100800 -51.047699
vt 19.899200 -51.047699
vt 20.100800 -51.154999
vt 19.899200 -51.154999
vt 20.100800 -51.247398
vt 19.899200 -51.247398
vt 19.986099 -51.100800
vt 19.986099 -50.899200
vt 19.953600 -51.100800
vt 19.953600 -50.899200
vt 19.866600 -51.100800
vt 19.866600 -50.899200
vt 19.834101 -51.100800
vt 19.834101 -50.899200
vt 20.105499 -51.100800
vt 20.105499 -50.899200
vt 20.073000 -51.100800
vt 20.073000 -50.899200
vt 20.030701 -50.836300
vt 20.046400 -50.739101
vt 20.013901 -50.734100
vt 20.063200 -50.841400
vt 20.035299 -50.950401
vt 20.067801 -50.955502
vt 20.018101 -51.061199
vt 20.050600 -51.066200
vt 20.011700 -51.173599
vt 19.979200 -51.168499
vt 19.964701 -51.265900
vt 19.932199 -51.260899
vt 20.150200 -50.854900
vt 20.165899 -50.757702
vt 20.133400 -50.752602
vt 20.182600 -50.859901
vt 20.154800 -50.969002
vt 20.187201 -50.973999
vt 20.137600 -51.079700
vt 20.170099 -51.084801
vt 20.131100 -51.192101
vt 20.098600 -51.187099
vt 20.084101 -51.284401
vt 20.051600 -51.279400
vt 19.911301 -50.817799
vt 19.927000 -50.720600
vt 19.894501 -50.715599
vt 19.943800 -50.822800
vt 19.915899 -50.931900
vt 19.948400 -50.937000
vt 19.898701 -51.042599
vt 19.931200 -51.047699
vt 19.892200 -51.154999
vt 19.859800 -51.150002
vt 19.845200 -51.247398
vt 19.812799 -51.242298
vt 19.899200 -50.817799
vt 20.100800 -50.817799
vt 19.899200 -50.715599
vt 20.100800 -50.715599
vt 20.100800 -50.931900
vt 19.899200 -50.931900
vt 20.100800 -51.042599
vt 19.899200 -51.042599
vt 20.100800 -51.150002
vt 19.899200 -51.150002
vt 20.100800 -51.242298
vt 19.899200 -51.242298
vt 19.899200 -50.836300
vt 20.100800 -50.836300
vt 19.899200 -50.734100
vt 20.100800 -50.734100
vt 20.100800 -50.950401
vt 19.899200 -50.950401
vt 20.100800 -51.061199
vt 19.899200 -51.061199
vt 20.100800 -51.168499
vt 19.899200 -51.168499
vt 20.100800 -51.260899
vt 19.899200 -51.260899
vt 19.899200 -50.854900
vt 20.100800 -50.854900
vt 19.899200 -50.752602
vt 20.100800 -50.752602
vt 20.100800 -50.969002
vt 19.899200 -50.969002
vt 20.100800 -51.079700
vt 19.899200 -51.079700
vt 20.100800 -51.187099
vt 19.899200 -51.187099
vt 20.100800 -51.279400
vt 19.899200 -51.279400
vt 19.964701 -51.100800
vt 19.964701 -50.899200
vt 19.932199 -51.100800
vt 19.932199 -50.899200
vt 20.084101 -51.100800
vt 20.084101 -50.899200
vt 20.051600 -51.100800
vt 20.051600 -50.899200
vt 19.845200 -51.100800
vt 19.845200 -50.899200
vt 19.812799 -51.100800
vt 19.812799 -50.899200
vt 19.953600 -50.739101
vt 19.969299 -50.836300
vt 19.986099 -50.734100
vt 19.936800 -50.841400
vt 19.964701 -50.950401
vt 19.932199 -50.955502
vt 19.981899 -51.061199
vt 19.949400 -51.066200
vt 19.988300 -51.173599
vt 20.020800 -51.168499
vt 20.035299 -51.265900
vt 20.067801 -51.260899
vt 19.834101 -50.757702
vt 19.849800 -50.854900
vt 19.866600 -50.752602
vt 19.817400 -50.859901
vt 19.845200 -50.969002
vt 19.812799 -50.973999
vt 19.862400 -51.079700
vt 19.829901 -51.084801
vt 19.868900 -51.192101
vt 19.901400 -51.187099
vt 19.915899 -51.284401
vt 19.948400 -51.279400
vt 20.073000 -50.720600
vt 20.088699 -50.817799
vt 20.105499 -50.715599
vt 20.056200 -50.822800
vt 20.084101 -50.931900
vt 20.051600 -50.937000
vt 20.101299 -51.042599
vt 20.068800 -51.047699
vt 20.107800 -51.154999
vt 20.140200 -51.150002
vt 20.154800 -51.247398
vt 20.187201 -51.242298
s 1
usemtl Meshpart1Mtl.007
f 1/1/1 2/2/2 3/3/3
f 3/3/3 2/2/2 4/4/3
f 4/4/3 5/5/4 3/3/3
f 5/5/4 4/4/3 6/6/5
f 5/5/4 6/6/5 7/7/6
f 7/7/6 6/6/5 8/8/6
f 8/8/6 9/9/7 7/7/6
f 9/9/7 8/8/6 10/10/7
f 10/10/7 11/11/8 9/9/7
f 11/11/8 10/10/7 12/12/8
f 13/13/9 11/11/8 12/12/8
f 13/13/9 14/14/9 11/11/8
f 15/15/10 16/16/10 17/14/10
f 17/14/10 18/13/10 15/15/10
f 19/17/11 20/18/11 21/19/11
f 19/17/11 21/19/11 22/20/11
f 25/21/12 23/22/13 24/23/13
f 25/21/12 26/24/12 23/22/13
f 27/25/14 28/26/15 29/27/15
f 28/26/15 27/25/14 30/28/14
f 31/29/14 32/30/16 33/31/14
f 32/30/16 31/29/14 34/32/17
f 35/33/16 33/31/14 32/30/16
f 33/31/14 35/33/16 36/34/14
f 36/34/14 35/33/16 37/35/15
f 38/36/15 37/35/15 35/33/16
f 37/35/15 38/36/15 39/37/15
f 40/38/15 39/37/15 38/36/15
f 39/37/15 40/38/15 41/39/18
f 42/40/19 41/39/18 40/38/15
f 42/40/19 43/28/20 41/39/18
f 43/28/20 42/40/19 44/26/20
f 45/41/21 46/42/21 47/43/21
f 46/42/21 45/41/21 48/44/21
f 49/45/22 50/46/23 51/47/23
f 49/45/22 51/47/23 52/48/22
f 50/46/23 53/49/24 51/47/23
f 50/46/23 54/50/24 53/49/24
f 54/50/24 55/51/25 53/49/24
f 54/50/24 56/52/25 55/51/25
f 56/52/25 57/53/26 55/51/25
f 56/52/25 58/54/26 57/53/26
f 58/54/26 59/55/27 57/53/26
f 58/54/26 60/56/27 59/55/27
f 61/57/28 62/58/28 63/59/28
f 61/57/28 63/59/28 64/60/28
f 65/61/29 66/62/30 67/63/29
f 66/62/30 65/61/29 68/64/30
f 69/65/30 70/66/31 71/67/32
f 70/66/31 69/65/30 72/68/33
f 72/68/33 73/69/32 70/66/31
f 73/69/32 72/68/33 74/70/33
f 75/71/32 73/69/32 74/70/33
f 73/69/32 75/71/32 76/72/32
f 77/73/32 76/72/32 75/71/32
f 76/72/32 77/73/32 78/74/32
f 79/75/34 78/74/32 77/73/32
f 78/74/32 79/75/34 80/76/35
f 81/63/36 80/76/35 79/75/34
f 80/76/35 81/63/36 82/62/36
usemtl Meshpart2Mtl
f 83/77/37 84/78/37 85/79/38
f 85/79/38 84/78/37 86/80/38
f 85/79/38 86/80/38 87/81/4
f 87/81/4 86/80/38 88/82/4
f 88/82/4 89/83/6 87/81/4
f 89/83/6 88/82/4 90/84/6
f 89/83/6 90/84/6 91/85/39
f 91/85/39 90/84/6 92/86/39
f 91/85/39 92/86/39 93/87/40
f 93/87/40 92/86/39 94/88/41
f 95/89/37 96/90/38 97/91/37
f 96/90/38 95/89/37 98/92/38
f 96/90/38 98/92/38 99/93/4
f 99/93/4 98/92/38 100/94/4
f 99/93/4 100/94/4 101/95/6
f 101/95/6 100/94/4 102/96/6
f 101/95/6 102/96/6 103/97/39
f 103/97/39 102/96/6 104/98/39
f 103/97/39 104/98/39 105/99/40
f 105/99/40 104/98/39 106/100/41
f 107/101/37 108/102/37 109/103/42
f 109/103/42 108/102/37 110/104/38
f 109/103/42 110/104/38 111/105/4
f 111/105/4 110/104/38 112/106/4
f 111/105/4 112/106/4 113/107/6
f 113/107/6 112/106/4 114/108/6
f 113/107/6 114/108/6 115/109/39
f 115/109/39 114/108/6 116/110/39
f 115/109/39 116/110/39 117/111/40
f 117/111/40 116/110/39 118/112/41
f 119/113/43 120/114/43 121/115/43
f 121/115/43 120/114/43 122/116/43
f 123/117/43 124/118/43 125/119/43
f 125/119/43 124/118/43 126/120/43
f 127/121/11 128/122/11 129/123/11
f 129/123/11 128/122/11 130/124/11
f 131/125/15 132/126/15 133/127/15
f 132/126/15 131/125/15 134/128/15
f 135/129/15 134/128/15 131/125/15
f 134/128/15 135/129/15 136/130/15
f 137/131/15 136/130/15 135/129/15
f 136/130/15 137/131/15 138/132/15
f 139/133/15 138/132/15 137/131/15
f 137/131/15 140/134/15 139/133/15
f 141/135/15 139/133/15 140/134/15
f 140/134/15 142/136/15 141/135/15
f 143/137/15 144/138/15 145/139/15
f 144/138/15 143/137/15 146/140/15
f 147/141/15 146/140/15 143/137/15
f 146/140/15 147/141/15 148/142/15
f 149/143/15 148/142/15 147/141/15
f 148/142/15 149/143/15 150/144/15
f 151/145/15 150/144/15 149/143/15
f 149/143/15 152/146/15 151/145/15
f 153/147/15 151/145/15 152/146/15
f 152/146/15 154/148/15 153/147/15
f 155/149/15 156/150/15 157/151/15
f 156/150/15 155/149/15 158/152/15
f 159/153/15 158/152/15 155/149/15
f 158/152/15 159/153/15 160/154/15
f 161/155/15 160/154/15 159/153/15
f 160/154/15 161/155/15 162/156/15
f 163/157/15 162/156/15 161/155/15
f 161/155/15 164/158/15 163/157/15
f 165/159/15 163/157/15 164/158/15
f 164/158/15 166/160/15 165/159/15
f 167/161/44 168/162/44 169/163/45
f 169/163/45 168/162/44 170/164/45
f 167/161/44 171/165/24 168/162/44
f 172/166/24 171/165/24 167/161/44
f 172/166/24 173/167/25 171/165/24
f 174/168/25 173/167/25 172/166/24
f 174/168/25 175/169/46 173/167/25
f 176/170/46 175/169/46 174/168/25
f 176/170/46 177/171/47 175/169/46
f 178/172/47 177/171/47 176/170/46
f 179/173/44 180/174/44 181/175/45
f 181/175/45 180/174/44 182/176/45
f 179/173/44 183/177/24 180/174/44
f 184/178/24 183/177/24 179/173/44
f 184/178/24 185/179/25 183/177/24
f 186/180/25 185/179/25 184/178/24
f 186/180/25 187/181/46 185/179/25
f 188/182/46 187/181/46 186/180/25
f 188/182/46 189/183/47 187/181/46
f 190/184/47 189/183/47 188/182/46
f 191/185/44 192/186/44 193/187/45
f 193/187/45 192/186/44 194/188/45
f 191/185/44 195/189/24 192/186/44
f 196/190/24 195/189/24 191/185/44
f 196/190/24 197/191/25 195/189/24
f 198/192/25 197/191/25 196/190/24
f 198/192/25 199/193/46 197/191/25
f 200/194/46 199/193/46 198/192/25
f 200/194/46 201/195/48 199/193/46
f 202/196/47 201/195/48 200/194/46
f 203/197/49 204/198/49 205/199/49
f 205/199/49 204/198/49 206/200/49
f 207/201/49 208/202/49 209/203/50
f 209/203/50 208/202/49 210/204/49
f 211/205/49 212/206/49 213/207/49
f 213/207/49 212/206/49 214/208/49
f 215/209/32 216/210/32 217/211/32
f 216/210/32 215/209/32 218/212/51
f 218/212/51 219/213/32 216/210/32
f 219/213/32 218/212/51 220/214/32
f 220/214/32 221/215/33 219/213/32
f 221/215/33 220/214/32 222/216/32
f 223/217/32 221/215/33 222/216/32
f 221/215/33 223/217/32 224/218/32
f 225/219/32 224/218/32 223/217/32
f 224/218/32 225/219/32 226/220/32
f 227/221/32 228/222/32 229/223/32
f 228/222/32 227/221/32 230/224/32
f 230/224/32 231/225/32 228/222/32
f 231/225/32 230/224/32 232/226/32
f 232/226/32 233/227/29 231/225/32
f 233/227/29 232/226/32 234/228/29
f 235/229/30 233/227/29 234/228/29
f 233/227/29 235/229/30 236/230/32
f 237/231/33 236/230/32 235/229/30
f 236/230/32 237/231/33 238/232/32
f 239/233/32 240/234/32 241/235/32
f 240/234/32 239/233/32 242/236/32
f 242/236/32 243/237/32 240/234/32
f 243/237/32 242/236/32 244/238/32
f 244/238/32 245/239/30 243/237/32
f 245/239/30 244/238/32 246/240/32
f 247/241/32 245/239/30 246/240/32
f 245/239/30 247/241/32 248/242/32
f 249/243/32 248/242/32 247/241/32
f 248/242/32 249/243/32 250/244/32
