# Blender 5.2.1 LTS
# www.blender.org
mtllib door.mtl
o RenderMesh_135324480292837
v -1.230527 -2.184922 0.026408
v -1.519169 -2.184923 -0.328064
v -1.230527 -2.184922 -0.328064
v -1.519169 -2.184923 0.026408
v 1.230526 -2.184922 -0.328064
v 1.519169 -2.184923 -0.328064
v 1.230526 -2.184922 0.026408
v 1.519169 -2.184923 0.026408
v 1.519169 2.241899 -0.328064
v -1.519169 2.241899 -0.328064
v -1.519169 2.241899 0.026408
v 1.519169 2.241899 0.026408
v 1.519169 2.241899 0.026408
v 1.519169 -2.184923 -0.328064
v 1.519169 2.241899 -0.328064
v 1.519169 -2.184923 0.026408
v -1.519169 2.241899 -0.328064
v -1.519169 -2.184923 -0.328064
v -1.519169 -2.184923 0.026408
v -1.519169 2.241899 0.026408
v 0.987460 1.708856 -0.252657
v -0.987460 1.708856 -0.252657
v -0.987460 1.708856 -0.048999
v 0.987460 1.708856 -0.048999
v 0.987460 0.189686 -0.252657
v 0.987460 1.708856 -0.252657
v 0.987460 1.708856 -0.048999
v 0.987460 0.189686 -0.048999
v -0.987460 1.708856 -0.252657
v -0.987460 0.189686 -0.252657
v -0.987460 0.189686 -0.048999
v -0.987460 1.708856 -0.048999
v -0.987460 0.189686 -0.252657
v 0.987460 0.189686 -0.252657
v 0.987460 0.189686 -0.048999
v -0.987460 0.189686 -0.048999
v -1.519169 2.241899 0.026408
v 1.230526 1.948335 0.026408
v 1.519169 2.241899 0.026408
v 1.519169 -2.184923 0.026408
v 1.230526 -2.184922 0.026408
v -1.230527 1.948335 0.026408
v -1.519169 -2.184923 0.026408
v -1.230527 -2.184922 0.026408
v -1.519169 -2.184923 -0.328064
v -1.519169 2.241899 -0.328064
v -1.230527 1.948335 -0.328064
v -1.230527 -2.184922 -0.328064
v 1.230526 1.948335 -0.328064
v 1.519169 2.241899 -0.328064
v 1.519169 -2.184923 -0.328064
v 1.230526 -2.184922 -0.328064
v 0.987460 0.189686 -0.252657
v -0.987460 0.189686 -0.252657
v -0.888714 0.265646 -0.252657
v -0.987460 1.708856 -0.252657
v 0.888714 0.265646 -0.252657
v -0.888714 1.632897 -0.252657
v 0.987460 1.708856 -0.252657
v 0.888714 1.632897 -0.252657
v -0.888714 0.265646 -0.048999
v -0.987460 1.708856 -0.048999
v -0.987460 0.189686 -0.048999
v -0.888714 1.632897 -0.048999
v 0.888714 0.265646 -0.048999
v 0.987460 1.708856 -0.048999
v 0.987460 0.189686 -0.048999
v 0.888714 1.632897 -0.048999
v 0.888714 0.265646 -0.252657
v -0.888714 0.265646 -0.252657
v -0.888714 0.265646 -0.048999
v 0.888714 0.265646 -0.048999
v -0.888714 0.265646 -0.252657
v -0.888714 1.632897 -0.252657
v -0.888714 1.632897 -0.048999
v -0.888714 0.265646 -0.048999
v 0.888714 1.632897 -0.252657
v 0.888714 0.265646 -0.252657
v 0.888714 0.265646 -0.048999
v 0.888714 1.632897 -0.048999
v -0.888714 1.632897 -0.252657
v 0.888714 1.632897 -0.252657
v 0.888714 1.632897 -0.048999
v -0.888714 1.632897 -0.048999
v -1.230527 -2.184922 -0.328064
v -1.230527 1.948335 -0.328064
v -1.230527 1.948335 0.026408
v -1.230527 -2.184922 0.026408
v 1.230526 1.948335 -0.328064
v 1.230526 -2.184922 -0.328064
v 1.230526 -2.184922 0.026408
v 1.230526 1.948335 0.026408
v -1.230527 1.948335 -0.328064
v 1.230526 1.948335 -0.328064
v 1.230526 1.948335 0.026408
v -1.230527 1.948335 0.026408
vn 0.0005 -1.0000 0.0005
vn 0.0005 1.0000 0.0005
vn 1.0000 0.0005 0.0005
vn -1.0000 0.0005 0.0005
vn 0.0005 0.0005 1.0000
vn 0.0005 0.0005 -1.0000
vt 0.000000 0.000000
s 1
f 1/1/1 2/1/1 3/1/1
f 2/1/1 1/1/1 4/1/1
f 5/1/1 6/1/1 7/1/1
f 6/1/1 8/1/1 7/1/1
f 9/1/2 10/1/2 11/1/2
f 9/1/2 11/1/2 12/1/2
f 13/1/3 14/1/3 15/1/3
f 14/1/3 13/1/3 16/1/3
f 17/1/4 18/1/4 19/1/4
f 17/1/4 19/1/4 20/1/4
f 21/1/2 22/1/2 23/1/2
f 21/1/2 23/1/2 24/1/2
f 25/1/3 26/1/3 27/1/3
f 25/1/3 27/1/3 28/1/3
f 29/1/4 30/1/4 31/1/4
f 29/1/4 31/1/4 32/1/4
f 33/1/1 34/1/1 35/1/1
f 33/1/1 35/1/1 36/1/1
f 37/1/5 38/1/5 39/1/5
f 40/1/5 39/1/5 38/1/5
f 38/1/5 41/1/5 40/1/5
f 38/1/5 37/1/5 42/1/5
f 43/1/5 42/1/5 37/1/5
f 42/1/5 43/1/5 44/1/5
f 45/1/6 46/1/6 47/1/6
f 45/1/6 47/1/6 48/1/6
f 46/1/6 49/1/6 47/1/6
f 49/1/6 46/1/6 50/1/6
f 51/1/6 49/1/6 50/1/6
f 49/1/6 51/1/6 52/1/6
f 53/1/6 54/1/6 55/1/6
f 56/1/6 55/1/6 54/1/6
f 53/1/6 55/1/6 57/1/6
f 55/1/6 56/1/6 58/1/6
f 59/1/6 53/1/6 57/1/6
f 56/1/6 60/1/6 58/1/6
f 57/1/6 60/1/6 59/1/6
f 60/1/6 56/1/6 59/1/6
f 61/1/5 62/1/5 63/1/5
f 62/1/5 61/1/5 64/1/5
f 63/1/5 65/1/5 61/1/5
f 66/1/5 62/1/5 64/1/5
f 65/1/5 63/1/5 67/1/5
f 66/1/5 65/1/5 67/1/5
f 65/1/5 66/1/5 68/1/5
f 66/1/5 64/1/5 68/1/5
f 69/1/2 70/1/2 71/1/2
f 69/1/2 71/1/2 72/1/2
f 73/1/3 74/1/3 75/1/3
f 73/1/3 75/1/3 76/1/3
f 77/1/4 78/1/4 79/1/4
f 77/1/4 79/1/4 80/1/4
f 81/1/1 82/1/1 83/1/1
f 81/1/1 83/1/1 84/1/1
f 85/1/3 86/1/3 87/1/3
f 85/1/3 87/1/3 88/1/3
f 89/1/4 90/1/4 91/1/4
f 89/1/4 91/1/4 92/1/4
f 93/1/1 94/1/1 95/1/1
f 93/1/1 95/1/1 96/1/1
o RenderMesh_135766367340729
v -1.240268 -2.164459 -0.267804
v 1.240268 -2.164459 -0.267804
v 1.240268 -2.164459 -0.033852
v -1.240268 -2.164459 -0.033852
v 1.240268 1.964459 -0.267804
v -1.240268 1.964459 -0.267804
v -1.240268 1.964459 -0.033852
v 1.240268 1.964459 -0.033852
v -1.240268 1.964459 -0.267804
v -1.240268 -2.164459 -0.267804
v -1.240268 -2.164459 -0.033852
v -1.240268 1.964459 -0.033852
v 1.240268 -2.164459 -0.267804
v 1.240268 1.964459 -0.267804
v 1.240268 1.964459 -0.033852
v 1.240268 -2.164459 -0.033852
v -1.240268 1.964459 -0.033852
v -0.987460 0.189388 -0.033852
v -0.987460 1.708558 -0.033852
v -1.240268 -2.164459 -0.033852
v 1.240268 1.964459 -0.033852
v 1.240268 -2.164459 -0.033852
v 0.987460 1.708558 -0.033852
v 0.987460 0.189388 -0.033852
v -1.240268 -2.164459 -0.267804
v -1.240268 1.964459 -0.267804
v -0.987460 0.189388 -0.267804
v 1.240268 -2.164459 -0.267804
v -0.987460 1.708558 -0.267804
v 0.987460 0.189388 -0.267804
v 1.240268 1.964459 -0.267804
v 0.987460 1.708558 -0.267804
v -0.987460 0.189388 -0.033852
v 0.987460 0.189388 -0.033852
v -0.987460 0.189388 -0.267804
v 0.987460 0.189388 -0.267804
v 0.987460 0.189388 -0.033852
v 0.987460 1.708558 -0.033852
v 0.987460 0.189388 -0.267804
v 0.987460 1.708558 -0.267804
v -0.987460 1.708558 -0.267804
v -0.987460 0.189388 -0.033852
v -0.987460 0.189388 -0.267804
v -0.987460 1.708558 -0.033852
v -0.987460 1.708558 -0.267804
v 0.987460 1.708558 -0.267804
v 0.987460 1.708558 -0.033852
v -0.987460 1.708558 -0.033852
vn -0.0000 -1.0000 -0.0000
vn -0.0000 1.0000 -0.0000
vn -1.0000 -0.0000 -0.0000
vn 1.0000 -0.0000 -0.0000
vn -0.0000 -0.0000 1.0000
vn -0.0000 -0.0000 -1.0000
vt 0.000000 0.000000
s 1
f 97/2/7 98/2/7 99/2/7
f 97/2/7 99/2/7 100/2/7
f 101/2/8 102/2/8 103/2/8
f 101/2/8 103/2/8 104/2/8
f 105/2/9 106/2/9 107/2/9
f 105/2/9 107/2/9 108/2/9
f 109/2/10 110/2/10 111/2/10
f 109/2/10 111/2/10 112/2/10
f 113/2/11 114/2/11 115/2/11
f 113/2/11 116/2/11 114/2/11
f 117/2/11 113/2/11 115/2/11
f 118/2/11 114/2/11 116/2/11
f 117/2/11 115/2/11 119/2/11
f 114/2/11 118/2/11 120/2/11
f 118/2/11 117/2/11 120/2/11
f 120/2/11 117/2/11 119/2/11
f 121/2/12 122/2/12 123/2/12
f 123/2/12 124/2/12 121/2/12
f 123/2/12 122/2/12 125/2/12
f 124/2/12 123/2/12 126/2/12
f 122/2/12 127/2/12 125/2/12
f 127/2/12 124/2/12 126/2/12
f 125/2/12 127/2/12 128/2/12
f 127/2/12 126/2/12 128/2/12
f 129/2/8 130/2/8 131/2/8
f 132/2/8 131/2/8 130/2/8
f 133/2/9 134/2/9 135/2/9
f 136/2/9 135/2/9 134/2/9
f 137/2/10 138/2/10 139/2/10
f 138/2/10 137/2/10 140/2/10
f 141/2/7 142/2/7 143/2/7
f 141/2/7 143/2/7 144/2/7
o RenderMesh_131959212396156
v 0.657329 -0.192678 0.484238
v 0.657329 -0.707242 0.484238
v 0.724214 -0.706571 0.512244
v 0.630255 -0.709239 0.417288
v 0.657085 -0.892905 0.408543
v 0.630185 -0.843394 0.362715
v 0.724214 -0.913581 0.427686
v 0.657392 -0.956158 0.218111
v 0.724214 -0.984097 0.217509
v 0.791343 -0.892905 0.408543
v 0.791100 -0.707242 0.484238
v 0.655250 -0.958925 -0.033852
v 0.724214 -0.987491 -0.033852
v 0.626684 -0.889960 -0.033852
v 0.793179 -0.958925 -0.033852
v 0.630263 -0.889369 0.219791
v 0.655250 -0.820996 -0.033852
v 0.791037 -0.956158 0.218111
v 0.821745 -0.889960 -0.033852
v 0.818244 -0.843394 0.362715
v 0.818166 -0.889369 0.219791
v 0.793179 -0.820996 -0.033852
v 0.818173 -0.709239 0.417288
v 0.790497 -0.823293 0.221516
v 0.789534 -0.795063 0.317849
v 0.724214 -0.792430 -0.033852
v 0.724214 -0.795890 0.222080
v 0.724214 -0.775874 0.299877
v 0.657931 -0.823293 0.221516
v 0.658895 -0.795061 0.317849
v 0.658031 -0.711571 0.351170
v 0.790397 -0.711571 0.351170
v 0.724214 -0.712469 0.323821
v 0.658031 -0.188350 0.351170
v 0.790397 -0.188350 0.351170
v 0.724214 -0.187450 0.323821
v 0.630255 -0.190681 0.417288
v 0.724214 -0.124047 0.299877
v 0.658895 -0.104858 0.317849
v 0.630185 -0.056526 0.362715
v 0.657085 -0.007015 0.408543
v 0.630263 -0.010552 0.219791
v 0.724214 -0.193350 0.512244
v 0.657392 0.056237 0.218111
v 0.724214 0.013661 0.427686
v 0.626684 -0.009960 -0.033852
v 0.655250 -0.078925 -0.033852
v 0.655250 0.059004 -0.033852
v 0.657931 -0.076627 0.221516
v 0.724214 -0.107491 -0.033852
v 0.724214 -0.104030 0.222080
v 0.790497 -0.076627 0.221516
v 0.793179 -0.078925 -0.033852
v 0.789534 -0.104858 0.317849
v 0.818166 -0.010552 0.219791
v 0.821745 -0.009960 -0.033852
v 0.818173 -0.190681 0.417288
v 0.818244 -0.056526 0.362715
v 0.791037 0.056237 0.218111
v 0.793179 0.059004 -0.033852
v 0.791100 -0.192678 0.484238
v 0.791343 -0.007015 0.408543
v 0.724214 0.084177 0.217509
v 0.724214 0.087570 -0.033852
v -0.657329 -0.707242 0.484238
v -0.657329 -0.192678 0.484238
v -0.724214 -0.706571 0.512244
v -0.630255 -0.709239 0.417288
v -0.657085 -0.892905 0.408543
v -0.630185 -0.843394 0.362715
v -0.724214 -0.913581 0.427686
v -0.657392 -0.956158 0.218111
v -0.724214 -0.984097 0.217509
v -0.791343 -0.892905 0.408543
v -0.791100 -0.707242 0.484238
v -0.655250 -0.958925 -0.033852
v -0.724214 -0.987491 -0.033852
v -0.626684 -0.889960 -0.033852
v -0.793179 -0.958925 -0.033852
v -0.630263 -0.889369 0.219791
v -0.655250 -0.820996 -0.033852
v -0.791037 -0.956158 0.218111
v -0.821745 -0.889960 -0.033852
v -0.818244 -0.843394 0.362715
v -0.818166 -0.889369 0.219791
v -0.793179 -0.820996 -0.033852
v -0.657931 -0.823293 0.221516
v -0.724214 -0.792430 -0.033852
v -0.658895 -0.795061 0.317849
v -0.724214 -0.795890 0.222080
v -0.790497 -0.823293 0.221516
v -0.724214 -0.775874 0.299877
v -0.789534 -0.795063 0.317849
v -0.658031 -0.711571 0.351170
v -0.818173 -0.709239 0.417288
v -0.790397 -0.711571 0.351170
v -0.724214 -0.712469 0.323821
v -0.790397 -0.188350 0.351170
v -0.658031 -0.188350 0.351170
v -0.724214 -0.187450 0.323821
v -0.724214 -0.124047 0.299877
v -0.818173 -0.190681 0.417288
v -0.630255 -0.190681 0.417288
v -0.658895 -0.104858 0.317849
v -0.630185 -0.056526 0.362715
v -0.789534 -0.104858 0.317849
v -0.791100 -0.192678 0.484238
v -0.818244 -0.056526 0.362715
v -0.724214 -0.193350 0.512244
v -0.791343 -0.007015 0.408543
v -0.724214 0.013661 0.427686
v -0.657085 -0.007015 0.408543
v -0.724214 0.084177 0.217509
v -0.791037 0.056237 0.218111
v -0.818166 -0.010552 0.219791
v -0.821745 -0.009960 -0.033852
v -0.793179 0.059004 -0.033852
v -0.793179 -0.078925 -0.033852
v -0.724214 0.087570 -0.033852
v -0.655250 0.059004 -0.033852
v -0.790497 -0.076627 0.221516
v -0.724214 -0.107491 -0.033852
v -0.724214 -0.104030 0.222080
v -0.657931 -0.076627 0.221516
v -0.655250 -0.078925 -0.033852
v -0.630263 -0.010552 0.219791
v -0.626684 -0.009960 -0.033852
v -0.657392 0.056237 0.218111
vn -0.8025 0.1163 0.5852
vn -0.8025 -0.1163 0.5852
vn -0.0000 -0.1978 0.9802
vn -1.0000 -0.0062 0.0029
vn -0.7949 -0.5230 0.3076
vn -0.9946 0.0864 0.0583
vn -0.0000 -0.8743 0.4854
vn -0.6747 -0.7315 0.0990
vn -0.0000 -0.9938 0.1108
vn 0.7949 -0.5230 0.3076
vn 0.8025 -0.1163 0.5852
vn -0.7072 -0.7069 0.0138
vn -0.0000 -0.9999 0.0140
vn -0.9999 -0.0002 0.0139
vn 0.7073 -0.7068 0.0140
vn -0.9940 -0.1006 0.0423
vn -0.7072 0.7069 0.0136
vn 0.6747 -0.7315 0.0990
vn 0.9999 -0.0002 0.0138
vn 0.9946 0.0864 0.0583
vn 0.9940 -0.1006 0.0423
vn 0.7070 0.7071 0.0133
vn 1.0000 -0.0062 0.0029
vn 0.7578 0.6483 -0.0738
vn 0.7567 0.5406 -0.3677
vn -0.0000 0.9999 0.0134
vn -0.0000 0.9939 -0.1099
vn -0.0000 0.8456 -0.5338
vn -0.7578 0.6483 -0.0738
vn -0.7567 0.5406 -0.3677
vn -0.7931 0.1195 -0.5973
vn 0.7931 0.1195 -0.5973
vn -0.0000 0.1919 -0.9814
vn -0.7931 -0.1195 -0.5973
vn 0.7931 -0.1195 -0.5973
vn -0.0000 -0.1919 -0.9814
vn -1.0000 0.0062 0.0029
vn -0.0000 -0.8456 -0.5338
vn -0.7567 -0.5406 -0.3677
vn -0.9946 -0.0864 0.0583
vn -0.7949 0.5230 0.3076
vn -0.9940 0.1006 0.0423
vn -0.0000 0.1978 0.9802
vn -0.6747 0.7315 0.0990
vn -0.0000 0.8743 0.4854
vn -0.9999 0.0002 0.0138
vn -0.7070 -0.7071 0.0133
vn -0.7072 0.7069 0.0138
vn -0.7578 -0.6483 -0.0738
vn -0.0000 -0.9999 0.0134
vn -0.0000 -0.9939 -0.1099
vn 0.7578 -0.6483 -0.0738
vn 0.7070 -0.7071 0.0133
vn 0.7567 -0.5406 -0.3677
vn 0.9940 0.1006 0.0423
vn 0.9999 0.0002 0.0138
vn 1.0000 0.0062 0.0029
vn 0.9946 -0.0864 0.0583
vn 0.6747 0.7315 0.0990
vn 0.7072 0.7069 0.0138
vn 0.8025 0.1163 0.5852
vn 0.7949 0.5230 0.3076
vn -0.0000 0.9938 0.1108
vn -0.0000 0.9999 0.0140
vn 0.7072 -0.7069 0.0138
vn 0.9999 -0.0002 0.0139
vn -0.7073 -0.7068 0.0140
vn 0.7072 0.7069 0.0136
vn -0.9999 -0.0002 0.0138
vn -0.7070 0.7071 0.0133
vn 0.7072 -0.7069 0.0136
vt 0.000000 0.000000
s 1
f 145/3/13 146/3/14 147/3/15
f 145/3/13 148/3/16 146/3/14
f 149/3/17 147/3/15 146/3/14
f 148/3/16 150/3/18 146/3/14
f 150/3/18 149/3/17 146/3/14
f 151/3/19 147/3/15 149/3/17
f 150/3/18 152/3/20 149/3/17
f 149/3/17 153/3/21 151/3/19
f 153/3/21 149/3/17 152/3/20
f 154/3/22 147/3/15 151/3/19
f 153/3/21 154/3/22 151/3/19
f 147/3/15 154/3/22 155/3/23
f 156/3/24 153/3/21 152/3/20
f 153/3/21 156/3/24 157/3/25
f 152/3/20 158/3/26 156/3/24
f 159/3/27 153/3/21 157/3/25
f 158/3/26 152/3/20 160/3/28
f 152/3/20 150/3/18 160/3/28
f 160/3/28 161/3/29 158/3/26
f 153/3/21 159/3/27 162/3/30
f 154/3/22 153/3/21 162/3/30
f 163/3/31 162/3/30 159/3/27
f 154/3/22 162/3/30 164/3/32
f 164/3/32 155/3/23 154/3/22
f 162/3/30 163/3/31 165/3/33
f 164/3/32 162/3/30 165/3/33
f 166/3/34 165/3/33 163/3/31
f 155/3/23 164/3/32 167/3/35
f 165/3/33 166/3/34 168/3/36
f 164/3/32 165/3/33 169/3/37
f 169/3/37 165/3/33 168/3/36
f 169/3/37 167/3/35 164/3/32
f 170/3/38 168/3/36 166/3/34
f 168/3/36 170/3/38 171/3/39
f 168/3/36 172/3/40 169/3/37
f 172/3/40 168/3/36 171/3/39
f 170/3/38 173/3/41 171/3/39
f 173/3/41 172/3/40 171/3/39
f 173/3/41 170/3/38 161/3/29
f 161/3/29 160/3/28 173/3/41
f 160/3/28 174/3/42 173/3/41
f 172/3/40 173/3/41 174/3/42
f 174/3/42 160/3/28 150/3/18
f 174/3/42 150/3/18 148/3/16
f 175/3/43 172/3/40 174/3/42
f 175/3/43 174/3/42 148/3/16
f 172/3/40 176/3/44 169/3/37
f 167/3/35 169/3/37 176/3/44
f 175/3/43 177/3/45 172/3/40
f 176/3/44 172/3/40 177/3/45
f 178/3/46 175/3/43 148/3/16
f 178/3/46 177/3/45 175/3/43
f 177/3/45 179/3/47 176/3/44
f 179/3/47 167/3/35 176/3/44
f 177/3/45 178/3/46 180/3/48
f 179/3/47 177/3/45 180/3/48
f 178/3/46 148/3/16 181/3/49
f 148/3/16 145/3/13 181/3/49
f 178/3/46 182/3/50 180/3/48
f 182/3/50 179/3/47 180/3/48
f 181/3/49 183/3/51 178/3/46
f 182/3/50 178/3/46 183/3/51
f 145/3/13 184/3/52 181/3/49
f 183/3/51 181/3/49 184/3/52
f 184/3/52 145/3/13 185/3/53
f 184/3/52 186/3/54 183/3/51
f 187/3/55 185/3/53 145/3/13
f 147/3/15 187/3/55 145/3/13
f 185/3/53 188/3/56 184/3/52
f 184/3/52 188/3/56 186/3/54
f 187/3/55 147/3/15 155/3/23
f 185/3/53 187/3/55 189/3/57
f 188/3/56 190/3/58 186/3/54
f 191/3/59 186/3/54 190/3/58
f 190/3/58 188/3/56 192/3/60
f 186/3/54 191/3/59 193/3/61
f 183/3/51 186/3/54 193/3/61
f 194/3/62 193/3/61 191/3/59
f 193/3/61 182/3/50 183/3/51
f 193/3/61 194/3/62 195/3/63
f 182/3/50 193/3/61 195/3/63
f 194/3/62 196/3/64 195/3/63
f 196/3/64 182/3/50 195/3/63
f 196/3/64 194/3/62 197/3/65
f 182/3/50 196/3/64 198/3/66
f 198/3/66 179/3/47 182/3/50
f 197/3/65 199/3/67 196/3/64
f 199/3/67 198/3/66 196/3/64
f 199/3/67 197/3/65 200/3/68
f 179/3/47 198/3/66 201/3/69
f 167/3/35 179/3/47 201/3/69
f 198/3/66 199/3/67 202/3/70
f 198/3/66 202/3/70 201/3/69
f 200/3/68 203/3/71 199/3/67
f 203/3/71 202/3/70 199/3/67
f 203/3/71 200/3/68 204/3/72
f 167/3/35 201/3/69 205/3/73
f 201/3/69 202/3/70 205/3/73
f 167/3/35 205/3/73 155/3/23
f 155/3/23 205/3/73 187/3/55
f 202/3/70 206/3/74 205/3/73
f 205/3/73 206/3/74 187/3/55
f 202/3/70 203/3/71 206/3/74
f 187/3/55 206/3/74 189/3/57
f 204/3/72 207/3/75 203/3/71
f 207/3/75 206/3/74 203/3/71
f 206/3/74 207/3/75 189/3/57
f 207/3/75 204/3/72 208/3/76
f 207/3/75 185/3/53 189/3/57
f 192/3/60 207/3/75 208/3/76
f 185/3/53 207/3/75 188/3/56
f 207/3/75 192/3/60 188/3/56
f 209/3/23 210/3/73 211/3/15
f 212/3/35 210/3/73 209/3/23
f 213/3/22 209/3/23 211/3/15
f 209/3/23 214/3/32 212/3/35
f 214/3/32 209/3/23 213/3/22
f 211/3/15 215/3/19 213/3/22
f 216/3/30 214/3/32 213/3/22
f 217/3/21 213/3/22 215/3/19
f 213/3/22 217/3/21 216/3/30
f 211/3/15 218/3/17 215/3/19
f 217/3/21 215/3/19 218/3/17
f 218/3/17 211/3/15 219/3/14
f 217/3/21 220/3/77 216/3/30
f 220/3/77 217/3/21 221/3/25
f 222/3/78 216/3/30 220/3/77
f 221/3/25 217/3/21 223/3/79
f 216/3/30 222/3/78 224/3/33
f 214/3/32 216/3/30 224/3/33
f 225/3/80 224/3/33 222/3/78
f 223/3/79 217/3/21 226/3/20
f 218/3/17 226/3/20 217/3/21
f 223/3/79 226/3/20 227/3/81
f 226/3/20 218/3/17 228/3/18
f 219/3/14 228/3/18 218/3/17
f 227/3/81 226/3/20 229/3/28
f 226/3/20 228/3/18 229/3/28
f 227/3/81 229/3/28 230/3/82
f 224/3/33 225/3/80 231/3/36
f 232/3/38 231/3/36 225/3/80
f 224/3/33 233/3/37 214/3/32
f 233/3/37 224/3/33 231/3/36
f 233/3/37 212/3/35 214/3/32
f 231/3/36 232/3/38 234/3/39
f 230/3/82 235/3/41 232/3/38
f 232/3/38 235/3/41 234/3/39
f 230/3/82 229/3/28 235/3/41
f 236/3/40 231/3/36 234/3/39
f 231/3/36 236/3/40 233/3/37
f 234/3/39 235/3/41 236/3/40
f 229/3/28 237/3/42 235/3/41
f 235/3/41 237/3/42 236/3/40
f 229/3/28 228/3/18 237/3/42
f 236/3/40 238/3/44 233/3/37
f 212/3/35 233/3/37 238/3/44
f 239/3/16 237/3/42 228/3/18
f 240/3/43 236/3/40 237/3/42
f 237/3/42 239/3/16 240/3/43
f 228/3/18 219/3/14 239/3/16
f 236/3/40 240/3/43 241/3/45
f 238/3/44 236/3/40 241/3/45
f 239/3/16 242/3/46 240/3/43
f 242/3/46 241/3/45 240/3/43
f 241/3/45 243/3/47 238/3/44
f 243/3/47 212/3/35 238/3/44
f 244/3/48 241/3/45 242/3/46
f 243/3/47 241/3/45 244/3/48
f 245/3/50 244/3/48 242/3/46
f 245/3/50 243/3/47 244/3/48
f 242/3/46 239/3/16 246/3/49
f 212/3/35 243/3/47 247/3/69
f 210/3/73 212/3/35 247/3/69
f 248/3/66 247/3/69 243/3/47
f 243/3/47 245/3/50 248/3/66
f 249/3/70 210/3/73 247/3/69
f 247/3/69 248/3/66 249/3/70
f 246/3/49 250/3/51 242/3/46
f 250/3/51 245/3/50 242/3/46
f 246/3/49 239/3/16 251/3/13
f 219/3/14 251/3/13 239/3/16
f 250/3/51 246/3/49 252/3/52
f 251/3/13 252/3/52 246/3/49
f 219/3/14 253/3/55 251/3/13
f 253/3/55 219/3/14 211/3/15
f 211/3/15 210/3/73 253/3/55
f 253/3/55 254/3/53 251/3/13
f 252/3/52 251/3/13 254/3/53
f 254/3/53 253/3/55 255/3/57
f 256/3/74 253/3/55 210/3/73
f 253/3/55 256/3/74 255/3/57
f 210/3/73 249/3/70 256/3/74
f 257/3/75 254/3/53 255/3/57
f 257/3/75 255/3/57 256/3/74
f 258/3/56 252/3/52 254/3/53
f 254/3/53 257/3/75 258/3/56
f 252/3/52 258/3/56 259/3/54
f 259/3/54 250/3/51 252/3/52
f 258/3/56 260/3/58 259/3/54
f 260/3/58 258/3/56 261/3/60
f 257/3/75 261/3/60 258/3/56
f 262/3/59 259/3/54 260/3/58
f 261/3/60 257/3/75 263/3/76
f 263/3/76 257/3/75 264/3/72
f 259/3/54 262/3/59 265/3/61
f 250/3/51 259/3/54 265/3/61
f 266/3/62 265/3/61 262/3/59
f 265/3/61 245/3/50 250/3/51
f 265/3/61 266/3/62 267/3/63
f 245/3/50 265/3/61 267/3/63
f 266/3/62 268/3/64 267/3/63
f 267/3/63 268/3/64 245/3/50
f 269/3/83 268/3/64 266/3/62
f 268/3/64 248/3/66 245/3/50
f 269/3/83 270/3/67 268/3/64
f 270/3/67 248/3/66 268/3/64
f 271/3/68 270/3/67 269/3/83
f 270/3/67 249/3/70 248/3/66
f 271/3/68 272/3/71 270/3/67
f 272/3/71 249/3/70 270/3/67
f 264/3/72 272/3/71 271/3/68
f 264/3/72 257/3/75 272/3/71
f 272/3/71 256/3/74 249/3/70
f 256/3/74 272/3/71 257/3/75
o RenderMesh_129813890606207
v -0.904765 -0.344564 -0.564892
v -0.993892 -0.255437 -0.564892
v -0.904765 -0.255437 -0.564892
v -0.949328 -0.236978 -0.564892
v -0.886306 -0.300000 -0.564892
v -0.993892 -0.344564 -0.564892
v -1.012351 -0.300000 -0.564892
v -0.949328 -0.363023 -0.564892
v -0.647666 -0.323034 -0.557494
v -0.545115 -0.362232 -0.521683
v -0.647465 -0.376779 -0.554385
v -0.825336 -0.388015 -0.554169
v -0.544456 -0.318286 -0.524511
v -0.467454 -0.348448 -0.472930
v -0.844326 -0.326628 -0.557627
v -1.005264 -0.376932 -0.553422
v -1.047429 -0.325970 -0.553546
v -0.844326 -0.273372 -0.557627
v -1.047429 -0.274030 -0.553546
v -1.005264 -0.223069 -0.553422
v -0.825336 -0.211985 -0.554169
v -0.647666 -0.276966 -0.557494
v -0.647465 -0.223221 -0.554385
v -0.545115 -0.237768 -0.521683
v -0.544456 -0.281714 -0.524511
v -0.467454 -0.251552 -0.472930
v -0.465476 -0.286053 -0.475395
v -0.435851 -0.262071 -0.404056
v -0.422796 -0.286517 -0.379987
v -0.422796 -0.313483 -0.379987
v -0.465476 -0.313948 -0.475395
v -0.435851 -0.337929 -0.404056
v -1.110460 -0.138868 -0.303878
v -0.949328 -0.072125 -0.148432
v -0.949328 -0.072125 -0.303878
v -0.788196 -0.138868 -0.148432
v -1.110460 -0.138868 -0.148432
v -0.788196 -0.138868 -0.303878
v -1.177204 -0.300000 -0.303878
v -0.721453 -0.300000 -0.148432
v -1.177204 -0.300000 -0.148432
v -0.721453 -0.300000 -0.303878
v -1.110460 -0.461132 -0.303878
v -0.788196 -0.461132 -0.148432
v -1.110460 -0.461132 -0.148432
v -0.788196 -0.461132 -0.303878
v -0.949328 -0.527875 -0.303878
v -0.949328 -0.527875 -0.148432
v -0.825336 -0.211985 -0.508748
v -1.005264 -0.223069 -0.509495
v -0.844326 -0.273372 -0.505290
v -1.047429 -0.274030 -0.509371
v -1.047429 -0.325970 -0.509371
v -0.651186 -0.276966 -0.505432
v -0.649595 -0.222453 -0.509092
v -0.844326 -0.326628 -0.505290
v -1.005264 -0.376932 -0.509495
v -0.825336 -0.388015 -0.508748
v -0.651186 -0.323034 -0.505432
v -0.649595 -0.377547 -0.509092
v -0.566807 -0.236694 -0.481506
v -0.566808 -0.363306 -0.481506
v -0.569854 -0.318286 -0.478754
v -0.503890 -0.348996 -0.445519
v -0.569854 -0.281714 -0.478754
v -0.503890 -0.251005 -0.445519
v -0.507418 -0.313230 -0.444114
v -0.479615 -0.336612 -0.398385
v -0.465665 -0.313510 -0.370470
v -0.465665 -0.286491 -0.370470
v -0.507418 -0.286770 -0.444114
v -0.479615 -0.263388 -0.398385
v -1.047429 -0.274030 -0.553546
v -1.005264 -0.223069 -0.509495
v -1.005264 -0.223069 -0.553422
v -0.825336 -0.211985 -0.554169
v -1.047429 -0.274030 -0.509371
v -0.825336 -0.211985 -0.508748
v -1.047429 -0.325970 -0.509371
v -0.649595 -0.222453 -0.509092
v -1.047429 -0.325970 -0.553546
v -0.647465 -0.223221 -0.554385
v -1.005264 -0.376932 -0.553422
v -0.545115 -0.237768 -0.521683
v -1.005264 -0.376932 -0.509495
v -0.566807 -0.236694 -0.481506
v -0.825336 -0.388015 -0.508748
v -0.503890 -0.251005 -0.445519
v -0.825336 -0.388015 -0.554169
v -0.467454 -0.251552 -0.472930
v -0.649595 -0.377547 -0.509092
v -0.479615 -0.263388 -0.398385
v -0.647465 -0.376779 -0.554385
v -0.435851 -0.262071 -0.404056
v -0.545115 -0.362232 -0.521683
v -0.465665 -0.286491 -0.370470
v -0.566808 -0.363306 -0.481506
v -0.422796 -0.286517 -0.379987
v -0.503890 -0.348996 -0.445519
v -0.422796 -0.313483 -0.379987
v -0.467454 -0.348448 -0.472930
v -0.465665 -0.313510 -0.370470
v -0.479615 -0.336612 -0.398385
v -0.435851 -0.337929 -0.404056
v -0.721453 -0.300000 -0.303878
v -0.949328 -0.072125 -0.303878
v -0.788196 -0.138868 -0.303878
v -0.949328 -0.527875 -0.303878
v -0.788196 -0.461132 -0.303878
v -1.110460 -0.138868 -0.303878
v -1.110460 -0.461132 -0.303878
v -1.177204 -0.300000 -0.303878
v -0.993892 -0.255437 -0.564892
v -0.993892 -0.255437 -0.383977
v -0.949328 -0.236978 -0.564892
v -0.949328 -0.236978 -0.383977
v -1.012351 -0.300000 -0.383977
v -0.904765 -0.255437 -0.564892
v -1.012351 -0.300000 -0.564892
v -0.904765 -0.255437 -0.383977
v -0.993892 -0.344564 -0.383977
v -0.886306 -0.300000 -0.564892
v -0.993892 -0.344564 -0.564892
v -0.886306 -0.300000 -0.383977
v -0.949328 -0.363023 -0.383977
v -0.904765 -0.344564 -0.564892
v -0.949328 -0.363023 -0.564892
v -0.904765 -0.344564 -0.383977
v -1.023601 -0.225727 -0.383977
v -0.949328 -0.194963 -0.142682
v -0.949328 -0.194963 -0.383977
v -0.875056 -0.225727 -0.142682
v -1.023601 -0.225727 -0.142682
v -0.875056 -0.225727 -0.383977
v -1.054366 -0.300000 -0.383977
v -0.844291 -0.300000 -0.142682
v -1.054366 -0.300000 -0.142682
v -0.844291 -0.300000 -0.383977
v -1.023601 -0.374273 -0.383977
v -0.875056 -0.374273 -0.142682
v -1.023601 -0.374273 -0.142682
v -0.875056 -0.374273 -0.383977
v -0.949328 -0.405038 -0.383977
v -0.949328 -0.405038 -0.142682
v -1.012351 -0.300000 -0.383977
v -0.993892 -0.255437 -0.383977
v -1.054366 -0.300000 -0.383977
v -1.023601 -0.225727 -0.383977
v -1.023601 -0.374273 -0.383977
v -0.949328 -0.236978 -0.383977
v -0.949328 -0.194963 -0.383977
v -0.875056 -0.225727 -0.383977
v -0.993892 -0.344564 -0.383977
v -0.949328 -0.363023 -0.383977
v -0.949328 -0.405038 -0.383977
v -0.875056 -0.374273 -0.383977
v -0.904765 -0.255437 -0.383977
v -0.844291 -0.300000 -0.383977
v -0.904765 -0.344564 -0.383977
v -0.886306 -0.300000 -0.383977
vn 0.0005 0.0005 -1.0000
vn 0.1550 -0.0297 -0.9875
vn 0.4157 -0.0669 -0.9071
vn 0.1490 -0.0581 -0.9871
vn -0.0044 -0.0493 -0.9988
vn 0.4220 -0.0338 -0.9060
vn 0.7381 -0.0825 -0.6697
vn -0.0083 -0.0230 -0.9997
vn -0.0142 -0.0396 -0.9991
vn -0.0181 -0.0142 -0.9997
vn -0.0083 0.0230 -0.9997
vn -0.0181 0.0142 -0.9997
vn -0.0142 0.0396 -0.9991
vn -0.0044 0.0493 -0.9988
vn 0.1550 0.0297 -0.9875
vn 0.1490 0.0581 -0.9871
vn 0.4157 0.0669 -0.9071
vn 0.4217 0.0337 -0.9061
vn 0.7381 0.0825 -0.6697
vn 0.7537 0.0405 -0.6560
vn 0.9101 0.0836 -0.4060
vn 0.9125 0.0271 -0.4081
vn 0.9125 -0.0271 -0.4081
vn 0.7537 -0.0406 -0.6560
vn 0.9101 -0.0835 -0.4059
vn -0.7071 0.7071 -0.0000
vn 0.0005 1.0000 0.0005
vn 0.7071 0.7071 -0.0000
vn -0.7071 0.7071 0.0003
vn -1.0000 0.0005 0.0005
vn 1.0000 0.0005 0.0005
vn -0.7071 -0.7071 -0.0000
vn 0.7071 -0.7071 -0.0000
vn 0.0005 -1.0000 0.0005
vn -0.0034 0.0522 0.9986
vn -0.0142 0.0396 0.9991
vn -0.0083 0.0239 0.9997
vn -0.0181 0.0142 0.9997
vn -0.0181 -0.0142 0.9997
vn -0.1539 0.0347 0.9875
vn -0.1431 0.0689 0.9873
vn -0.0083 -0.0239 0.9997
vn -0.0142 -0.0396 0.9991
vn -0.0034 -0.0522 0.9986
vn -0.1539 -0.0347 0.9875
vn -0.1431 -0.0689 0.9873
vn -0.3864 0.0796 0.9189
vn -0.3864 -0.0796 0.9189
vn -0.3963 -0.0405 0.9172
vn -0.6785 -0.0884 0.7293
vn -0.3963 0.0406 0.9172
vn -0.6785 0.0884 0.7293
vn -0.7011 -0.0435 0.7118
vn -0.8705 -0.0875 0.4844
vn -0.8709 -0.0249 0.4909
vn -0.8709 0.0249 0.4909
vn -0.7010 0.0435 0.7118
vn -0.8705 0.0875 0.4844
vn -0.9410 0.3384 0.0006
vn -0.4529 0.8916 0.0005
vn -0.4530 0.8915 0.0003
vn 0.0005 1.0000 -0.0034
vn -0.9409 0.3386 -0.0000
vn -0.0005 1.0000 -0.0034
vn -0.9410 -0.3385 0.0003
vn 0.1070 0.9942 0.0073
vn -0.9410 -0.3384 0.0005
vn 0.1011 0.9949 0.0054
vn -0.4529 -0.8916 0.0005
vn 0.1431 0.9879 0.0601
vn -0.4531 -0.8915 -0.0000
vn 0.1431 0.9881 0.0562
vn -0.0005 -1.0000 -0.0034
vn 0.1021 0.9864 0.1285
vn 0.0005 -1.0000 -0.0034
vn 0.0972 0.9863 0.1334
vn 0.1070 -0.9942 0.0073
vn 0.0787 0.9241 0.3739
vn 0.1011 -0.9949 0.0054
vn 0.0865 0.8828 0.4617
vn 0.1431 -0.9879 0.0601
vn 0.1715 0.4431 0.8799
vn 0.1431 -0.9881 0.0562
vn 0.1792 0.3882 0.9040
vn 0.1021 -0.9864 0.1285
vn 0.1792 -0.3882 0.9040
vn 0.0972 -0.9863 0.1334
vn 0.1715 -0.4431 0.8799
vn 0.0787 -0.9241 0.3739
vn 0.0865 -0.8828 0.4617
vn -0.7071 -0.7071 0.0003
vn -0.7071 0.7071 0.0005
vn 0.7071 -0.7071 0.0003
vt 0.000000 0.000000
s 1
f 273/4/84 274/4/84 275/4/84
f 275/4/84 274/4/84 276/4/84
f 273/4/84 275/4/84 277/4/84
f 273/4/84 278/4/84 274/4/84
f 274/4/84 278/4/84 279/4/84
f 278/4/84 273/4/84 280/4/84
f 281/4/85 282/4/86 283/4/87
f 284/4/88 281/4/85 283/4/87
f 282/4/86 281/4/85 285/4/89
f 285/4/89 286/4/90 282/4/86
f 281/4/85 284/4/88 287/4/91
f 288/4/92 287/4/91 284/4/88
f 289/4/93 287/4/91 288/4/92
f 289/4/93 290/4/94 287/4/91
f 290/4/94 281/4/85 287/4/91
f 290/4/94 289/4/93 291/4/95
f 292/4/96 290/4/94 291/4/95
f 290/4/94 292/4/96 293/4/97
f 281/4/85 290/4/94 294/4/98
f 293/4/97 294/4/98 290/4/94
f 294/4/98 285/4/89 281/4/85
f 294/4/98 293/4/97 295/4/99
f 296/4/100 294/4/98 295/4/99
f 294/4/98 296/4/100 297/4/101
f 285/4/89 294/4/98 297/4/101
f 298/4/102 297/4/101 296/4/100
f 297/4/101 298/4/102 299/4/103
f 299/4/103 285/4/89 297/4/101
f 300/4/104 299/4/103 298/4/102
f 301/4/105 299/4/103 300/4/104
f 302/4/106 299/4/103 301/4/105
f 285/4/89 299/4/103 303/4/107
f 299/4/103 302/4/106 303/4/107
f 286/4/90 285/4/89 303/4/107
f 304/4/108 303/4/107 302/4/106
f 303/4/107 304/4/108 286/4/90
f 305/4/109 306/4/110 307/4/110
f 308/4/111 307/4/110 306/4/110
f 306/4/110 305/4/109 309/4/112
f 307/4/110 308/4/111 310/4/111
f 311/4/113 309/4/112 305/4/109
f 312/4/114 310/4/111 308/4/111
f 309/4/112 311/4/113 313/4/113
f 310/4/111 312/4/114 314/4/114
f 315/4/115 313/4/113 311/4/113
f 316/4/116 314/4/114 312/4/114
f 313/4/113 315/4/115 317/4/115
f 314/4/114 316/4/116 318/4/116
f 319/4/117 317/4/115 315/4/115
f 320/4/117 318/4/116 316/4/116
f 317/4/115 319/4/117 320/4/117
f 318/4/116 320/4/117 319/4/117
f 321/4/118 322/4/119 323/4/120
f 324/4/121 323/4/120 322/4/119
f 325/4/122 323/4/120 324/4/121
f 323/4/120 326/4/123 321/4/118
f 327/4/124 321/4/118 326/4/123
f 323/4/120 325/4/122 328/4/125
f 329/4/126 328/4/125 325/4/122
f 328/4/125 329/4/126 330/4/127
f 328/4/125 331/4/128 323/4/120
f 330/4/127 331/4/128 328/4/125
f 326/4/123 323/4/120 331/4/128
f 331/4/128 330/4/127 332/4/129
f 326/4/123 333/4/130 327/4/124
f 334/4/131 331/4/128 332/4/129
f 331/4/128 334/4/131 335/4/132
f 335/4/132 326/4/123 331/4/128
f 336/4/133 335/4/132 334/4/131
f 333/4/130 326/4/123 337/4/134
f 326/4/123 335/4/132 337/4/134
f 337/4/134 338/4/135 333/4/130
f 335/4/132 336/4/133 339/4/136
f 339/4/136 337/4/134 335/4/132
f 336/4/133 340/4/137 339/4/136
f 341/4/138 339/4/136 340/4/137
f 342/4/139 339/4/136 341/4/138
f 337/4/134 339/4/136 343/4/140
f 339/4/136 342/4/139 343/4/140
f 338/4/135 337/4/134 343/4/140
f 344/4/141 343/4/140 342/4/139
f 343/4/140 344/4/141 338/4/135
f 345/4/142 346/4/143 347/4/144
f 348/4/145 347/4/144 346/4/143
f 346/4/143 345/4/142 349/4/146
f 348/4/145 346/4/143 350/4/147
f 345/4/142 351/4/148 349/4/146
f 352/4/149 348/4/145 350/4/147
f 345/4/142 353/4/150 351/4/148
f 348/4/145 352/4/149 354/4/151
f 355/4/152 351/4/148 353/4/150
f 352/4/149 356/4/153 354/4/151
f 351/4/148 355/4/152 357/4/154
f 356/4/153 352/4/149 358/4/155
f 355/4/152 359/4/156 357/4/154
f 360/4/157 356/4/153 358/4/155
f 355/4/152 361/4/158 359/4/156
f 360/4/157 362/4/159 356/4/153
f 361/4/158 363/4/160 359/4/156
f 364/4/161 362/4/159 360/4/157
f 361/4/158 365/4/162 363/4/160
f 362/4/159 364/4/161 366/4/163
f 367/4/164 363/4/160 365/4/162
f 368/4/165 366/4/163 364/4/161
f 363/4/160 367/4/164 369/4/166
f 366/4/163 368/4/165 370/4/167
f 367/4/164 371/4/168 369/4/166
f 372/4/169 370/4/167 368/4/165
f 371/4/168 367/4/164 373/4/170
f 374/4/171 372/4/169 368/4/165
f 373/4/170 375/4/172 371/4/168
f 376/4/173 372/4/169 374/4/171
f 375/4/172 373/4/170 376/4/173
f 375/4/172 376/4/173 374/4/171
f 377/4/84 378/4/84 379/4/84
f 378/4/84 377/4/84 380/4/84
f 380/4/84 377/4/84 381/4/84
f 378/4/84 380/4/84 382/4/84
f 382/4/84 380/4/84 383/4/84
f 382/4/84 383/4/84 384/4/84
f 385/4/109 386/4/109 387/4/110
f 387/4/110 386/4/109 388/4/110
f 385/4/109 389/4/113 386/4/109
f 387/4/110 388/4/110 390/4/111
f 391/4/113 389/4/113 385/4/109
f 390/4/111 388/4/110 392/4/111
f 391/4/113 393/4/115 389/4/113
f 390/4/111 392/4/111 394/4/114
f 395/4/174 393/4/115 391/4/113
f 394/4/114 392/4/111 396/4/114
f 395/4/174 397/4/117 393/4/115
f 394/4/114 396/4/114 398/4/116
f 399/4/117 397/4/117 395/4/174
f 398/4/116 396/4/114 400/4/116
f 399/4/117 400/4/116 397/4/117
f 398/4/116 400/4/116 399/4/117
f 401/4/175 402/4/110 403/4/110
f 404/4/111 403/4/110 402/4/110
f 402/4/110 401/4/175 405/4/109
f 403/4/110 404/4/111 406/4/111
f 407/4/113 405/4/109 401/4/175
f 408/4/114 406/4/111 404/4/111
f 405/4/109 407/4/113 409/4/113
f 406/4/111 408/4/114 410/4/114
f 411/4/115 409/4/113 407/4/113
f 412/4/176 410/4/114 408/4/114
f 409/4/113 411/4/115 413/4/115
f 410/4/114 412/4/176 414/4/116
f 415/4/117 413/4/115 411/4/115
f 416/4/117 414/4/116 412/4/176
f 413/4/115 415/4/117 416/4/117
f 414/4/116 416/4/117 415/4/117
f 429/4/84 430/4/84 432/4/84
f 419/4/84 418/4/84 417/4/84
f 419/4/84 420/4/84 418/4/84
f 417/4/84 421/4/84 419/4/84
f 418/4/84 420/4/84 422/4/84
f 432/4/84 428/4/84 431/4/84
f 420/4/84 423/4/84 422/4/84
f 424/4/84 422/4/84 423/4/84
f 421/4/84 417/4/84 425/4/84
f 428/4/84 432/4/84 430/4/84
f 426/4/84 421/4/84 425/4/84
f 428/4/84 426/4/84 431/4/84
f 421/4/84 426/4/84 427/4/84
f 426/4/84 428/4/84 427/4/84
f 422/4/84 424/4/84 429/4/84
f 430/4/84 429/4/84 424/4/84
